<?xml version="1.0" encoding="utf-8"?>
<!-- Generator: Adobe Illustrator 25.0.0, SVG Export Plug-In . SVG Version: 6.00 Build 0)  -->
<svg version="1.1" id="Layer_1" xmlns="http://www.w3.org/2000/svg" xmlns:xlink="http://www.w3.org/1999/xlink" x="0px" y="0px"
	 viewBox="0 0 200 200" style="enable-background:new 0 0 200 200;" xml:space="preserve">
<style type="text/css">
	.st0{fill:#C29E6C;}
</style>
<g>
	<g>
		<path class="st0" d="M26.37,79.46l4.5,1.69c1.9,0.71,3.39,2.3,3.97,4.24l2.38,7.95c0.37,1.24,1.51,2.09,2.81,2.09
			c1.29,0,2.43-0.85,2.81-2.09l2.38-7.95c0.58-1.94,2.07-3.53,3.97-4.24l4.49-1.69c1.14-0.43,1.9-1.52,1.9-2.74
			c0-1.22-0.76-2.31-1.9-2.74l-4.49-1.69c-1.9-0.71-3.39-2.3-3.97-4.24l-2.38-7.95c-0.37-1.24-1.51-2.09-2.81-2.09
			c-1.29,0-2.44,0.85-2.81,2.09l-2.38,7.95c-0.58,1.95-2.07,3.53-3.97,4.24l-4.5,1.69c-1.14,0.43-1.9,1.52-1.9,2.74
			C24.47,77.94,25.22,79.03,26.37,79.46L26.37,79.46z M40.02,70.91c1,2.41,2.75,4.45,4.95,5.81c-2.2,1.37-3.95,3.41-4.95,5.81
			c-1-2.4-2.75-4.45-4.95-5.81C37.27,75.35,39.02,73.31,40.02,70.91L40.02,70.91z M40.02,70.91"/>
		<path class="st0" d="M146.32,79.46l4.49,1.69c1.9,0.71,3.39,2.3,3.97,4.24l2.38,7.95c0.37,1.24,1.51,2.09,2.81,2.09
			c1.29,0,2.43-0.85,2.81-2.09l2.39-7.95c0.58-1.94,2.07-3.53,3.97-4.24l4.5-1.69c1.14-0.43,1.9-1.52,1.9-2.74
			c0-1.22-0.76-2.31-1.9-2.74l-4.5-1.69c-1.9-0.71-3.39-2.3-3.97-4.24l-2.39-7.95c-0.37-1.24-1.51-2.09-2.81-2.09
			c-1.29,0-2.44,0.85-2.81,2.09l-2.38,7.95c-0.58,1.95-2.07,3.53-3.97,4.24l-4.49,1.69c-1.14,0.43-1.9,1.52-1.9,2.74
			C144.42,77.94,145.18,79.03,146.32,79.46L146.32,79.46z M159.98,70.91c1,2.41,2.75,4.45,4.95,5.81c-2.21,1.37-3.95,3.41-4.95,5.81
			c-1-2.4-2.75-4.45-4.95-5.81C157.23,75.35,158.98,73.31,159.98,70.91L159.98,70.91z M159.98,70.91"/>
		<path class="st0" d="M86.34,39.61l4.5,1.69c1.9,0.71,3.38,2.3,3.97,4.24l2.39,7.95c0.37,1.24,1.51,2.09,2.81,2.09
			c1.29,0,2.44-0.85,2.81-2.09l2.38-7.95c0.58-1.95,2.07-3.53,3.97-4.24l4.5-1.69c1.14-0.43,1.9-1.52,1.9-2.74
			c0-1.22-0.76-2.32-1.9-2.74l-4.5-1.69c-1.9-0.71-3.38-2.3-3.97-4.25l-2.38-7.95c-0.37-1.24-1.51-2.09-2.81-2.09
			c-1.29,0-2.43,0.85-2.81,2.09l-2.39,7.95c-0.58,1.94-2.07,3.53-3.97,4.24l-4.5,1.69c-1.14,0.43-1.9,1.52-1.9,2.74
			C84.44,38.09,85.2,39.18,86.34,39.61L86.34,39.61z M100,31.05c1,2.41,2.75,4.45,4.95,5.81c-2.21,1.37-3.95,3.41-4.95,5.81
			c-1-2.41-2.75-4.45-4.95-5.81C97.25,35.5,99,33.46,100,31.05L100,31.05z M100,31.05"/>
		<path class="st0" d="M199.98,162.81c-0.03-0.24-0.08-0.48-0.17-0.7l-11.84-31.57c-0.43-1.14-1.52-1.9-2.74-1.9h-18.49
			l-11.12-29.67c-0.43-1.14-1.52-1.9-2.74-1.9h-18.49L123.26,67.4c-0.43-1.14-1.52-1.9-2.74-1.9h-5.85c-1.62,0-2.93,1.31-2.93,2.93
			c0,1.62,1.31,2.93,2.93,2.93h3.82l9.64,25.71H71.87l9.64-25.71h19.44c1.62,0,2.93-1.31,2.93-2.93c0-1.62-1.31-2.93-2.93-2.93
			H79.48c-1.22,0-2.31,0.76-2.74,1.9L65.61,97.07H47.12c-1.22,0-2.31,0.76-2.74,1.9l-11.12,29.67H14.77c-1.22,0-2.32,0.76-2.74,1.9
			L0.19,162.11c-0.01,0.01-0.07,0.21-0.09,0.29c-0.01,0.03-0.1,0.49-0.1,0.74v15.78c0,1.62,1.31,2.93,2.93,2.93h150.84
			c1.62,0,2.93-1.31,2.93-2.93c0-1.62-1.31-2.93-2.93-2.93H5.86v-9.92h28.77c1.62,0,2.93-1.31,2.93-2.93c0-1.62-1.31-2.93-2.93-2.93
			H7.16l9.64-25.71h36.98l9.64,25.71H48.38c-1.62,0-2.93,1.31-2.93,2.93c0,1.62,1.31,2.93,2.93,2.93h145.76v9.92h-26.73
			c-1.62,0-2.93,1.31-2.93,2.93c0,1.62,1.31,2.93,2.93,2.93h29.66c1.62,0,2.93-1.31,2.93-2.93v-15.78
			C200,163.02,199.99,162.92,199.98,162.81L199.98,162.81z M150.84,102.93l9.64,25.71h-56.26l9.64-25.71H150.84z M132.36,154.79
			l-7.61-20.29h15.22L132.36,154.79z M100,123.22l-7.61-20.29h15.22L100,123.22z M39.51,128.64l9.64-25.71h36.98l9.64,25.71H39.51z
			 M60.03,134.5h15.22l-7.61,20.29L60.03,134.5z M71.87,160.21l9.64-25.71h36.98l9.64,25.71H71.87z M136.58,160.21l9.64-25.71h36.98
			l9.64,25.71H136.58z M136.58,160.21"/>
	</g>
</g>
</svg>
