<?xml version="1.0" encoding="utf-8"?>
<!-- Generator: Adobe Illustrator 25.0.0, SVG Export Plug-In . SVG Version: 6.00 Build 0)  -->
<svg version="1.1" id="Layer_1" xmlns="http://www.w3.org/2000/svg" xmlns:xlink="http://www.w3.org/1999/xlink" x="0px" y="0px"
	 viewBox="0 0 200 200" style="enable-background:new 0 0 200 200;" xml:space="preserve">
<style type="text/css">
	.st0{fill:#C29E6C;}
</style>
<path class="st0" d="M198.23,70.45l-46.69-46.69c-1.14-1.14-2.67-1.77-4.29-1.77c-1.62,0-3.14,0.63-4.29,1.77l-15.09,15.09
	c-1.14,1.14-1.77,2.66-1.77,4.28c0,1.45,0.51,2.83,1.44,3.92l-6.09,6.1c-6.49-2.85-13.85-3.14-20.52-0.88
	c-7.51-2.26-15.55-1.98-22.49,0.78l-5.99-5.99c0.93-1.09,1.44-2.46,1.44-3.92c0-1.62-0.63-3.14-1.77-4.29L57.03,23.76
	c-1.14-1.15-2.67-1.78-4.28-1.78c-1.62,0-3.14,0.63-4.29,1.78L1.77,70.45c-2.36,2.36-2.36,6.21,0,8.57l15.09,15.09
	c1.15,1.15,2.67,1.78,4.29,1.78c1.31,0,2.55-0.42,3.58-1.18l22.06,22.06c-0.37,0.3-0.73,0.62-1.08,0.96l-5.89,5.89
	c-5.1,5.1-5.1,13.4,0,18.5c2.55,2.55,5.9,3.83,9.25,3.83c0.45,0,0.9-0.03,1.35-0.07c-0.39,3.78,0.86,7.71,3.75,10.6
	c2.55,2.55,5.9,3.83,9.25,3.83c1.03,0,2.07-0.12,3.08-0.37c0.04,3.3,1.31,6.59,3.82,9.1c2.55,2.55,5.9,3.83,9.25,3.83
	c1.54,0,3.07-0.27,4.53-0.81l1.96,1.96c2.66,2.66,6.3,4.01,9.88,4.01c3.12,0,6.19-1.03,8.52-3.12c2.61-2.35,4.14-5.54,4.32-9.03
	c4.44,1.44,9.5,0.66,12.93-2.43c2.59-2.33,4.11-5.48,4.31-8.93c4.48,1.5,9.61,0.75,13.09-2.38c2.59-2.33,4.11-5.49,4.31-8.94
	c4.47,1.49,9.59,0.74,13.06-2.39c2.7-2.43,4.24-5.76,4.33-9.39c0.09-3.57-1.3-7.07-3.83-9.59l-4.42-4.42l22.7-22.7
	c1.03,0.76,2.27,1.18,3.58,1.18c1.62,0,3.14-0.63,4.29-1.78l15.09-15.09C200.59,76.66,200.59,72.81,198.23,70.45L198.23,70.45z
	 M43.96,137.97c-2.82-2.81-2.82-7.39,0-10.21l5.89-5.89c1.41-1.41,3.25-2.11,5.1-2.11c1.85,0,3.7,0.7,5.1,2.11
	c2.82,2.81,2.82,7.39,0,10.21l-5.89,5.89C51.36,140.79,46.78,140.79,43.96,137.97L43.96,137.97z M58.32,152.33
	c-1.36-1.37-2.11-3.18-2.11-5.1c0-1.93,0.75-3.74,2.11-5.1l3.09-3.09c1.41-1.41,3.26-2.11,5.1-2.11c1.85,0,3.7,0.7,5.1,2.11
	c2.81,2.81,2.81,7.39,0,10.21l-3.09,3.09c-1.36,1.36-3.18,2.11-5.1,2.11C61.49,154.44,59.68,153.69,58.32,152.33L58.32,152.33z
	 M74.46,164.88c-2.81-2.82-2.81-7.39,0-10.21c1.41-1.41,3.26-2.11,5.1-2.11c1.85,0,3.7,0.7,5.11,2.11c2.81,2.81,2.81,7.39,0,10.21
	C81.86,167.7,77.28,167.7,74.46,164.88L74.46,164.88z M154.96,131.27c-0.05,2-0.9,3.84-2.4,5.18c-2.66,2.4-7.58,2.07-10.33-0.68
	l-11.1-11.1c-1.14-1.14-3-1.14-4.14,0c-1.14,1.15-1.14,3,0,4.14l8.48,8.48c1.41,1.41,2.16,3.29,2.11,5.29c-0.05,2-0.9,3.84-2.4,5.19
	c-2.66,2.39-7.58,2.07-10.33-0.68l-11.12-11.12c-1.14-1.15-3-1.15-4.14,0c-1.15,1.14-1.15,3,0,4.14l8.48,8.48
	c1.41,1.42,2.16,3.29,2.11,5.3c-0.05,2-0.9,3.84-2.4,5.18c-2.66,2.39-7.58,2.07-10.33-0.68l-10.97-10.98c-1.15-1.14-3-1.14-4.14,0
	c-1.15,1.14-1.15,3,0,4.14l8.49,8.49c1.41,1.41,2.15,3.29,2.1,5.28c-0.05,2-0.9,3.84-2.4,5.18c-2.66,2.39-7.58,2.07-10.33-0.68
	l-1.12-1.12c4.82-5.12,4.74-13.2-0.27-18.21c-2.61-2.61-6.06-3.88-9.48-3.82c0.83-4.15-0.36-8.62-3.57-11.83
	c-2.33-2.33-5.33-3.59-8.39-3.79c1.5-4.54,0.45-9.75-3.16-13.36c-3.19-3.19-7.62-4.38-11.75-3.59L28.93,90.61l1-1
	c1.14-1.14,1.14-3,0-4.14c-1.15-1.14-3-1.14-4.14,0l-4.49,4.49c-0.01,0.02-0.06,0.06-0.14,0.06c-0.08,0-0.13-0.04-0.14-0.06
	L5.91,74.87c-0.08-0.08-0.08-0.21,0-0.29L52.6,27.9c0.02-0.01,0.06-0.06,0.14-0.06c0.08,0,0.13,0.04,0.14,0.06l15.09,15.09
	c0.02,0.01,0.06,0.06,0.06,0.14c0,0.08-0.04,0.13-0.06,0.14L34.59,76.67c-1.15,1.14-1.15,3,0,4.14c1.14,1.14,3,1.14,4.14,0
	l29.6-29.6l7.38,7.38c0.56,0.56,1.31,0.86,2.07,0.86c0.43,0,0.86-0.09,1.26-0.29c4.08-1.95,8.87-2.77,13.65-2.46
	c-0.92,0.71-1.81,1.48-2.65,2.33L73.99,75.1c-5.1,5.1-5.1,13.4,0,18.5c2.47,2.47,5.75,3.83,9.25,3.83c3.49,0,6.78-1.36,9.25-3.83
	l11.64-11.63c1.3-1.3,3.41-1.3,4.71,0l44.01,44.01C154.26,127.39,155.01,129.26,154.96,131.27L154.96,131.27z M194.09,74.88
	L179,89.96c-0.02,0.01-0.06,0.06-0.14,0.06c-0.08,0-0.13-0.05-0.14-0.06l-33.19-33.19c-1.15-1.15-3-1.15-4.14,0
	c-1.14,1.14-1.14,3,0,4.14l29.7,29.7l-22.65,22.65l-35.45-35.45c-3.58-3.58-9.41-3.58-13,0L88.34,89.45c-2.81,2.82-7.4,2.82-10.21,0
	c-2.81-2.81-2.81-7.39,0-10.21L94.2,63.18c8.75-8.75,22.99-8.75,31.74,0c1.14,1.14,3,1.14,4.14,0c1.14-1.15,1.14-3,0-4.14
	c-1.06-1.06-2.18-2.01-3.36-2.87l4.95-4.95l0.82,0.82c1.15,1.15,3,1.15,4.14,0c1.15-1.15,1.15-3,0-4.14l-4.61-4.62
	c-0.02-0.02-0.06-0.06-0.06-0.14c0-0.08,0.04-0.13,0.06-0.14l15.09-15.09c0.02-0.02,0.06-0.06,0.14-0.06c0.08,0,0.13,0.04,0.14,0.06
	l46.69,46.69C194.17,74.67,194.17,74.8,194.09,74.88L194.09,74.88z M194.09,74.88"/>
</svg>
