<?xml version="1.0" encoding="utf-8"?>
<!-- Generator: Adobe Illustrator 25.0.0, SVG Export Plug-In . SVG Version: 6.00 Build 0)  -->
<svg version="1.1" id="Layer_1" xmlns="http://www.w3.org/2000/svg" xmlns:xlink="http://www.w3.org/1999/xlink" x="0px" y="0px"
	 viewBox="0 0 200 200" style="enable-background:new 0 0 200 200;" xml:space="preserve">
<style type="text/css">
	.st0{fill:#C29E6C;}
</style>
<g>
	<g>
		<path class="st0" d="M167.33,35.37c-0.72-1.1-1.95-1.76-3.27-1.76H36.09c-1.31,0-2.54,0.66-3.26,1.76L0.74,84.06
			c-0.15,0.21-0.29,0.44-0.4,0.68c-0.63,1.4-0.39,3.03,0.62,4.19l16.26,18.57c1.42,1.62,3.89,1.79,5.51,0.37
			c1.62-1.42,1.79-3.89,0.36-5.51L12.52,90.25h52.54l26.4,90.14l-29.83-34.06c-1.42-1.62-3.89-1.79-5.51-0.37
			c-1.62,1.42-1.79,3.89-0.36,5.51l41.32,47.18c0.74,0.85,1.81,1.33,2.94,1.33s2.2-0.49,2.94-1.33l44-50.25
			c1.42-1.62,1.26-4.09-0.37-5.51c-1.62-1.42-4.09-1.26-5.51,0.37l-32.5,37.12l26.4-90.13h52.52L163.19,118
			c-1.42,1.62-1.26,4.09,0.37,5.51c0.74,0.65,1.66,0.97,2.57,0.97c1.09,0,2.17-0.45,2.94-1.33l29.96-34.22
			c1.16-1.32,1.29-3.25,0.33-4.71L167.33,35.37z M188.86,82.44h-49.59l24.8-37.81L188.86,82.44z M68.05,79.13L43.32,41.42h49.46
			L68.05,79.13z M100.01,44.63l24.8,37.81H75.22L100.01,44.63z M107.24,41.42h49.59l-24.8,37.81L107.24,41.42z M36.08,44.62
			l24.8,37.82H11.16L36.08,44.62z M100.01,181.8L73.2,90.25h53.63L100.01,181.8z"/>
		<path class="st0" d="M65.31,131.65c0-2.16-1.75-3.91-3.91-3.91c-10.08,0-18.27-8.2-18.27-18.27c0-2.16-1.75-3.91-3.91-3.91
			s-3.91,1.75-3.91,3.91c0,10.08-8.2,18.27-18.27,18.27c-2.16,0-3.91,1.75-3.91,3.91c0,2.16,1.75,3.91,3.91,3.91
			c10.08,0,18.27,8.2,18.27,18.27c0,2.16,1.75,3.91,3.91,3.91s3.91-1.75,3.91-3.91c0-10.08,8.2-18.27,18.27-18.27
			C63.56,135.55,65.31,133.8,65.31,131.65z M39.22,140.11c-2.13-3.43-5.03-6.33-8.46-8.46c3.43-2.13,6.33-5.03,8.46-8.46
			c2.13,3.43,5.03,6.33,8.46,8.46C44.25,133.78,41.35,136.68,39.22,140.11z"/>
		<path class="st0" d="M164.85,23.45c6.46,0,11.72,5.26,11.72,11.72c0,2.16,1.75,3.91,3.91,3.91c2.16,0,3.91-1.75,3.91-3.91
			c0-6.46,5.26-11.72,11.72-11.72c2.16,0,3.91-1.75,3.91-3.91s-1.75-3.91-3.91-3.91c-6.46,0-11.72-5.26-11.72-11.72
			c0-2.16-1.75-3.91-3.91-3.91c-2.16,0-3.91,1.75-3.91,3.91c0,6.46-5.26,11.72-11.72,11.72c-2.16,0-3.91,1.75-3.91,3.91
			S162.69,23.45,164.85,23.45z M180.47,15.62c1.11,1.48,2.43,2.8,3.92,3.92c-1.48,1.11-2.8,2.43-3.92,3.92
			c-1.11-1.48-2.43-2.8-3.92-3.92C178.04,18.43,179.36,17.11,180.47,15.62z"/>
		<path class="st0" d="M154.58,129.86c-1.03,0-2.03,0.41-2.76,1.14c-0.73,0.73-1.14,1.73-1.14,2.76s0.42,2.03,1.14,2.76
			c0.73,0.73,1.73,1.14,2.76,1.14c1.03,0,2.03-0.42,2.76-1.14c0.73-0.73,1.14-1.73,1.14-2.76s-0.42-2.03-1.14-2.76
			C156.61,130.27,155.6,129.86,154.58,129.86z"/>
	</g>
</g>
</svg>
