<?xml version="1.0" encoding="utf-8"?>
<!-- Generator: Adobe Illustrator 25.0.0, SVG Export Plug-In . SVG Version: 6.00 Build 0)  -->
<svg version="1.1" id="Layer_1" xmlns="http://www.w3.org/2000/svg" xmlns:xlink="http://www.w3.org/1999/xlink" x="0px" y="0px"
	 viewBox="0 0 200 200" style="enable-background:new 0 0 200 200;" xml:space="preserve">
<style type="text/css">
	.st0{fill:#C29E6C;}
</style>
<g>
	<g>
		<path class="st0" d="M193.81,164.24h-4.86V76.25C195.75,69.84,200,60.76,200,50.7c0-19.36-15.75-35.12-35.11-35.12
			c-8.2,0-16.17,2.88-22.46,8.12c-1.25,1.04-1.41,2.88-0.38,4.13c1.04,1.24,2.89,1.41,4.13,0.38c5.24-4.36,11.88-6.77,18.71-6.77
			c16.13,0,29.25,13.12,29.25,29.25c0,16.13-13.12,29.25-29.25,29.25c-16.13,0-29.25-13.12-29.25-29.25c0-4.45,0.97-8.72,2.89-12.7
			c0.71-1.46,0.09-3.21-1.37-3.92c-1.46-0.7-3.21-0.09-3.92,1.37c-2.31,4.78-3.48,9.91-3.48,15.25c0,0.7,0.02,1.39,0.06,2.08h-17.46
			V16.07c0-4.58-3.73-8.31-8.31-8.31H52.27c-4.58,0-8.31,3.73-8.31,8.31v36.71H19.12c-4.44,0-8.05,3.61-8.05,8.05v69.18
			c0,1.62,1.31,2.93,2.93,2.93c1.62,0,2.93-1.31,2.93-2.93V60.83c0-1.2,0.98-2.19,2.19-2.19h24.85v8.61H31.76
			c-4.2,0-7.62,3.42-7.62,7.62v73.13c0,4.2,3.42,7.62,7.62,7.62h136.5c4.2,0,7.62-3.42,7.62-7.62V84.05
			c2.54-0.84,4.96-1.96,7.21-3.33v83.52H16.93v-20.69c0-1.62-1.31-2.93-2.93-2.93c-1.62,0-2.93,1.31-2.93,2.93v20.69H6.13
			c-3.38,0-6.13,2.75-6.13,6.13v8.99c0,7.1,5.78,12.88,12.88,12.88h174.19c7.1,0,12.88-5.78,12.88-12.88v-8.99
			C199.94,166.99,197.19,164.24,193.81,164.24L193.81,164.24z M112.37,58.64h18.3c0.71,3.04,1.81,5.93,3.25,8.61h-21.55V58.64z
			 M91.77,13.63l-0.87,3.83c-0.04,0.2-0.22,0.33-0.41,0.33H65.86c-0.2,0-0.37-0.14-0.42-0.33l-0.87-3.83H91.77z M49.83,16.07
			c0-1.34,1.09-2.44,2.44-2.44h6.29l1.16,5.13c0.65,2.89,3.18,4.9,6.14,4.9h24.62c2.96,0,5.48-2.02,6.14-4.9l1.16-5.13h6.29
			c1.35,0,2.44,1.1,2.44,2.44v78.8H49.83V16.07z M49.83,100.73h56.68v9.78c0,1.35-1.09,2.44-2.44,2.44H52.27
			c-1.35,0-2.44-1.09-2.44-2.44V100.73z M170.02,148.02c0,0.97-0.79,1.76-1.76,1.76H31.76c-0.97,0-1.76-0.79-1.76-1.76V74.88
			c0-0.97,0.79-1.76,1.76-1.76h12.21v37.39c0,4.58,3.73,8.31,8.31,8.31h51.79c4.58,0,8.31-3.73,8.31-8.31V73.12h25.51
			c6.45,7.75,16.16,12.7,27,12.7c1.74,0,3.46-0.13,5.13-0.38V148.02z M90.3,170.12h19.34v4.55H90.3V170.12z M194.08,179.36
			c0,3.87-3.15,7.01-7.01,7.01H12.88c-3.87,0-7.01-3.15-7.01-7.01v-8.99c0-0.15,0.12-0.26,0.26-0.26l78.31,0.01v5
			c0,2.98,2.43,5.41,5.41,5.41h20.25c2.98,0,5.41-2.43,5.41-5.41v-5l78.31-0.01c0.15,0,0.26,0.12,0.26,0.26V179.36z M194.08,179.36"
			/>
		<path class="st0" d="M155.46,67.11c1.16,1.16,2.68,1.74,4.2,1.74c1.52,0,3.04-0.58,4.2-1.74l20.16-20.16
			c3.29-3.29,3.29-8.64,0-11.93c-3.29-3.29-8.64-3.29-11.93,0l-12.43,12.43l-1.98-1.98c-1.59-1.59-3.71-2.47-5.96-2.47
			c-2.25,0-4.37,0.88-5.96,2.47c-1.59,1.59-2.47,3.71-2.47,5.96c0,2.25,0.88,4.37,2.47,5.96L155.46,67.11z M149.9,49.63
			c0.48-0.48,1.13-0.75,1.81-0.75c0.69,0,1.33,0.27,1.82,0.75l3.83,3.83c1.27,1.27,3.33,1.27,4.6,0l14.28-14.28c1-1,2.63-1,3.63,0
			c1,1,1,2.63,0,3.63l-20.16,20.16c-0.03,0.03-0.08,0.03-0.1,0l-9.7-9.7c-0.48-0.48-0.75-1.13-0.75-1.82
			C149.15,50.76,149.41,50.11,149.9,49.63L149.9,49.63z M149.9,49.63"/>
		<path class="st0" d="M66.98,59.51c0.4,2.46-1.27,4.78-3.73,5.18c-2.46,0.4-4.78-1.27-5.18-3.73c-0.4-2.46,1.27-4.78,3.73-5.18
			C64.27,55.38,66.59,57.05,66.98,59.51L66.98,59.51z M66.98,59.51"/>
		<path class="st0" d="M79.93,56.07c2.3,0.96,3.4,3.6,2.44,5.9c-0.96,2.3-3.6,3.4-5.9,2.44c-2.3-0.95-3.4-3.6-2.44-5.9
			C74.99,56.2,77.63,55.11,79.93,56.07L79.93,56.07z M79.93,56.07"/>
		<path class="st0" d="M98.31,60.23c0,2.49-2.02,4.51-4.51,4.51c-2.49,0-4.51-2.02-4.51-4.51c0-2.49,2.02-4.51,4.51-4.51
			C96.28,55.71,98.31,57.73,98.31,60.23L98.31,60.23z M98.31,60.23"/>
	</g>
</g>
</svg>
