<?xml version="1.0" encoding="utf-8"?>
<!-- Generator: Adobe Illustrator 25.0.0, SVG Export Plug-In . SVG Version: 6.00 Build 0)  -->
<svg version="1.1" id="Layer_1" xmlns="http://www.w3.org/2000/svg" xmlns:xlink="http://www.w3.org/1999/xlink" x="0px" y="0px"
	 viewBox="0 0 141.7 141.7" style="enable-background:new 0 0 141.7 141.7;" xml:space="preserve">
<style type="text/css">
	.st0{fill:#F0903A;}
	.st1{fill:#72AE1B;}
	.st2{fill:#F5F5F4;}
	.st3{fill:#404799;}
</style>
<g>
	<path class="st0" d="M36.1,58.6h69.5C100.5,44.3,86.9,34,70.8,34C54.8,34,41.2,44.3,36.1,58.6z"/>
	<path class="st1" d="M70.8,107.7c16,0,29.7-10.3,34.7-24.6H36.1C41.2,97.4,54.8,107.7,70.8,107.7z"/>
	<path class="st2" d="M105.6,58.6H36.1c-1.4,3.8-2.1,8-2.1,12.3c0,4.3,0.7,8.4,2.1,12.3h69.5c1.4-3.8,2.1-8,2.1-12.3
		C107.7,66.5,107,62.4,105.6,58.6z"/>
	<g>
		<path class="st3" d="M70.9,60.4c-5.7,0-10.4,4.7-10.4,10.4s4.7,10.4,10.4,10.4s10.4-4.7,10.4-10.4S76.6,60.4,70.9,60.4z
			 M79.3,70.6l-5.5-0.3l-1.2,0.1l1.1-0.3l5-2.3C79.1,68.7,79.3,69.6,79.3,70.6z M78.6,67.4l-5.2,1.9l-1.1,0.6l0.9-0.8l3.7-4
			C77.7,65.7,78.2,66.5,78.6,67.4z M76.7,64.7l-4,3.7l-0.8,0.9l0.6-1.1l1.9-5.2C75.2,63.5,76,64,76.7,64.7z M73.9,62.9l-2.3,5
			L71.2,69l0.1-1.2l-0.3-5.5C72.1,62.4,73,62.6,73.9,62.9z M70.6,62.4l-0.3,5.5l0.1,1.2l-0.3-1.1l-2.3-5
			C68.7,62.6,69.6,62.4,70.6,62.4z M67.4,63.1l1.9,5.2l0.6,1.1l-0.8-0.9l-4-3.7C65.7,64,66.5,63.5,67.4,63.1z M64.7,65l3.7,4
			l0.9,0.8l-1.1-0.6l-5.2-1.9C63.5,66.5,64,65.7,64.7,65z M62.9,67.8l5,2.3l1.1,0.3l-1.2-0.1l-5.5,0.3
			C62.4,69.6,62.6,68.7,62.9,67.8z M62.4,71.1l5.5,0.3l1.2-0.1l-1.1,0.3l-5,2.3C62.6,73,62.4,72.1,62.4,71.1z M63.1,74.3l5.2-1.9
			l1.1-0.6l-0.9,0.8l-3.7,4C64,76,63.5,75.2,63.1,74.3z M65,77l4-3.7l0.8-0.9l-0.6,1.1l-1.9,5.2C66.5,78.2,65.7,77.7,65,77z
			 M67.8,78.8l2.3-5l0.3-1.1l-0.1,1.2l0.3,5.5C69.6,79.3,68.7,79.1,67.8,78.8z M69.3,70.8c0-0.9,0.7-1.6,1.6-1.6
			c0.9,0,1.6,0.7,1.6,1.6s-0.7,1.6-1.6,1.6C70,72.4,69.3,71.7,69.3,70.8z M71.1,79.3l0.3-5.5l-0.1-1.2l0.3,1.1l2.3,5
			C73,79.1,72.1,79.3,71.1,79.3z M74.3,78.6l-1.9-5.2l-0.6-1.1l0.8,0.9l4,3.7C76,77.7,75.2,78.2,74.3,78.6z M77,76.7l-3.7-4
			l-0.9-0.8l1.1,0.6l5.2,1.9C78.2,75.2,77.7,76,77,76.7z M78.8,73.9l-5-2.3l-1.1-0.3l1.2,0.1l5.5-0.3C79.3,72.1,79.1,73,78.8,73.9z"
			/>
		<path class="st3" d="M70.9,69.9c-0.5,0-1,0.4-1,1c0,0.5,0.4,1,1,1c0.5,0,1-0.4,1-1C71.8,70.3,71.4,69.9,70.9,69.9z"/>
	</g>
</g>
</svg>
