<?xml version="1.0" encoding="utf-8"?>
<!-- Generator: Adobe Illustrator 25.0.0, SVG Export Plug-In . SVG Version: 6.00 Build 0)  -->
<svg version="1.1" id="Layer_1" xmlns="http://www.w3.org/2000/svg" xmlns:xlink="http://www.w3.org/1999/xlink" x="0px" y="0px"
	 viewBox="0 0 141.7 141.7" style="enable-background:new 0 0 141.7 141.7;" xml:space="preserve">
<style type="text/css">
	.st0{fill:#2B479D;}
	.st1{fill:#F8D12E;}
</style>
<g>
	<path class="st0" d="M70.9,34C50.5,34,34,50.5,34,70.9s16.5,36.9,36.9,36.9s36.9-16.5,36.9-36.9C107.7,50.5,91.2,34,70.9,34z"/>
	<g>
		<polygon class="st1" points="70.8,40.4 71.7,43.2 74.6,43.2 72.3,44.9 73.2,47.6 70.8,45.9 68.4,47.6 69.3,44.9 67,43.2 
			69.9,43.2 		"/>
		<polygon class="st1" points="70.8,92.6 71.7,95.4 74.6,95.4 72.3,97.1 73.2,99.9 70.8,98.2 68.4,99.9 69.3,97.1 67,95.4 
			69.9,95.4 		"/>
		<polygon class="st1" points="85.1,45 86,47.8 88.9,47.8 86.6,49.5 87.5,52.3 85.1,50.6 82.8,52.3 83.7,49.5 81.3,47.8 84.2,47.8 
					"/>
		<polygon class="st1" points="94.9,54.7 95.8,57.4 98.7,57.4 96.4,59.2 97.3,61.9 94.9,60.2 92.6,61.9 93.5,59.2 91.1,57.4 
			94,57.4 		"/>
		<polygon class="st1" points="95.2,79.1 96,81.8 99,81.8 96.6,83.6 97.5,86.3 95.2,84.6 92.8,86.3 93.7,83.6 91.3,81.8 94.3,81.8 
					"/>
		<polygon class="st1" points="47,54.7 47.9,57.4 50.8,57.4 48.5,59.2 49.4,61.9 47,60.2 44.7,61.9 45.6,59.2 43.2,57.4 46.1,57.4 
					"/>
		<polygon class="st1" points="97.2,66.3 98.1,69.1 101,69.1 98.6,70.8 99.5,73.6 97.2,71.8 94.8,73.6 95.7,70.8 93.4,69.1 
			96.3,69.1 		"/>
		<polygon class="st1" points="44.8,66.3 45.7,69.1 48.6,69.1 46.3,70.8 47.1,73.6 44.8,71.8 42.4,73.6 43.3,70.8 41,69.1 
			43.9,69.1 		"/>
		<polygon class="st1" points="46.7,79.1 47.6,81.8 50.5,81.8 48.2,83.6 49.1,86.3 46.7,84.6 44.3,86.3 45.3,83.6 42.9,81.8 
			45.8,81.8 		"/>
		<polygon class="st1" points="85.5,89.1 86.4,91.9 89.4,91.9 87,93.6 87.9,96.4 85.5,94.7 83.2,96.4 84.1,93.6 81.7,91.9 
			84.7,91.9 		"/>
		<polygon class="st1" points="56.9,45 57.8,47.8 60.7,47.8 58.4,49.5 59.3,52.3 56.9,50.6 54.6,52.3 55.5,49.5 53.1,47.8 56,47.8 
					"/>
		<polygon class="st1" points="55.9,89 56.8,91.7 59.7,91.7 57.3,93.4 58.2,96.2 55.9,94.5 53.5,96.2 54.4,93.4 52,91.7 54.9,91.7 
					"/>
	</g>
</g>
</svg>
