<svg class="svg-icon" width="24" height="24" viewBox="1 1 24 24" version="1.1" xmlns="http://www.w3.org/2000/svg">
                     <path d="M19.874 6.084c-1.824-1.828-4.25-2.834-6.836-2.834-5.324 0-9.659 4.334-9.659 9.662 0 1.702 0.446 3.367 1.291 4.829l-1.371 5.008 5.123-1.344c1.413 0.769 3.001 1.177 4.616 1.177h0.004c0 0 0 0 0 0 5.324 0 9.662-4.334 9.662-9.662 0-2.582-1.005-5.008-2.83-6.836zM13.042 20.952v0c-1.444 0-2.856-0.388-4.090-1.12l-0.293-0.175-3.039 0.796 0.811-2.963-0.19-0.305c-0.807-1.276-1.23-2.754-1.23-4.273 0-4.429 3.603-8.032 8.036-8.032 2.144 0 4.163 0.838 5.679 2.354 1.516 1.52 2.35 3.534 2.35 5.682-0.004 4.433-3.607 8.036-8.032 8.036zM17.445 14.935c-0.24-0.122-1.428-0.705-1.649-0.785s-0.381-0.122-0.545 0.122c-0.16 0.24-0.625 0.785-0.766 0.948-0.141 0.16-0.282 0.183-0.522 0.061s-1.021-0.377-1.942-1.2c-0.716-0.64-1.204-1.432-1.344-1.672s-0.015-0.373 0.107-0.491c0.11-0.107 0.24-0.282 0.362-0.423s0.16-0.24 0.24-0.404c0.080-0.16 0.042-0.301-0.019-0.423s-0.545-1.31-0.743-1.794c-0.194-0.472-0.396-0.407-0.545-0.415-0.141-0.008-0.301-0.008-0.461-0.008s-0.423 0.061-0.644 0.301c-0.221 0.24-0.846 0.827-0.846 2.015s0.865 2.335 0.986 2.498c0.122 0.16 1.702 2.601 4.125 3.645 0.575 0.248 1.024 0.396 1.375 0.51 0.579 0.183 1.104 0.156 1.52 0.095 0.465-0.069 1.428-0.583 1.63-1.146s0.202-1.047 0.141-1.146c-0.057-0.107-0.217-0.168-0.461-0.29z"></path>
                  </svg>