<svg width="143" height="142" viewBox="0 0 143 142" fill="none" xmlns="http://www.w3.org/2000/svg">
<path d="M66.5797 13V0.495999L76.6357 0.495999V13L75.0037 13V1.96L68.2117 1.96V13H66.5797Z" fill="#C29A5C"/>
<path d="M84.5205 14.696C83.3485 14.4381 82.3652 13.9185 81.5706 13.1374C80.7915 12.3598 80.2491 11.4376 79.9432 10.3709C79.6408 9.28862 79.6135 8.18493 79.8611 7.05986C80.1122 5.91917 80.6005 4.92899 81.3259 4.08931C82.0705 3.23745 82.9595 2.62218 83.9931 2.24351C85.0457 1.85266 86.1502 1.7845 87.3065 2.03902C88.4784 2.29698 89.4522 2.82261 90.2278 3.61588C91.0225 4.39698 91.571 5.32868 91.8734 6.41099C92.1949 7.48112 92.2301 8.58652 91.979 9.72722C91.7314 10.8523 91.2431 11.8425 90.5142 12.6978C89.7887 13.5374 88.9014 14.1449 87.8522 14.5201C86.8186 14.8988 85.7081 14.9574 84.5205 14.696ZM81.4732 7.43929C81.2737 8.3456 81.2868 9.21677 81.5123 10.0528C81.7569 10.8766 82.167 11.5813 82.7426 12.1667C83.3217 12.7365 84.0175 13.1108 84.83 13.2897C85.6426 13.4685 86.433 13.4132 87.2012 13.1235C87.9694 12.8339 88.6392 12.3588 89.2106 11.6982C89.782 11.0376 90.1674 10.2541 90.3669 9.34779C90.5664 8.44148 90.5455 7.5686 90.3044 6.72912C90.0632 5.88965 89.6548 5.1772 89.0792 4.59178C88.5036 4.00635 87.8095 3.62421 86.9969 3.44535C86.2 3.26994 85.4157 3.33486 84.6441 3.64011C83.8758 3.92974 83.2061 4.40486 82.6347 5.06547C82.0633 5.72609 81.6762 6.51736 81.4732 7.43929Z" fill="#C29A5C"/>
<path d="M92.3851 16.6986L97.6354 5.35027L99.1165 6.03553L96.8693 10.8929L98.5683 11.6789L104.627 8.58509L106.326 9.37113L99.4422 12.8765L101.621 20.9714L99.878 20.1652L97.9334 13.0512L96.2344 12.2651L93.8662 17.3839L92.3851 16.6986Z" fill="#C29A5C"/>
<path d="M100.902 26.9729C100.482 26.6534 100.138 26.1808 99.8698 25.555L101.045 25.001C101.177 25.3827 101.37 25.6704 101.625 25.864C102.261 26.3481 103.348 26.1488 104.883 25.2659L106.324 24.4016L109.4 11.1541L110.776 12.1999L107.875 23.5909L117.788 17.5302L119.087 18.5179L105.591 26.4369C104.521 27.0508 103.608 27.3921 102.853 27.4608C102.087 27.5422 101.437 27.3796 100.902 26.9729Z" fill="#C29A5C"/>
<path d="M112.564 29.607L122.094 21.5121L128.604 29.1764L119.074 37.2713L118.017 36.0275L126.432 28.8803L122.035 23.7037L113.62 30.8509L112.564 29.607Z" fill="#C29A5C"/>
<path d="M123.356 37.0684C124.035 36.7087 124.727 36.5955 125.431 36.729C126.15 36.8551 126.834 37.1895 127.484 37.7322C128.142 38.2892 128.714 39.027 129.201 39.9459C129.486 40.4831 129.732 41.0677 129.941 41.6997C130.163 42.3243 130.317 42.904 130.401 43.4388L131.334 42.9441C132.267 42.4495 132.863 41.7804 133.122 40.9368C133.381 40.0932 133.252 39.1837 132.735 38.2083C132.428 37.6287 132.007 37.109 131.474 36.6494C130.954 36.1822 130.318 35.7501 129.564 35.3529L130.289 34.262C131.166 34.7206 131.909 35.2326 132.516 35.7978C133.138 36.3556 133.64 36.995 134.022 37.7159C134.742 39.073 134.922 40.3534 134.565 41.5573C134.207 42.7611 133.342 43.7265 131.971 44.4535L126.861 47.1627C126.479 47.3651 126.375 47.6467 126.548 48.0076L125.403 48.6147C125.196 48.3261 125.066 48.1145 125.012 47.9798C124.839 47.6189 124.81 47.2904 124.924 46.9942C125.039 46.698 125.213 46.4791 125.446 46.3376L126.24 45.8892C125.342 45.7317 124.506 45.3508 123.733 44.7465C122.974 44.1348 122.377 43.4189 121.942 42.599C121.56 41.8781 121.367 41.1562 121.365 40.4334C121.376 39.703 121.55 39.0404 121.886 38.4455C122.244 37.8572 122.734 37.3982 123.356 37.0684ZM126.432 44.9184C126.986 45.0411 127.425 45.0163 127.75 44.844L129.362 43.9896C129.226 42.8118 128.878 41.6929 128.316 40.6327C127.769 39.6007 127.121 38.8753 126.374 38.4566C125.627 38.0378 124.9 38.0157 124.193 38.3905C123.585 38.7127 123.158 39.2383 122.91 39.9671C122.67 40.71 122.775 41.5056 123.225 42.3537C123.592 43.0464 124.067 43.6184 124.651 44.0697C125.241 44.5352 125.835 44.8181 126.432 44.9184Z" fill="#C29A5C"/>
<path d="M127.454 56.1806C127.133 55.0244 127.132 53.9123 127.45 52.8443C127.768 51.7763 128.332 50.8476 129.142 50.058C129.952 49.2685 130.928 48.7153 132.069 48.3985C133.194 48.0861 134.298 48.0537 135.379 48.3013C136.465 48.5644 137.412 49.0736 138.22 49.8291C139.043 50.5804 139.615 51.5341 139.936 52.6904C140.265 53.8774 140.269 54.9973 139.947 56.0498C139.625 57.1024 139.062 58.0059 138.258 58.7603C137.475 59.5259 136.528 60.0628 135.418 60.371C135.171 60.4395 134.961 60.4895 134.787 60.5212L131.923 50.2074C131.081 50.5242 130.379 50.9848 129.816 51.5894C129.269 52.1898 128.885 52.8693 128.664 53.6281C128.458 54.3826 128.462 55.1453 128.676 55.9161C128.894 56.7024 129.3 57.3868 129.894 57.9692C130.487 58.5517 131.148 58.8995 131.877 59.0126L131.886 60.4798C131.232 60.3957 130.601 60.1559 129.993 59.7601C129.404 59.3755 128.885 58.8804 128.434 58.2748C127.999 57.665 127.673 56.9669 127.454 56.1806ZM133.044 49.8465L135.516 58.7497C136.362 58.4483 137.059 57.9975 137.606 57.3972C138.169 56.7926 138.545 56.1152 138.735 55.3649C138.941 54.6104 138.935 53.84 138.716 53.0538C138.498 52.2675 138.106 51.6041 137.541 51.0636C136.991 50.5189 136.32 50.1325 135.526 49.9046C134.751 49.6878 133.924 49.6685 133.044 49.8465Z" fill="#C29A5C"/>
<path d="M129.207 61.7309L141.692 61.0539L141.783 62.7314L133.449 68.1586L142.322 72.6768L142.409 74.2825L129.924 74.9594L129.839 73.4017L139.881 72.8573L131.824 68.7755L131.767 67.721L139.332 62.7441L129.291 63.2886L129.207 61.7309Z" fill="#C29A5C"/>
<path d="M125.232 85.3057L129.29 86.9225L129.21 87.1231C129.033 87.569 129.066 88.0473 129.31 88.558C129.555 89.0687 130.138 89.6369 131.06 90.2626C131.99 90.909 133.383 91.6277 135.238 92.4185L138.427 93.818L135.415 101.376L125.159 97.2898L124.538 98.8505L120.48 97.2338L121.022 95.8737L123.72 96.9486L127.397 87.7183L124.699 86.6434L125.232 85.3057ZM128.295 89.4195L125.764 95.7737L134.659 99.3182L136.525 94.6361L134.545 93.7698C132.494 92.8663 130.986 92.0677 130.023 91.3737C129.074 90.6857 128.498 90.0343 128.295 89.4195Z" fill="#C29A5C"/>
<path d="M118.714 104.472C119.298 103.611 120.048 102.989 120.966 102.606C121.874 102.235 122.794 102.076 123.725 102.128L117.349 97.8045L118.264 96.4537L132.845 106.34L132.023 107.551L130.017 106.191C130.388 107.042 130.543 107.939 130.482 108.884C130.426 109.851 130.128 110.732 129.589 111.526C129.104 112.241 128.508 112.794 127.799 113.183C127.104 113.582 126.356 113.829 125.557 113.924C124.748 114.033 123.939 113.987 123.128 113.786C122.331 113.593 121.588 113.263 120.899 112.796C119.932 112.141 119.173 111.336 118.621 110.382C118.074 109.45 117.798 108.461 117.793 107.413C117.779 106.379 118.086 105.399 118.714 104.472ZM120.162 104.903C119.65 105.657 119.409 106.441 119.438 107.253C119.472 108.088 119.703 108.873 120.132 109.608C120.561 110.344 121.127 110.95 121.828 111.426C122.57 111.929 123.375 112.223 124.245 112.31C125.114 112.397 125.938 112.279 126.717 111.956C127.487 111.647 128.119 111.129 128.613 110.4C128.918 109.95 129.122 109.393 129.225 108.728C129.332 108.085 129.317 107.437 129.18 106.784C129.048 106.152 128.772 105.647 128.354 105.266L125.175 103.111C124.24 102.922 123.301 102.981 122.358 103.289C121.415 103.597 120.683 104.134 120.162 104.903Z" fill="#C29A5C"/>
<path d="M118.159 111.769C118.687 112.327 118.981 112.963 119.041 113.677C119.112 114.404 118.972 115.152 118.623 115.924C118.263 116.706 117.705 117.455 116.95 118.17C116.508 118.589 116.011 118.983 115.458 119.352C114.915 119.734 114.398 120.037 113.905 120.261L114.631 121.028C115.358 121.794 116.162 122.19 117.044 122.214C117.926 122.237 118.768 121.87 119.569 121.111C120.046 120.659 120.434 120.115 120.734 119.478C121.045 118.853 121.291 118.124 121.472 117.291L122.718 117.699C122.51 118.666 122.216 119.518 121.833 120.255C121.462 121.003 120.981 121.658 120.388 122.219C119.273 123.276 118.088 123.792 116.832 123.77C115.576 123.747 114.415 123.172 113.347 122.045L109.37 117.846C109.073 117.533 108.773 117.508 108.472 117.771L107.581 116.83C107.803 116.553 107.972 116.371 108.088 116.284C108.389 116.02 108.698 115.904 109.014 115.935C109.33 115.966 109.588 116.075 109.786 116.262L110.431 116.907C110.342 116 110.486 115.092 110.861 114.186C111.247 113.291 111.778 112.524 112.451 111.886C113.044 111.325 113.688 110.946 114.383 110.75C115.09 110.565 115.775 110.556 116.438 110.721C117.101 110.909 117.675 111.258 118.159 111.769ZM111.418 116.832C111.447 117.399 111.589 117.816 111.842 118.083L113.096 119.407C114.195 118.962 115.18 118.326 116.051 117.501C116.899 116.698 117.425 115.88 117.628 115.048C117.832 114.216 117.659 113.51 117.109 112.929C116.635 112.429 116.015 112.158 115.246 112.115C114.466 112.082 113.728 112.396 113.031 113.056C112.462 113.595 112.038 114.206 111.759 114.889C111.468 115.583 111.355 116.231 111.418 116.832Z" fill="#C29A5C"/>
<path d="M104.172 119.106L110.618 129.82L104.222 133.668L103.468 132.414L108.465 129.407L102.773 119.947L104.172 119.106Z" fill="#C29A5C"/>
<path d="M89.6013 125.893C90.7385 125.51 91.8489 125.448 92.9325 125.708C94.001 125.973 94.9412 126.483 95.7532 127.239C96.5703 128.011 97.1628 128.942 97.5306 130.034C97.9036 131.141 97.9957 132.241 97.8069 133.335C97.6082 134.448 97.1636 135.434 96.4732 136.291C95.7727 137.169 94.8615 137.797 93.7395 138.175C92.6023 138.558 91.4969 138.61 90.4234 138.33C89.3398 138.07 88.3894 137.555 87.5723 136.783C86.7451 136.032 86.1451 135.103 85.7721 133.996C85.4043 132.904 85.3122 131.804 85.4958 130.696C85.6845 129.602 86.1317 128.624 86.8372 127.762C87.5276 126.904 88.449 126.282 89.6013 125.893ZM95.9536 130.54C95.6573 129.661 95.197 128.921 94.5727 128.321C93.9384 127.741 93.2237 127.349 92.4287 127.144C91.6388 126.954 90.8496 126.992 90.0611 127.258C89.2727 127.524 88.624 127.978 88.1151 128.623C87.6061 129.267 87.2771 130.019 87.1281 130.88C86.9791 131.741 87.0528 132.611 87.3491 133.49C87.6454 134.369 88.1133 135.107 88.7527 135.702C89.3922 136.297 90.1094 136.697 90.9045 136.901C91.6995 137.106 92.4912 137.076 93.2797 136.81C94.053 136.55 94.6915 136.09 95.1954 135.43C95.7043 134.786 96.0333 134.034 96.1823 133.173C96.3313 132.312 96.2551 131.435 95.9536 130.54Z" fill="#C29A5C"/>
<path d="M72.7984 126.293L73.1123 129.18L83.0378 128.101L84.3897 140.531L82.7673 140.708L81.5711 129.709L75.1291 130.409L76.3253 141.408L74.7029 141.585L73.5066 130.586L71.8126 130.77L71.343 126.452L72.7984 126.293Z" fill="#C29A5C"/>
<path d="M64.7259 128.351C65.9189 128.48 66.9526 128.89 67.8271 129.581C68.7015 130.272 69.3555 131.139 69.7891 132.184C70.2226 133.229 70.3754 134.34 70.2474 135.518C70.1211 136.679 69.7428 137.716 69.1123 138.629C68.466 139.541 67.6425 140.232 66.6417 140.702C65.6392 141.189 64.5415 141.367 63.3486 141.237C62.1238 141.104 61.0821 140.693 60.2236 140.004C59.365 139.315 58.734 138.458 58.3305 137.432C57.9094 136.421 57.7611 135.343 57.8857 134.197C57.9134 133.943 57.9447 133.729 57.9796 133.556L68.6209 134.713C68.6382 133.814 68.4702 132.991 68.1168 132.244C67.7618 131.513 67.2727 130.905 66.6496 130.419C66.0248 129.948 65.3147 129.67 64.5194 129.583C63.7082 129.495 62.9222 129.619 62.1615 129.955C61.4007 130.29 60.8329 130.776 60.458 131.411L59.0918 130.876C59.4121 130.299 59.8685 129.802 60.4612 129.384C61.0363 128.979 61.6885 128.68 62.4178 128.486C63.1453 128.307 63.9147 128.262 64.7259 128.351ZM68.5414 135.887L59.3556 134.888C59.3223 135.786 59.4833 136.6 59.8383 137.331C60.1917 138.077 60.6816 138.678 61.3082 139.132C61.933 139.603 62.651 139.882 63.4622 139.97C64.2734 140.058 65.0347 139.94 65.746 139.615C66.4556 139.306 67.0632 138.825 67.5688 138.171C68.0567 137.532 68.3809 136.771 68.5414 135.887Z" fill="#C29A5C"/>
<path d="M58.0514 127.631L54.0588 139.48L52.5122 138.959L54.2288 133.864L47.4512 131.581L45.7346 136.675L44.1881 136.154L48.1806 124.305L49.7272 124.826L47.9186 130.193L54.6963 132.477L56.5048 127.109L58.0514 127.631Z" fill="#C29A5C"/>
<path d="M46.1948 123.389L39.7483 134.103L38.3499 133.262L41.1216 128.655L34.9933 124.968L32.2217 129.574L30.8233 128.733L37.2698 118.019L38.6682 118.86L35.7481 123.714L41.8763 127.401L44.7964 122.548L46.1948 123.389Z" fill="#C29A5C"/>
<path d="M35.9895 117.135L27.3905 126.213L26.2057 125.091L29.2426 121.885L27.1865 119.937C26.1527 118.958 25.6275 117.954 25.611 116.924C25.5718 115.895 25.9593 114.951 26.7735 114.092C27.3017 113.534 27.8965 113.139 28.5579 112.906C29.2194 112.673 29.9031 112.637 30.6092 112.799C31.3153 112.961 31.9994 113.356 32.6615 113.983L35.9895 117.135ZM27.9571 109.527L19.3746 118.587L18.1898 117.465L26.7723 108.404L27.9571 109.527ZM33.9134 116.954L31.9271 115.073C31.2185 114.401 30.5149 114.12 29.8161 114.23C29.1064 114.351 28.4984 114.679 27.9923 115.213C27.6622 115.562 27.4235 115.941 27.2762 116.353C27.1063 116.765 27.0898 117.201 27.2267 117.661C27.3411 118.122 27.6596 118.6 28.1823 119.096L30.1338 120.944L33.9134 116.954Z" fill="#C29A5C"/>
<path d="M23.4479 102.87C24.1214 103.864 24.4779 104.917 24.5177 106.03C24.5575 107.144 24.3195 108.204 23.8037 109.211C23.2879 110.218 22.54 111.054 21.56 111.718C20.5933 112.374 19.5579 112.757 18.4537 112.868C17.3406 112.965 16.2808 112.785 15.2743 112.327C14.2546 111.878 13.408 111.156 12.7345 110.163C12.0432 109.143 11.6821 108.083 11.6513 106.983C11.6205 105.883 11.8653 104.847 12.3858 103.875C12.8841 102.9 13.61 102.089 14.5635 101.442C14.7754 101.298 14.9587 101.184 15.1133 101.098L21.1203 109.958C21.817 109.389 22.3355 108.728 22.6757 107.975C23.0027 107.232 23.1499 106.465 23.1171 105.675C23.071 104.895 22.8235 104.173 22.3746 103.511C21.9166 102.836 21.3135 102.317 20.5651 101.954C19.8167 101.592 19.0791 101.473 18.3523 101.599L17.8755 100.211C18.5224 100.082 19.1972 100.108 19.8997 100.289C20.5801 100.465 21.2304 100.769 21.8506 101.199C22.4576 101.638 22.99 102.195 23.4479 102.87ZM20.1738 110.657L14.9885 103.01C14.2828 103.565 13.7664 104.215 13.4394 104.959C13.0991 105.711 12.9587 106.474 13.0179 107.245C13.064 108.026 13.316 108.754 13.7739 109.429C14.2318 110.105 14.8149 110.608 15.5231 110.94C16.218 111.281 16.9781 111.432 17.8032 111.395C18.6061 111.353 19.3963 111.107 20.1738 110.657Z" fill="#C29A5C"/>
<path d="M15.3811 86.4407L3.04183 88.4636L2.77004 86.8057L10.4688 80.5093L1.15869 76.9769L0.898546 75.3901L13.2378 73.3672L13.4902 74.9067L3.56668 76.5335L12.0176 79.7203L12.1884 80.7624L5.20521 86.5281L15.1287 84.9012L15.3811 86.4407Z" fill="#C29A5C"/>
<path d="M13.9843 67.2169C13.9193 68.4151 13.5657 69.4695 12.9235 70.3801C12.2813 71.2906 11.4501 71.9907 10.4302 72.4802C9.41016 72.9697 8.30903 73.1824 7.12676 73.1183C5.96048 73.055 4.90434 72.7334 3.95836 72.1533C3.01324 71.5573 2.27866 70.7724 1.75461 69.7986C1.21458 68.8239 0.977055 67.7374 1.04202 66.5392C1.10872 65.309 1.46276 64.2466 2.10413 63.352C2.7455 62.4574 3.56733 61.7809 4.56962 61.3225C5.5568 60.8473 6.62554 60.6408 7.77585 60.7032C8.03148 60.7171 8.24673 60.7367 8.4216 60.7622L7.8421 71.4505C8.74112 71.4192 9.5538 71.2069 10.2802 70.8136C10.9905 70.4195 11.5716 69.8982 12.0234 69.2497C12.4592 68.6003 12.6987 67.8762 12.742 67.0774C12.7862 66.2626 12.6201 65.4845 12.2437 64.743C11.8673 64.0015 11.3518 63.4608 10.6972 63.1209L11.1573 61.7278C11.7506 62.0163 12.2721 62.4452 12.722 63.0144C13.1567 63.5667 13.4908 64.2017 13.7243 64.9194C13.9418 65.6362 14.0285 66.4021 13.9843 67.2169ZM6.66523 71.4348L7.16547 62.2084C6.26732 62.2238 5.46305 62.4285 4.75267 62.8226C4.02632 63.2159 3.45323 63.7376 3.03341 64.3878C2.59762 65.0372 2.35763 65.7693 2.31346 66.5841C2.26928 67.3989 2.42871 68.1526 2.79174 68.8453C3.13879 69.5371 3.65211 70.1177 4.33169 70.5872C4.99616 71.0399 5.774 71.3224 6.66523 71.4348Z" fill="#C29A5C"/>
<path d="M15.5245 56.253L4.8869 53.2994L3.69265 57.6007L2.28201 57.2091L5.10711 47.034L6.51775 47.4256L5.32351 51.7269L15.9611 54.6804L15.5245 56.253Z" fill="#C29A5C"/>
<path d="M14.5078 47.2236C13.8292 46.8638 13.3475 46.3549 13.0626 45.6968C12.7635 45.0312 12.6562 44.2771 12.7407 43.4345C12.8327 42.5778 13.1223 41.69 13.6095 40.7712C13.8943 40.234 14.2398 39.7019 14.646 39.1747C15.0381 38.6401 15.4318 38.1878 15.8271 37.8179L14.8941 37.3233C13.9611 36.8286 13.0729 36.7108 12.2293 36.9699C11.3857 37.2289 10.7053 37.8461 10.1882 38.8215C9.8809 39.4011 9.68671 40.0406 9.60561 40.7401C9.51038 41.4321 9.50993 42.2015 9.60425 43.0484L8.29416 43.0601C8.18162 42.0768 8.1888 41.1751 8.31572 40.3551C8.4285 39.5275 8.676 38.7532 9.05822 38.0323C9.7777 36.6752 10.736 35.807 11.9332 35.4275C13.1304 35.0481 14.4146 35.2219 15.7858 35.9488L20.896 38.6581C21.2777 38.8605 21.5693 38.7887 21.7708 38.4428L22.9158 39.0498C22.7934 39.3833 22.6913 39.6099 22.6097 39.7297C22.4082 40.0756 22.1528 40.2842 21.8433 40.3556C21.5338 40.4269 21.2552 40.4059 21.0074 40.2927L20.1904 39.8867C20.5642 40.7187 20.7179 41.6242 20.6517 42.6032C20.5712 43.5747 20.3137 44.4704 19.879 45.2903C19.4968 46.0112 19.0073 46.5758 18.4107 46.9838C17.7999 47.3844 17.1539 47.6123 16.4726 47.6677C15.7847 47.7014 15.1297 47.5533 14.5078 47.2236ZM19.2793 40.2729C19.07 39.7455 18.8028 39.3955 18.4777 39.2232L16.8661 38.3688C15.9673 39.1418 15.2369 40.0585 14.6748 41.1187C14.1277 42.1506 13.8905 43.0933 13.9632 43.9468C14.0359 44.8003 14.4256 45.4144 15.1324 45.7891C15.7403 46.1113 16.4153 46.1704 17.1574 45.9662C17.9069 45.7479 18.5066 45.2146 18.9562 44.3665C19.3235 43.6738 19.5302 42.9594 19.5764 42.2233C19.63 41.473 19.531 40.8229 19.2793 40.2729Z" fill="#C29A5C"/>
<path d="M23.439 38.248L22.3049 37.2847C22.5742 36.9677 22.7322 36.6086 22.779 36.2075C22.8362 35.7942 22.7342 35.3087 22.4732 34.7511C22.2224 34.1812 21.7708 33.5142 21.1183 32.7501C20.4659 31.9859 19.5759 31.0935 18.4485 30.0729L15.8894 27.7103L21.141 21.5276L30.6711 29.6225L29.6145 30.8664L21.2003 23.7192L17.9374 27.5605L19.5526 28.9955C21.2691 30.5584 22.5072 31.8935 23.2671 33.0008C24.027 34.1081 24.3958 35.0826 24.3735 35.9244C24.3494 36.7437 24.0379 37.5182 23.439 38.248Z" fill="#C29A5C"/>
<path d="M31.6063 28.6554L30.7058 27.4708C31.037 27.2191 31.2685 26.9024 31.4004 26.5207C31.5451 26.1294 31.5499 25.6333 31.4148 25.0326C31.2924 24.4222 30.9948 23.6737 30.5218 22.7871C30.0488 21.9006 29.3715 20.8377 28.4899 19.5986L26.4985 16.7411L32.9564 11.8319L40.5235 21.7863L39.2243 22.7739L32.5432 13.985L28.5309 17.0351L29.7998 18.7837C31.1402 20.6791 32.0624 22.2491 32.5664 23.4939C33.0705 24.7386 33.2212 25.7697 33.0185 26.587C32.8188 27.3819 32.3481 28.0714 31.6063 28.6554Z" fill="#C29A5C"/>
<path d="M41.9549 20.8199L36.7046 9.47153L38.1858 8.78627L40.04 12.7941L42.6103 11.605C43.9027 11.0071 45.0301 10.8909 45.9926 11.2566C46.9629 11.601 47.6966 12.3105 48.1938 13.3851C48.5163 14.0821 48.6633 14.7809 48.6349 15.4816C48.6065 16.1823 48.3864 16.8307 47.9745 17.4267C47.5627 18.0227 46.943 18.5121 46.1153 18.8951L41.9549 20.8199ZM51.9964 16.1742L46.7561 4.84766L48.2373 4.1624L53.4775 15.4889L51.9964 16.1742ZM42.8919 18.9584L45.3751 17.8096C46.2608 17.3997 46.7822 16.85 46.9391 16.1604C47.0894 15.4562 47.01 14.7702 46.7009 14.1022C46.4994 13.6666 46.2347 13.3042 45.9071 13.015C45.5872 12.7047 45.1881 12.5279 44.7097 12.4848C44.2392 12.4204 43.6772 12.5394 43.0238 12.8417L40.5842 13.9703L42.8919 18.9584Z" fill="#C29A5C"/>
</svg>
