<svg width="452" height="452" viewBox="0 0 452 452" fill="none" xmlns="http://www.w3.org/2000/svg">
<path d="M68.0759 385.572C24.9413 342.91 1 285.797 1 224.923C1 163.652 25.3453 106.341 69.3892 63.7782C113.332 21.3145 171.417 -0.857692 232.432 1.12197C292.942 3.10163 348.906 28.6392 390.121 72.7857C430.933 116.437 452.348 173.055 450.934 232.346C449.52 291.241 425.68 346.177 383.656 387.255C341.532 428.432 285.972 451.099 226.876 451C167.175 451 110.807 427.838 68.0759 385.572ZM3.12138 225.021C3.02036 349.047 104.24 448.921 226.876 449.02C347.391 449.119 446.186 352.512 449.015 232.346C451.843 110.597 355.573 7.25891 232.331 3.29959C106.968 -0.758712 3.22239 99.3131 3.12138 225.021Z" fill="#C29E6C"/>
<path d="M231.383 23.4878L232.511 23.5883L232.716 5.10046H231.588L231.383 23.4878Z" fill="#C29E6C"/>
<path d="M239.585 23.8897L240.508 5.50234L239.38 5.40186L238.56 23.8897H239.585Z" fill="#C29E6C"/>
<path d="M246.762 24.4923L248.3 6.20546L247.172 6.10498L245.634 24.3919L246.762 24.4923Z" fill="#C29E6C"/>
<path d="M253.836 25.3965L255.99 7.10963L254.964 7.00916L252.811 25.296L253.836 25.3965Z" fill="#C29E6C"/>
<path d="M260.911 26.5014L263.679 8.31495L262.654 8.21448L259.886 26.3004L260.911 26.5014Z" fill="#C29E6C"/>
<path d="M267.883 27.909L271.369 9.82302L270.241 9.62207L266.858 27.6075L267.883 27.909Z" fill="#C29E6C"/>
<path d="M274.855 29.5165L278.956 11.6315L277.828 11.3301L273.83 29.2151L274.855 29.5165Z" fill="#C29E6C"/>
<path d="M281.724 31.3251L286.441 13.641L285.415 13.3396L280.699 31.0236L281.724 31.3251Z" fill="#C29E6C"/>
<path d="M288.594 33.4351L293.823 15.9521L292.797 15.5502L287.568 33.1337L288.594 33.4351Z" fill="#C29E6C"/>
<path d="M295.361 35.746L301.205 18.4639L300.179 18.062L294.335 35.3441L295.361 35.746Z" fill="#C29E6C"/>
<path d="M302.025 38.258L308.382 21.2773L307.459 20.8754L301 37.856L302.025 38.258Z" fill="#C29E6C"/>
<path d="M308.587 41.0715L315.559 24.2918L314.636 23.8899L307.561 40.6696L308.587 41.0715Z" fill="#C29E6C"/>
<path d="M314.943 44.0857L322.633 27.6074L321.608 27.105L314.021 43.5833L314.943 44.0857Z" fill="#C29E6C"/>
<path d="M321.3 47.3009L329.502 31.1241L328.58 30.6217L320.377 46.7986L321.3 47.3009Z" fill="#C29E6C"/>
<path d="M327.554 50.8175L336.269 34.9421L335.347 34.3392L326.632 50.2147L327.554 50.8175Z" fill="#C29E6C"/>
<path d="M333.604 54.4348L342.934 38.8608L342.011 38.3584L332.783 53.9324L333.604 54.4348Z" fill="#C29E6C"/>
<path d="M339.55 58.3536L349.393 43.081L348.47 42.5786L338.73 57.7507L339.55 58.3536Z" fill="#C29E6C"/>
<path d="M345.394 62.3727L355.75 47.6025L354.827 46.9996L344.574 61.7698L345.394 62.3727Z" fill="#C29E6C"/>
<path d="M351.136 66.6931L361.901 52.2243L361.081 51.6215L350.213 65.9897L351.136 66.6931Z" fill="#C29E6C"/>
<path d="M356.57 71.114L367.848 57.1477L367.028 56.4443L355.75 70.4107L356.57 71.114Z" fill="#C29E6C"/>
<path d="M362.004 75.8367L373.692 62.1717L372.872 61.4684L361.184 75.1333L362.004 75.8367Z" fill="#C29E6C"/>
<path d="M367.13 80.6595L379.331 67.4969L378.614 66.6931L366.413 79.8557L367.13 80.6595Z" fill="#C29E6C"/>
<path d="M372.154 85.6833L384.765 72.9227L384.048 72.1189L371.437 84.8795L372.154 85.6833Z" fill="#C29E6C"/>
<path d="M376.973 90.8078L389.994 78.5496L389.277 77.7457L376.255 90.004L376.973 90.8078Z" fill="#C29E6C"/>
<path d="M381.587 96.133L395.121 84.3772L394.403 83.5734L380.972 95.3292L381.587 96.133Z" fill="#C29E6C"/>
<path d="M386.098 101.659L399.94 90.3054L399.324 89.5016L385.38 100.755L386.098 101.659Z" fill="#C29E6C"/>
<path d="M390.302 107.286L404.553 96.5349L403.938 95.6306L389.687 106.382L390.302 107.286Z" fill="#C29E6C"/>
<path d="M394.403 113.013L408.962 102.765L408.347 101.86L393.788 112.109L394.403 113.013Z" fill="#C29E6C"/>
<path d="M398.299 118.941L413.166 109.195L412.551 108.291L397.684 118.037L398.299 118.941Z" fill="#C29E6C"/>
<path d="M401.888 124.97L417.062 115.827L416.549 114.822L401.375 124.066L401.888 124.97Z" fill="#C29E6C"/>
<path d="M405.271 131.099L420.855 122.458L420.343 121.554L404.861 130.195L405.271 131.099Z" fill="#C29E6C"/>
<path d="M408.552 137.429L424.341 129.291L423.829 128.386L408.039 136.425L408.552 137.429Z" fill="#C29E6C"/>
<path d="M411.525 143.759L427.622 136.223L427.212 135.319L411.115 142.754L411.525 143.759Z" fill="#C29E6C"/>
<path d="M414.293 150.19L430.595 143.257L430.185 142.252L413.883 149.286L414.293 150.19Z" fill="#C29E6C"/>
<path d="M416.857 156.821L433.364 150.391L432.954 149.386L416.447 155.817L416.857 156.821Z" fill="#C29E6C"/>
<path d="M419.215 163.352L435.927 157.625L435.517 156.62L418.805 162.448L419.215 163.352Z" fill="#C29E6C"/>
<path d="M421.265 170.084L438.183 164.96L437.875 163.955L420.958 169.079L421.265 170.084Z" fill="#C29E6C"/>
<path d="M423.111 176.917L440.131 172.295L439.926 171.29L422.906 175.812L423.111 176.917Z" fill="#C29E6C"/>
<path d="M424.751 183.649L441.874 179.73L441.669 178.725L424.546 182.644L424.751 183.649Z" fill="#C29E6C"/>
<path d="M426.084 190.581L443.412 187.165L443.206 186.161L425.982 189.576L426.084 190.581Z" fill="#C29E6C"/>
<path d="M427.315 197.514L444.642 194.701L444.539 193.697L427.11 196.409L427.315 197.514Z" fill="#C29E6C"/>
<path d="M428.135 204.447L445.667 202.237L445.462 201.232L428.032 203.342L428.135 204.447Z" fill="#C29E6C"/>
<path d="M428.853 211.38L446.385 209.773L446.282 208.768L428.75 210.275L428.853 211.38Z" fill="#C29E6C"/>
<path d="M429.263 218.313L446.795 217.409V216.404L429.263 217.309V218.313Z" fill="#C29E6C"/>
<path d="M429.468 225.347L447 225.045V223.94L429.468 224.242V225.347Z" fill="#C29E6C"/>
<path d="M446.898 232.581V231.576L429.365 231.275V232.279L446.898 232.581Z" fill="#C29E6C"/>
<path d="M446.59 240.217L446.692 239.112L429.16 238.208L429.058 239.313L446.59 240.217Z" fill="#C29E6C"/>
<path d="M445.975 247.753L446.077 246.748L428.647 245.241L428.545 246.246L445.975 247.753Z" fill="#C29E6C"/>
<path d="M427.881 252.145L427.754 253.142L445.152 255.265L445.278 254.268L427.881 252.145Z" fill="#C29E6C"/>
<path d="M426.991 259.079L426.83 260.071L444.143 262.779L444.304 261.787L426.991 259.079Z" fill="#C29E6C"/>
<path d="M442.694 270.259L442.899 269.255L425.777 265.94L425.572 266.944L442.694 270.259Z" fill="#C29E6C"/>
<path d="M441.053 277.595L441.361 276.59L424.239 272.772L424.034 273.777L441.053 277.595Z" fill="#C29E6C"/>
<path d="M439.208 285.03L439.515 284.026L422.598 279.504L422.291 280.509L439.208 285.03Z" fill="#C29E6C"/>
<path d="M437.055 292.265L437.362 291.26L420.65 286.136L420.343 287.141L437.055 292.265Z" fill="#C29E6C"/>
<path d="M434.697 299.399L435.107 298.494L418.6 292.767L418.19 293.772L434.697 299.399Z" fill="#C29E6C"/>
<path d="M432.133 306.533L432.544 305.528L416.139 299.298L415.831 300.303L432.133 306.533Z" fill="#C29E6C"/>
<path d="M429.263 313.566L429.673 312.561L413.576 305.729L413.166 306.734L429.263 313.566Z" fill="#C29E6C"/>
<path d="M426.187 320.398L426.597 319.494L410.808 312.159L410.295 313.064L426.187 320.398Z" fill="#C29E6C"/>
<path d="M422.906 327.231L423.316 326.327L407.732 318.389L407.322 319.293L422.906 327.231Z" fill="#C29E6C"/>
<path d="M419.317 333.862L419.83 332.958L404.553 324.518L404.041 325.422L419.317 333.862Z" fill="#C29E6C"/>
<path d="M415.524 340.393L416.036 339.489L401.067 330.547L400.555 331.451L415.524 340.393Z" fill="#C29E6C"/>
<path d="M411.525 346.824L412.038 345.92L397.479 336.475L396.864 337.379L411.525 346.824Z" fill="#C29E6C"/>
<path d="M407.322 353.154L407.937 352.25L393.583 342.302L392.968 343.106L407.322 353.154Z" fill="#C29E6C"/>
<path d="M402.81 359.183L403.528 358.379L389.482 347.929L388.866 348.733L402.81 359.183Z" fill="#C29E6C"/>
<path d="M398.197 365.211L398.914 364.408L385.278 353.456L384.663 354.259L398.197 365.211Z" fill="#C29E6C"/>
<path d="M393.378 370.939L394.095 370.235L380.869 358.781L380.152 359.585L393.378 370.939Z" fill="#C29E6C"/>
<path d="M388.354 376.565L389.072 375.862L376.255 364.006L375.538 364.709L388.354 376.565Z" fill="#C29E6C"/>
<path d="M383.125 381.991L383.843 381.288L371.437 369.03L370.719 369.733L383.125 381.991Z" fill="#C29E6C"/>
<path d="M377.691 387.316L378.409 386.613L366.515 373.852L365.695 374.556L377.691 387.316Z" fill="#C29E6C"/>
<path d="M372.052 392.441L372.872 391.737L361.389 378.575L360.569 379.278L372.052 392.441Z" fill="#C29E6C"/>
<path d="M366.31 397.264L367.13 396.56L356.057 383.096L355.34 383.699L366.31 397.264Z" fill="#C29E6C"/>
<path d="M360.363 401.986L361.184 401.283L350.726 387.417L349.803 388.02L360.363 401.986Z" fill="#C29E6C"/>
<path d="M354.314 406.407L355.135 405.804L345.087 391.536L344.267 392.139L354.314 406.407Z" fill="#C29E6C"/>
<path d="M348.06 410.728L348.983 410.125L339.345 395.455L338.525 396.058L348.06 410.728Z" fill="#C29E6C"/>
<path d="M341.703 414.747L342.626 414.244L333.501 399.273L332.578 399.776L341.703 414.747Z" fill="#C29E6C"/>
<path d="M335.142 418.565L336.064 418.062L327.554 402.79L326.632 403.292L335.142 418.565Z" fill="#C29E6C"/>
<path d="M328.477 422.182L329.4 421.68L321.403 406.106L320.48 406.608L328.477 422.182Z" fill="#C29E6C"/>
<path d="M321.71 425.598L322.633 425.096L315.251 409.221L314.226 409.723L321.71 425.598Z" fill="#C29E6C"/>
<path d="M314.841 428.713L315.764 428.311L308.894 412.134L307.869 412.536L314.841 428.713Z" fill="#C29E6C"/>
<path d="M307.869 431.627L308.792 431.225L302.435 414.847L301.512 415.249L307.869 431.627Z" fill="#C29E6C"/>
<path d="M300.692 434.239L301.717 433.938L295.976 417.359L294.95 417.661L300.692 434.239Z" fill="#C29E6C"/>
<path d="M293.515 436.651L294.54 436.349L289.311 419.57L288.286 419.871L293.515 436.651Z" fill="#C29E6C"/>
<path d="M286.236 438.861L287.261 438.56L282.647 421.579L281.622 421.881L286.236 438.861Z" fill="#C29E6C"/>
<path d="M278.956 440.77L279.981 440.469L275.88 423.388L274.957 423.589L278.956 440.77Z" fill="#C29E6C"/>
<path d="M271.471 442.378L272.497 442.177L269.113 424.895L268.088 425.196L271.471 442.378Z" fill="#C29E6C"/>
<path d="M264.089 443.785L265.115 443.684L262.244 426.201L261.219 426.402L264.089 443.785Z" fill="#C29E6C"/>
<path d="M256.502 444.99L257.528 444.789L255.374 427.306L254.349 427.507L256.502 444.99Z" fill="#C29E6C"/>
<path d="M249.018 445.794H250.043L248.402 428.211L247.377 428.311L249.018 445.794Z" fill="#C29E6C"/>
<path d="M241.431 446.498L242.456 446.397L241.431 428.814H240.405L241.431 446.498Z" fill="#C29E6C"/>
<path d="M233.741 446.799H234.869L234.459 429.115L233.433 429.215L233.741 446.799Z" fill="#C29E6C"/>
<path d="M227.179 447L227.384 429.316H226.359L226.154 446.9L227.179 447Z" fill="#C29E6C"/>
<path d="M219.592 446.799L220.412 429.115H219.387L218.567 446.799H219.592Z" fill="#C29E6C"/>
<path d="M211.902 446.397L213.44 428.813L212.415 428.713L210.877 446.397H211.902Z" fill="#C29E6C"/>
<path d="M204.315 445.794L206.366 428.211L205.341 428.11L203.29 445.694L204.315 445.794Z" fill="#C29E6C"/>
<path d="M196.728 444.89L199.496 427.306L198.369 427.206L195.703 444.689L196.728 444.89Z" fill="#C29E6C"/>
<path d="M189.244 443.684L192.525 426.201L191.499 426.101L188.116 443.483L189.244 443.684Z" fill="#C29E6C"/>
<path d="M181.656 442.278L185.553 424.895L184.527 424.694L180.631 442.077L181.656 442.278Z" fill="#C29E6C"/>
<path d="M174.172 440.57L178.683 423.388L177.658 423.086L173.147 440.268L174.172 440.57Z" fill="#C29E6C"/>
<path d="M166.79 438.66L171.916 421.579L170.891 421.278L165.765 438.359L166.79 438.66Z" fill="#C29E6C"/>
<path d="M164.209 419.195L158.47 436.067L159.443 436.385L165.181 419.513L164.209 419.195Z" fill="#C29E6C"/>
<path d="M157.564 416.872L151.237 433.541L152.198 433.892L158.525 417.222L157.564 416.872Z" fill="#C29E6C"/>
<path d="M150.874 414.417L143.967 430.863L144.915 431.245L151.822 414.8L150.874 414.417Z" fill="#C29E6C"/>
<path d="M144.38 411.623L136.896 427.825L137.83 428.239L145.314 412.037L144.38 411.623Z" fill="#C29E6C"/>
<path d="M138.019 408.484L129.923 424.512L130.842 424.958L138.937 408.929L138.019 408.484Z" fill="#C29E6C"/>
<path d="M124.036 421.579L132.648 405.804L131.725 405.402L123.113 421.077L124.036 421.579Z" fill="#C29E6C"/>
<path d="M125.553 401.959L116.342 417.4L117.228 417.907L126.438 402.467L125.553 401.959Z" fill="#C29E6C"/>
<path d="M110.604 413.943L120.344 398.871L119.422 398.269L109.682 413.34L110.604 413.943Z" fill="#C29E6C"/>
<path d="M104.145 409.723L114.398 394.953L113.475 394.45L103.222 409.221L104.145 409.723Z" fill="#C29E6C"/>
<path d="M97.7882 405.402L108.554 390.934L107.733 390.331L96.8655 404.8L97.7882 405.402Z" fill="#C29E6C"/>
<path d="M91.534 400.78L102.915 386.713L101.992 386.01L90.7138 400.077L91.534 400.78Z" fill="#C29E6C"/>
<path d="M96.4623 381.579L84.6636 395.224L85.4458 395.873L97.2445 382.229L96.4623 381.579Z" fill="#C29E6C"/>
<path d="M79.6407 390.934L91.9441 377.671L91.1239 376.967L78.8205 390.23L79.6407 390.934Z" fill="#C29E6C"/>
<path d="M85.8557 372.183L73.108 384.982L73.8417 385.683L86.5893 372.885L85.8557 372.183Z" fill="#C29E6C"/>
<path d="M68.4651 380.183L81.6913 367.824L80.871 367.02L67.6449 379.479L68.4651 380.183Z" fill="#C29E6C"/>
<path d="M76.1626 361.841L62.455 373.802L63.205 374.627L76.9126 362.667L76.1626 361.841Z" fill="#C29E6C"/>
<path d="M71.4446 356.434L57.3204 367.917L57.9751 368.691L72.0992 357.207L71.4446 356.434Z" fill="#C29E6C"/>
<path d="M66.9218 350.868L52.3921 361.856L53.081 362.731L67.6108 351.743L66.9218 350.868Z" fill="#C29E6C"/>
<path d="M62.5976 345.176L47.6843 355.657L48.3416 356.556L63.2549 346.074L62.5976 345.176Z" fill="#C29E6C"/>
<path d="M58.4453 339.429L43.1649 349.39L43.7895 350.31L59.0698 340.35L58.4453 339.429Z" fill="#C29E6C"/>
<path d="M54.5945 333.345L38.9636 342.77L39.5546 343.711L55.1854 334.287L54.5945 333.345Z" fill="#C29E6C"/>
<path d="M50.9084 327.296L34.948 336.173L35.5046 337.134L51.465 328.257L50.9084 327.296Z" fill="#C29E6C"/>
<path d="M31.6574 330.346L47.9594 322.006L47.4468 321.001L31.1447 329.341L31.6574 330.346Z" fill="#C29E6C"/>
<path d="M28.0689 323.413L44.6785 315.676L44.1659 314.671L27.5563 322.408L28.0689 323.413Z" fill="#C29E6C"/>
<path d="M24.6855 316.379L41.6027 309.145L41.1925 308.14L24.2753 315.375L24.6855 316.379Z" fill="#C29E6C"/>
<path d="M21.6096 309.145L38.8344 302.614L38.4243 301.609L21.1995 308.14L21.6096 309.145Z" fill="#C29E6C"/>
<path d="M18.8413 301.911L36.1686 295.882L35.8611 294.877L18.4312 300.906L18.8413 301.911Z" fill="#C29E6C"/>
<path d="M16.2781 294.576L33.8105 289.15L33.5029 288.145L15.868 293.571L16.2781 294.576Z" fill="#C29E6C"/>
<path d="M13.92 287.04L31.7599 282.318L31.4523 281.313L13.6124 286.035L13.92 287.04Z" fill="#C29E6C"/>
<path d="M11.8694 279.504L29.8119 275.385L29.6068 274.38L11.5618 278.499L11.8694 279.504Z" fill="#C29E6C"/>
<path d="M10.0239 271.968L28.1714 268.452L27.9664 267.346L9.81884 270.863L10.0239 271.968Z" fill="#C29E6C"/>
<path d="M8.48597 264.231L26.8386 261.418L26.6335 260.313L8.38345 263.226L8.48597 264.231Z" fill="#C29E6C"/>
<path d="M7.25563 256.494L25.7107 254.284L25.5057 253.179L7.1531 255.49L7.25563 256.494Z" fill="#C29E6C"/>
<path d="M6.33287 248.758L24.788 247.15L24.6855 246.045L6.23035 247.753L6.33287 248.758Z" fill="#C29E6C"/>
<path d="M5.61518 241.021L24.1728 240.016L24.0703 238.911L5.51264 239.916L5.61518 241.021Z" fill="#C29E6C"/>
<path d="M5.20506 233.184L23.7627 232.782L23.6602 231.777L5.10253 232.079L5.20506 233.184Z" fill="#C29E6C"/>
<path d="M23.6602 225.648V224.543L5 224.242V225.347L23.6602 225.648Z" fill="#C29E6C"/>
<path d="M23.7627 218.514V217.409L5.20506 216.404L5.10253 217.509L23.7627 218.514Z" fill="#C29E6C"/>
<path d="M24.0703 211.279L24.1728 210.174L5.61518 208.567L5.51264 209.672L24.0703 211.279Z" fill="#C29E6C"/>
<path d="M24.788 204.145L24.8905 203.04L6.33287 200.83L6.23035 201.835L24.788 204.145Z" fill="#C29E6C"/>
<path d="M25.6082 197.011L25.8133 195.906L7.35815 192.993L7.1531 194.098L25.6082 197.011Z" fill="#C29E6C"/>
<path d="M26.736 189.878L26.9411 188.874L8.5885 185.256L8.48597 186.362L26.736 189.878Z" fill="#C29E6C"/>
<path d="M28.1714 182.845L28.3765 181.84L10.1264 177.62L9.92137 178.625L28.1714 182.845Z" fill="#C29E6C"/>
<path d="M29.8119 175.812L30.0169 174.807L11.9719 169.984L11.7669 170.989L29.8119 175.812Z" fill="#C29E6C"/>
<path d="M31.6574 168.879L31.965 167.874L14.125 162.448L13.8175 163.453L31.6574 168.879Z" fill="#C29E6C"/>
<path d="M33.8105 162.046L34.1181 161.041L16.4832 154.912L16.0731 155.917L33.8105 162.046Z" fill="#C29E6C"/>
<path d="M36.1686 155.214L36.5788 154.209L19.0464 147.577L18.7388 148.582L36.1686 155.214Z" fill="#C29E6C"/>
<path d="M38.8344 148.582L39.2445 147.578L21.9172 140.243L21.5071 141.247L38.8344 148.582Z" fill="#C29E6C"/>
<path d="M41.6026 141.951L42.1153 140.946L25.0956 133.109L24.6855 134.013L41.6026 141.951Z" fill="#C29E6C"/>
<path d="M44.781 135.42L45.1911 134.515L28.479 125.975L28.0689 126.98L44.781 135.42Z" fill="#C29E6C"/>
<path d="M48.0619 129.09L48.5746 128.085L32.17 119.042L31.6574 119.946L48.0619 129.09Z" fill="#C29E6C"/>
<path d="M51.5479 122.759L52.1631 121.855L36.0661 112.209L35.451 113.114L51.5479 122.759Z" fill="#C29E6C"/>
<path d="M55.3415 116.63L55.9566 115.726L40.1672 105.578L39.5521 106.482L55.3415 116.63Z" fill="#C29E6C"/>
<path d="M59.3401 110.702L59.9552 109.798L44.576 99.0469L43.9608 99.9512L59.3401 110.702Z" fill="#C29E6C"/>
<path d="M63.5437 104.774L64.1589 103.97L49.1897 92.7168L48.472 93.5206L63.5437 104.774Z" fill="#C29E6C"/>
<path d="M67.9525 99.1472L68.5676 98.2429L54.0086 86.4871L53.2909 87.3914L67.9525 99.1472Z" fill="#C29E6C"/>
<path d="M72.5662 93.621L73.1814 92.8172L59.0325 80.4585L58.3148 81.2623L72.5662 93.621Z" fill="#C29E6C"/>
<path d="M77.2825 88.1953L78.0002 87.3915L64.2614 74.6309L63.5437 75.4347L77.2825 88.1953Z" fill="#C29E6C"/>
<path d="M82.3064 83.071L83.0241 82.2671L69.798 69.0042L68.9777 69.808L82.3064 83.071Z" fill="#C29E6C"/>
<path d="M87.4329 78.0471L88.2531 77.2433L75.437 63.5784L74.6168 64.3822L87.4329 78.0471Z" fill="#C29E6C"/>
<path d="M92.7643 73.2242L93.5846 72.5208L81.2812 58.3535L80.4609 59.0569L92.7643 73.2242Z" fill="#C29E6C"/>
<path d="M98.3009 68.6023L99.1211 67.8989L87.2278 53.3297L86.4076 54.0331L98.3009 68.6023Z" fill="#C29E6C"/>
<path d="M103.94 64.1813L104.863 63.478L93.482 48.5068L92.6618 49.2102L103.94 64.1813Z" fill="#C29E6C"/>
<path d="M109.784 59.9611L110.604 59.2578L99.8388 43.9852L99.0186 44.5881L109.784 59.9611Z" fill="#C29E6C"/>
<path d="M115.731 55.942L116.653 55.3391L106.401 39.6647L105.478 40.2675L115.731 55.942Z" fill="#C29E6C"/>
<path d="M121.78 52.1239L122.703 51.5211L113.065 35.5452L112.142 36.0476L121.78 52.1239Z" fill="#C29E6C"/>
<path d="M128.034 48.5067L128.957 48.0043L119.832 31.6265L118.909 32.2293L128.034 48.5067Z" fill="#C29E6C"/>
<path d="M134.391 45.191L135.416 44.6886L126.804 28.1099L125.881 28.5118L134.391 45.191Z" fill="#C29E6C"/>
<path d="M140.85 42.0761L141.875 41.5737L133.878 24.6935L132.955 25.0954L140.85 42.0761Z" fill="#C29E6C"/>
<path d="M147.412 39.1624L148.437 38.7605L141.055 21.5789L140.132 21.9808L147.412 39.1624Z" fill="#C29E6C"/>
<path d="M148.377 18.6762L147.324 19.071L154.103 36.432L155.156 36.0372L148.377 18.6762Z" fill="#C29E6C"/>
<path d="M155.702 16.1939L154.732 16.5186L160.864 34.1083L161.834 33.7836L155.702 16.1939Z" fill="#C29E6C"/>
<path d="M167.713 31.9279L168.738 31.6264L163.201 13.8419L162.176 14.1434L167.713 31.9279Z" fill="#C29E6C"/>
<path d="M174.582 29.9183L175.71 29.7174L170.788 11.7319L169.763 12.0334L174.582 29.9183Z" fill="#C29E6C"/>
<path d="M181.554 28.3107L182.682 28.0093L178.376 9.92334L177.35 10.2248L181.554 28.3107Z" fill="#C29E6C"/>
<path d="M188.628 26.8029L189.654 26.6019L186.065 8.41553L185.04 8.61649L188.628 26.8029Z" fill="#C29E6C"/>
<path d="M195.703 25.6978L196.728 25.4968L193.755 7.20996L192.73 7.31044L195.703 25.6978Z" fill="#C29E6C"/>
<path d="M202.777 24.6933L203.905 24.5928L201.547 6.20544L200.419 6.30592L202.777 24.6933Z" fill="#C29E6C"/>
<path d="M209.954 24.0905L210.98 23.99L209.339 5.5022L208.211 5.60267L209.954 24.0905Z" fill="#C29E6C"/>
<path d="M217.029 23.5883H218.157L217.131 5.10046L216.004 5.20094L217.029 23.5883Z" fill="#C29E6C"/>
<path d="M224.206 23.3874H225.334L224.923 5H223.796L224.206 23.3874Z" fill="#C29E6C"/>
<path d="M27.0003 225.303C27.2033 113.621 119.338 24.712 230.751 28.0933C340.44 31.4747 426.385 123.367 423.95 231.767C421.514 339.074 333.337 425.298 225.881 424.999C116.7 424.8 26.7974 335.693 27.0003 225.303ZM28.1165 225.303C27.9136 335.096 117.308 423.706 225.881 424.005C332.83 424.303 420.601 338.577 422.935 231.767C425.37 123.864 339.831 32.5686 230.751 29.1873C119.947 25.806 28.3195 114.317 28.1165 225.303Z" fill="#C29E6C"/>
<path d="M223.279 418.901V416.926C224.085 416.926 224.891 416.926 225.698 416.926V418.901C224.992 419 224.085 419 223.279 418.901ZM229.225 417.025C230.031 417.025 230.838 417.025 231.644 417.025V419C230.838 419 230.031 419 229.124 419V417.025H229.225ZM217.333 418.704L217.433 416.729C218.24 416.729 219.046 416.828 219.852 416.828L219.751 418.803C219.046 418.803 218.139 418.802 217.333 418.704ZM235.07 416.828C235.877 416.828 236.683 416.729 237.489 416.729L237.59 418.704C236.784 418.704 235.978 418.803 235.07 418.803V416.828ZM211.386 418.407L211.588 416.433C212.394 416.531 213.201 416.531 214.007 416.63L213.906 418.605C213.1 418.506 212.193 418.407 211.386 418.407ZM240.916 416.531C241.722 416.433 242.528 416.433 243.335 416.334L243.435 418.309C242.629 418.408 241.823 418.408 240.916 418.506V416.531ZM205.44 417.815L205.642 415.84C206.448 415.939 207.254 416.038 208.061 416.136L207.859 418.111C207.154 418.013 206.347 417.914 205.44 417.815ZM246.862 416.038C247.668 415.939 248.475 415.84 249.281 415.741L249.482 417.716C248.676 417.815 247.87 417.914 247.064 418.013L246.862 416.038ZM199.595 417.025L199.897 415.05C200.703 415.149 201.51 415.248 202.316 415.346L202.014 417.321C201.207 417.321 200.401 417.223 199.595 417.025ZM252.607 415.346C253.413 415.248 254.219 415.149 255.026 414.951L255.328 416.926C254.522 417.025 253.715 417.124 252.909 417.321L252.607 415.346ZM193.649 416.136L194.052 414.161C194.858 414.26 195.664 414.458 196.47 414.556L196.168 416.531C195.362 416.433 194.455 416.334 193.649 416.136ZM258.452 414.458C259.258 414.359 260.065 414.161 260.871 414.063L261.173 415.939C260.367 416.038 259.561 416.235 258.755 416.334L258.452 414.458ZM187.803 415.05L188.206 413.174C189.013 413.371 189.819 413.47 190.625 413.668L190.222 415.544C189.416 415.346 188.609 415.248 187.803 415.05ZM264.197 413.371C265.003 413.174 265.809 413.075 266.616 412.878L267.019 414.754C266.213 414.951 265.406 415.05 264.6 415.248L264.197 413.371ZM182.058 413.766L182.562 411.89C183.369 412.088 184.175 412.285 184.981 412.483L184.477 414.359C183.671 414.161 182.764 413.964 182.058 413.766ZM269.941 412.186C270.748 411.989 271.554 411.792 272.36 411.594L272.763 413.47C271.957 413.668 271.151 413.865 270.345 414.063L269.941 412.186ZM176.213 412.285L176.717 410.409C177.523 410.607 178.329 410.804 179.136 411.002L178.632 412.878C177.826 412.68 177.019 412.483 176.213 412.285ZM275.585 410.804C276.392 410.607 277.198 410.409 277.903 410.212L278.407 412.088C277.601 412.285 276.795 412.483 275.988 412.68L275.585 410.804ZM170.468 410.607L171.073 408.73C171.879 408.928 172.686 409.224 173.391 409.422L172.786 411.298C172.081 411.1 171.275 410.903 170.468 410.607ZM281.229 409.125C282.035 408.928 282.741 408.632 283.547 408.434L284.152 410.31C283.346 410.508 282.539 410.804 281.733 411.002L281.229 409.125ZM164.825 408.829L165.429 406.953C166.235 407.249 167.042 407.447 167.747 407.743L167.143 409.619C166.336 409.323 165.53 409.027 164.825 408.829ZM286.873 407.447C287.679 407.15 288.385 406.953 289.191 406.657L289.796 408.533C288.99 408.829 288.284 409.027 287.478 409.323L286.873 407.447ZM159.181 406.755L159.886 404.879C160.692 405.175 161.398 405.472 162.204 405.768L161.499 407.644C160.692 407.348 159.886 407.052 159.181 406.755ZM292.416 405.472C293.222 405.175 293.928 404.879 294.734 404.583L295.44 406.36C294.633 406.657 293.928 406.953 293.122 407.249L292.416 405.472ZM153.537 404.583L154.343 402.806C155.149 403.102 155.855 403.398 156.661 403.694L155.956 405.472C155.149 405.175 154.343 404.879 153.537 404.583ZM297.959 403.398C298.765 403.102 299.471 402.806 300.176 402.509L300.882 404.287C300.076 404.583 299.37 404.879 298.564 405.274L297.959 403.398ZM148.095 402.213L148.901 400.436C149.606 400.732 150.413 401.127 151.118 401.423L150.312 403.201C149.606 402.904 148.901 402.608 148.095 402.213ZM303.301 401.127C304.006 400.831 304.812 400.436 305.518 400.139L306.324 401.917C305.619 402.213 304.812 402.608 304.107 402.904L303.301 401.127ZM142.652 399.744L143.559 397.967C144.265 398.362 145.071 398.658 145.776 399.053L144.869 400.831C144.164 400.436 143.458 400.139 142.652 399.744ZM308.642 398.658C309.348 398.263 310.154 397.967 310.86 397.572L311.666 399.349C310.96 399.744 310.154 400.041 309.449 400.436L308.642 398.658ZM137.311 397.078L138.218 395.301C138.923 395.696 139.629 396.091 140.435 396.387L139.528 398.164C138.822 397.868 138.117 397.473 137.311 397.078ZM313.883 396.091C314.588 395.696 315.294 395.301 315.999 395.005L316.907 396.683C316.201 397.078 315.496 397.473 314.689 397.868L313.883 396.091ZM132.07 394.215L133.078 392.536C133.783 392.931 134.489 393.326 135.194 393.721L134.186 395.4C133.481 395.005 132.775 394.61 132.07 394.215ZM319.023 393.326C319.728 392.931 320.434 392.536 321.139 392.141L322.046 393.82C321.341 394.215 320.635 394.61 319.93 395.005L319.023 393.326ZM126.93 391.153L127.938 389.475C128.643 389.87 129.349 390.363 130.054 390.758L129.046 392.437C128.341 392.042 127.636 391.647 126.93 391.153ZM324.163 390.364C324.868 389.969 325.574 389.574 326.279 389.08L327.287 390.758C326.582 391.153 325.876 391.647 325.171 392.042L324.163 390.364ZM121.79 387.994L122.899 386.315C123.604 386.809 124.31 387.204 125.015 387.697L123.907 389.376C123.201 388.882 122.496 388.487 121.79 387.994ZM329.101 387.302C329.807 386.907 330.512 386.414 331.117 386.019L332.125 387.599C331.419 388.092 330.714 388.487 330.109 388.981L329.101 387.302ZM116.852 384.636L117.96 383.056C118.666 383.55 119.371 384.044 119.976 384.439L118.867 386.019C118.162 385.624 117.557 385.13 116.852 384.636ZM333.939 384.142C334.644 383.649 335.249 383.254 335.955 382.76L337.063 384.34C336.358 384.834 335.753 385.327 335.047 385.722L333.939 384.142ZM111.913 381.18L113.123 379.6C113.828 380.094 114.433 380.588 115.138 381.081L113.929 382.661C113.324 382.168 112.619 381.674 111.913 381.18ZM338.776 380.785C339.381 380.291 340.087 379.798 340.691 379.304L341.8 380.884C341.195 381.378 340.49 381.871 339.784 382.365L338.776 380.785ZM107.176 377.526L108.386 375.947C108.991 376.44 109.696 376.934 110.301 377.428L109.091 379.008C108.487 378.613 107.781 378.02 107.176 377.526ZM343.412 377.23C344.017 376.736 344.723 376.243 345.327 375.749L346.537 377.23C345.932 377.724 345.227 378.218 344.622 378.711L343.412 377.23ZM102.54 373.774L103.851 372.293C104.455 372.787 105.161 373.379 105.766 373.873L104.455 375.354C103.75 374.86 103.145 374.268 102.54 373.774ZM348.049 373.577C348.653 373.083 349.258 372.589 349.963 371.997L351.173 373.478C350.568 373.972 349.963 374.564 349.258 375.058L348.049 373.577ZM98.0052 369.824L99.3154 368.343C99.9201 368.935 100.525 369.429 101.23 370.022L99.9201 371.503C99.2146 370.91 98.6099 370.417 98.0052 369.824ZM352.483 369.824C353.088 369.33 353.692 368.738 354.297 368.244L355.607 369.725C355.003 370.219 354.398 370.812 353.793 371.305L352.483 369.824ZM93.47 365.776L94.8809 364.393C95.4856 364.986 96.0903 365.479 96.695 366.072L95.2841 367.553C94.7801 366.862 94.1754 366.368 93.47 365.776ZM356.716 365.973C357.321 365.381 357.925 364.887 358.53 364.294L359.84 365.677C359.235 366.269 358.631 366.763 358.026 367.356L356.716 365.973ZM89.2371 361.53L90.648 360.147C91.2527 360.74 91.8574 361.332 92.4621 361.924L91.0512 363.307C90.4465 362.714 89.8418 362.122 89.2371 361.53ZM360.949 361.924C361.553 361.332 362.057 360.74 362.662 360.246L364.073 361.628C363.468 362.221 362.964 362.813 362.36 363.406L360.949 361.924ZM85.0042 357.185L86.5159 355.802C87.1206 356.395 87.6245 356.987 88.2292 357.58L86.8183 358.962C86.2136 358.37 85.6089 357.777 85.0042 357.185ZM365.081 357.678C365.585 357.086 366.19 356.493 366.693 355.901L368.104 357.185C367.6 357.777 366.996 358.37 366.391 358.962L365.081 357.678ZM80.9728 352.642L82.4846 351.359C82.9885 351.951 83.5932 352.642 84.0971 353.235L82.5854 354.519C82.0815 353.926 81.5775 353.334 80.9728 352.642ZM369.011 353.432C369.515 352.84 370.12 352.247 370.624 351.556L372.035 352.84C371.531 353.432 370.926 354.025 370.422 354.716L369.011 353.432ZM77.0423 348.1L78.6548 346.816C79.1587 347.409 79.7634 348.1 80.2674 348.693L78.7556 349.976C78.1509 349.384 77.647 348.692 77.0423 348.1ZM372.74 348.989C373.244 348.396 373.748 347.705 374.252 347.113L375.764 348.297C375.26 348.89 374.756 349.581 374.252 350.174L372.74 348.989ZM73.3133 343.36L74.9258 342.175C75.4298 342.866 75.9337 343.459 76.4376 344.15L74.8251 345.335C74.3211 344.644 73.8172 344.051 73.3133 343.36ZM376.469 344.545C376.973 343.953 377.477 343.261 377.981 342.669L379.493 343.854C378.989 344.545 378.485 345.138 377.981 345.829L376.469 344.545ZM69.6851 338.522L71.2976 337.337C71.8016 338.028 72.3055 338.719 72.8094 339.312L71.1969 340.497C70.6929 339.904 70.189 339.213 69.6851 338.522ZM379.997 339.904C380.501 339.213 381.005 338.62 381.408 337.929L382.92 339.015C382.416 339.707 381.912 340.299 381.509 340.99L379.997 339.904ZM66.2585 333.584L67.9718 332.498C68.4757 333.189 68.8788 333.881 69.3828 334.572L67.7702 335.658C67.1655 334.967 66.6616 334.276 66.2585 333.584ZM383.423 335.164C383.927 334.473 384.331 333.782 384.834 333.189L386.447 334.275C385.943 334.967 385.54 335.658 385.036 336.25L383.423 335.164ZM62.9326 328.449L64.646 327.363C65.0491 328.054 65.553 328.746 65.9561 329.437L64.2428 330.523C63.8397 329.931 63.3358 329.239 62.9326 328.449ZM386.649 330.326C387.052 329.634 387.556 328.943 387.959 328.252L389.571 329.239C389.168 329.931 388.664 330.622 388.261 331.313L386.649 330.326ZM59.7076 323.315L61.4209 322.327C61.824 323.018 62.2271 323.808 62.7311 324.5L61.0177 325.487C60.6146 324.796 60.2115 324.006 59.7076 323.315ZM389.773 325.388C390.176 324.697 390.579 324.006 390.982 323.315L392.595 324.302C392.192 324.993 391.788 325.685 391.385 326.376L389.773 325.388ZM56.7849 318.081L58.599 317.094C59.0021 317.785 59.4052 318.575 59.8084 319.266L57.9942 320.254C57.5911 319.562 57.188 318.772 56.7849 318.081ZM392.696 320.352C393.099 319.661 393.502 318.97 393.905 318.279L395.618 319.167C395.215 319.859 394.812 320.648 394.409 321.34L392.696 320.352ZM53.8621 312.65L55.6762 311.761C56.0794 312.551 56.4825 313.243 56.7849 313.934L54.9707 314.822C54.6684 314.131 54.2653 313.44 53.8621 312.65ZM395.417 315.217C395.82 314.526 396.122 313.736 396.525 313.045L398.239 313.934C397.835 314.625 397.533 315.415 397.13 316.106L395.417 315.217ZM51.2418 307.219L53.0559 306.429C53.459 307.219 53.7613 307.91 54.1645 308.7L52.3504 309.589C51.9473 308.7 51.6449 308.009 51.2418 307.219ZM398.037 310.083C398.44 309.391 398.743 308.601 399.045 307.91L400.758 308.7C400.456 309.49 400.053 310.181 399.75 310.873L398.037 310.083ZM48.7222 301.689L50.5363 300.899C50.8386 301.689 51.2418 302.38 51.5441 303.17L49.73 303.96C49.4277 303.269 49.1253 302.479 48.7222 301.689ZM400.557 304.849C400.859 304.158 401.161 303.368 401.564 302.677L403.379 303.467C403.076 304.257 402.774 304.948 402.371 305.738L400.557 304.849ZM46.4042 296.061L48.3191 295.369C48.6214 296.159 48.9238 296.949 49.2261 297.739L47.3112 298.431C47.0089 297.641 46.7065 296.851 46.4042 296.061ZM402.875 299.418C403.177 298.628 403.479 297.937 403.782 297.147L405.596 297.838C405.293 298.628 404.991 299.319 404.689 300.109L402.875 299.418ZM44.2877 290.333L46.2026 289.642C46.505 290.432 46.8073 291.222 47.1097 292.012L45.1948 292.703C44.8924 291.913 44.5901 291.123 44.2877 290.333ZM404.991 293.987C405.293 293.197 405.596 292.506 405.797 291.716L407.611 292.407C407.309 293.197 407.007 293.987 406.805 294.678L404.991 293.987ZM42.3728 284.606L44.2877 284.014C44.5901 284.804 44.7916 285.593 45.094 286.383L43.1791 286.976C42.8768 286.186 42.5744 285.396 42.3728 284.606ZM406.906 288.556C407.208 287.766 407.41 286.976 407.712 286.285L409.526 286.877C409.325 287.667 409.022 288.457 408.72 289.247L406.906 288.556ZM40.5587 278.78L42.4736 278.286C42.6752 279.076 42.9775 279.866 43.1791 280.656L41.2642 281.249C41.0627 280.36 40.7603 279.57 40.5587 278.78ZM408.72 283.026C408.922 282.236 409.224 281.446 409.426 280.656L411.24 281.15C411.038 281.94 410.736 282.73 410.534 283.52L408.72 283.026ZM38.9462 272.855L40.9619 272.361C41.1634 273.151 41.365 273.941 41.5666 274.83L39.6517 275.324C39.3493 274.534 39.1478 273.744 38.9462 272.855ZM410.333 277.398C410.534 276.608 410.736 275.818 410.937 275.028L412.852 275.521C412.651 276.311 412.449 277.101 412.247 277.891L410.333 277.398ZM37.5352 266.93L39.5509 266.535C39.7525 267.325 39.954 268.115 40.1556 269.004L38.1399 269.399C37.9384 268.609 37.7368 267.819 37.5352 266.93ZM411.844 271.67C412.046 270.88 412.247 270.09 412.348 269.3L414.263 269.695C414.062 270.485 413.86 271.275 413.658 272.065L411.844 271.67ZM36.3258 261.006L38.3415 260.611C38.5431 261.401 38.6439 262.289 38.8454 263.079L36.8298 263.474C36.6282 262.684 36.5274 261.894 36.3258 261.006ZM413.155 266.042C413.356 265.252 413.457 264.462 413.658 263.672L415.573 264.067C415.372 264.857 415.271 265.647 415.069 266.437L413.155 266.042ZM35.318 255.081L37.3337 254.785C37.4345 255.575 37.636 256.463 37.7368 257.253L35.7211 257.55C35.6204 256.76 35.4188 255.871 35.318 255.081ZM414.263 260.314C414.364 259.524 414.565 258.734 414.666 257.944L416.581 258.241C416.48 259.031 416.279 259.821 416.178 260.709L414.263 260.314ZM34.5117 249.057L36.5274 248.86C36.6282 249.65 36.729 250.538 36.8298 251.328L34.8141 251.526C34.7133 250.736 34.6125 249.847 34.5117 249.057ZM415.17 254.488C415.271 253.698 415.372 252.908 415.473 252.02L417.387 252.217C417.287 253.007 417.186 253.797 417.085 254.686L415.17 254.488ZM33.8063 242.935L35.8219 242.738C35.9227 243.528 36.0235 244.416 36.0235 245.206L34.0078 245.404C34.0078 244.614 33.907 243.824 33.8063 242.935ZM415.876 248.662C415.976 247.872 416.077 247.082 416.178 246.194L418.093 246.391C417.992 247.181 417.891 248.07 417.791 248.86L415.876 248.662ZM33.4031 236.911L35.4188 236.813C35.5196 237.701 35.5196 238.491 35.6204 239.281L33.6047 239.38C33.5039 238.59 33.4031 237.701 33.4031 236.911ZM416.48 242.836C416.581 242.046 416.581 241.256 416.682 240.368L418.597 240.466C418.496 241.256 418.496 242.145 418.395 242.935L416.48 242.836ZM33.1008 230.789H35.1164C35.1164 231.678 35.2172 232.468 35.2172 233.258L33.2016 233.357C33.2016 232.567 33.1008 231.678 33.1008 230.789ZM416.883 237.01C416.883 236.22 416.984 235.43 416.984 234.542L418.899 234.64C418.899 235.43 418.798 236.319 418.798 237.109L416.883 237.01ZM33 224.766V224.568H35.0157V224.766C35.0157 225.654 35.0157 226.444 35.0157 227.234H33C33 226.444 33 225.556 33 224.766ZM417.085 231.085C417.085 230.295 417.085 229.505 417.085 228.716H419C419 229.505 419 230.295 419 231.085V231.184H417.085V231.085ZM33.1008 221.013C33.1008 220.125 33.1008 219.335 33.2016 218.446L35.2172 218.545C35.2172 219.335 35.1164 220.223 35.1164 221.013H33.1008ZM417.085 222.889H419C419 223.679 419 224.568 419 225.358H417.085C417.085 224.469 417.085 223.679 417.085 222.889ZM33.3023 214.891C33.3023 214.002 33.4031 213.212 33.5039 212.324L35.5196 212.521C35.4188 213.311 35.4188 214.2 35.318 214.99L33.3023 214.891ZM416.883 216.965L418.798 216.866C418.798 217.656 418.899 218.545 418.899 219.335L416.984 219.433C416.984 218.643 416.984 217.853 416.883 216.965ZM33.7055 208.867C33.8063 207.979 33.9071 207.189 33.9071 206.3L35.9227 206.498C35.8219 207.288 35.7211 208.176 35.7211 208.966L33.7055 208.867ZM416.48 211.139L418.395 210.941C418.496 211.731 418.496 212.62 418.597 213.41L416.682 213.509C416.682 212.817 416.581 211.929 416.48 211.139ZM34.3102 202.745C34.411 201.856 34.5117 201.067 34.6125 200.277L36.6282 200.573C36.5274 201.363 36.4266 202.251 36.3258 203.041L34.3102 202.745ZM415.976 205.313L417.891 205.115C417.992 205.905 418.093 206.794 418.194 207.584L416.279 207.781C416.178 206.991 416.077 206.103 415.976 205.313ZM35.1164 196.722C35.2172 195.833 35.318 195.043 35.5196 194.253L37.5352 194.648C37.4345 195.438 37.2329 196.327 37.1321 197.117L35.1164 196.722ZM415.17 199.487L417.085 199.19C417.186 199.98 417.287 200.77 417.387 201.659L415.473 201.955C415.473 201.066 415.372 200.277 415.17 199.487ZM36.1243 190.698C36.3258 189.908 36.4266 189.019 36.6282 188.229L38.6439 188.624C38.4423 189.414 38.3415 190.303 38.1399 191.093L36.1243 190.698ZM414.263 193.661L416.178 193.266C416.279 194.056 416.48 194.845 416.581 195.734L414.666 196.03C414.565 195.339 414.465 194.549 414.263 193.661ZM37.2329 184.773C37.4345 183.983 37.636 183.095 37.7368 182.305L39.7525 182.798C39.5509 183.588 39.3493 184.378 39.2486 185.267L37.2329 184.773ZM413.155 187.933L415.069 187.538C415.271 188.328 415.372 189.118 415.573 190.007L413.658 190.402C413.558 189.513 413.356 188.723 413.155 187.933ZM38.6439 178.849C38.8454 178.059 39.047 177.17 39.2486 176.38L41.2642 176.874C41.0627 177.664 40.8611 178.454 40.6595 179.342L38.6439 178.849ZM411.945 182.206L413.86 181.712C414.062 182.502 414.263 183.292 414.465 184.082L412.55 184.477C412.247 183.786 412.046 182.996 411.945 182.206ZM40.1556 172.924C40.3572 172.134 40.6595 171.344 40.8611 170.455L42.776 171.048C42.5744 171.838 42.2721 172.628 42.0705 173.417L40.1556 172.924ZM410.433 176.479L412.348 175.985C412.55 176.775 412.751 177.565 412.953 178.355L411.038 178.849C410.837 178.059 410.635 177.269 410.433 176.479ZM41.9697 167.098C42.1713 166.308 42.4736 165.518 42.776 164.728L44.6909 165.419C44.3885 166.209 44.1869 166.999 43.8846 167.789L41.9697 167.098ZM408.821 170.85L410.635 170.258C410.837 171.048 411.139 171.838 411.34 172.628L409.426 173.22C409.325 172.331 409.022 171.541 408.821 170.85ZM43.8846 161.272C44.1869 160.482 44.4893 159.692 44.6909 158.902L46.6057 159.593C46.3034 160.383 46.001 161.173 45.7995 161.963L43.8846 161.272ZM407.007 165.123L408.821 164.432C409.123 165.222 409.325 166.012 409.627 166.801L407.813 167.394C407.511 166.703 407.208 165.913 407.007 165.123ZM46.001 155.544C46.3034 154.754 46.6057 153.964 46.9081 153.174L48.823 153.964C48.5206 154.754 48.2183 155.544 47.9159 156.334L46.001 155.544ZM404.991 159.593L406.805 158.902C407.108 159.692 407.41 160.482 407.712 161.272L405.898 161.963C405.596 161.173 405.293 160.383 404.991 159.593ZM48.3191 149.916C48.6214 149.126 49.0245 148.336 49.3269 147.546L51.2418 148.435C50.9394 149.225 50.5363 150.015 50.2339 150.706L48.3191 149.916ZM402.875 154.063L404.689 153.273C404.991 154.063 405.293 154.853 405.596 155.544L403.782 156.334C403.479 155.643 403.177 154.853 402.875 154.063ZM50.7379 144.386C51.0402 143.596 51.4433 142.806 51.8465 142.115L53.6606 143.004C53.2574 143.794 52.9551 144.485 52.552 145.275L50.7379 144.386ZM400.456 148.632L402.27 147.842C402.572 148.632 402.975 149.323 403.278 150.113L401.464 150.903C401.161 150.212 400.859 149.422 400.456 148.632ZM53.3582 138.955C53.7614 138.165 54.1645 137.474 54.4668 136.684L56.2809 137.671C55.8778 138.461 55.4747 139.152 55.1723 139.942L53.3582 138.955ZM398.037 143.3L399.75 142.411C400.153 143.201 400.456 143.892 400.859 144.682L399.146 145.571C398.743 144.781 398.339 144.09 398.037 143.3ZM56.1801 133.524C56.5833 132.734 56.9864 132.043 57.3896 131.351L59.2036 132.339C58.8005 133.03 58.3974 133.82 57.9942 134.511L56.1801 133.524ZM395.316 137.968L397.029 137.079C397.432 137.869 397.835 138.56 398.138 139.251L396.425 140.14C396.122 139.449 395.719 138.757 395.316 137.968ZM59.2036 128.29C59.6068 127.599 60.1107 126.809 60.5138 126.118L62.3279 127.204C61.9248 127.895 61.4209 128.587 61.0177 129.377L59.2036 128.29ZM392.494 132.833L394.207 131.845C394.61 132.536 395.014 133.326 395.417 134.018L393.703 135.005C393.3 134.215 392.897 133.524 392.494 132.833ZM62.3279 123.057C62.7311 122.366 63.235 121.674 63.7389 120.884L65.4522 121.971C65.0491 122.662 64.5452 123.353 64.142 124.044L62.3279 123.057ZM389.47 127.698L391.083 126.612C391.486 127.303 391.99 127.994 392.393 128.784L390.68 129.772C390.377 129.08 389.974 128.389 389.47 127.698ZM65.6538 117.922C66.1577 117.231 66.5608 116.54 67.0647 115.848L68.7781 117.033C68.2741 117.724 67.871 118.416 67.3671 119.107L65.6538 117.922ZM386.346 122.662L387.959 121.576C388.463 122.267 388.866 122.958 389.269 123.649L387.656 124.735C387.253 124.044 386.85 123.353 386.346 122.662ZM69.0804 112.985C69.5843 112.293 70.0882 111.602 70.5922 110.911L72.2047 112.096C71.7008 112.787 71.1969 113.478 70.6929 114.17L69.0804 112.985ZM383.02 117.724L384.633 116.54C385.137 117.231 385.54 117.922 386.044 118.613L384.431 119.699C384.028 119.107 383.524 118.416 383.02 117.724ZM72.7086 108.047C73.2125 107.356 73.7164 106.665 74.3211 106.072L75.9337 107.356C75.4298 108.047 74.9258 108.64 74.4219 109.331L72.7086 108.047ZM379.594 112.985L381.105 111.8C381.609 112.491 382.113 113.182 382.617 113.775L381.005 114.96C380.602 114.268 380.098 113.577 379.594 112.985ZM76.5384 103.307C77.0423 102.616 77.647 102.024 78.1509 101.333L79.7634 102.616C79.2595 103.209 78.6548 103.9 78.1509 104.492L76.5384 103.307ZM375.966 108.245L377.477 106.961C377.981 107.652 378.485 108.245 378.989 108.936L377.477 110.121C376.973 109.529 376.57 108.837 375.966 108.245ZM80.4689 98.6664C81.0736 98.0739 81.5775 97.3827 82.1822 96.7902L83.694 98.1727C83.0893 98.7652 82.5854 99.4564 82.0815 100.049L80.4689 98.6664ZM372.237 103.604L373.748 102.32C374.252 102.913 374.857 103.604 375.361 104.196L373.849 105.48C373.345 104.887 372.74 104.295 372.237 103.604ZM84.5003 94.1241C85.105 93.5316 85.6089 92.9391 86.2136 92.2479L87.7253 93.6303C87.1206 94.2228 86.6167 94.8153 86.012 95.5065L84.5003 94.1241ZM368.407 99.1601L369.818 97.7777C370.322 98.3702 370.926 99.0614 371.43 99.6539L369.919 100.938C369.515 100.345 368.911 99.7526 368.407 99.1601ZM88.7331 89.7792C89.3378 89.1867 89.9425 88.5943 90.5472 88.0018L91.9582 89.483C91.3535 90.0755 90.7488 90.6679 90.1441 91.2604L88.7331 89.7792ZM364.375 94.8153L365.786 93.4328C366.391 94.0253 366.895 94.6178 367.5 95.309L366.089 96.6915C365.484 96.0003 364.879 95.4078 364.375 94.8153ZM93.1676 85.5331C93.7723 84.9406 94.377 84.3482 94.9817 83.7557L96.3927 85.2369C95.788 85.8294 95.1833 86.3231 94.5786 86.9156L93.1676 85.5331ZM360.243 90.5692L361.654 89.1867C362.259 89.7792 362.864 90.3717 363.468 90.9642L362.057 92.3466C361.352 91.7541 360.747 91.1617 360.243 90.5692ZM97.6021 81.3858C98.2068 80.7933 98.9123 80.2996 99.517 79.7071L100.827 81.287C100.222 81.8795 99.6177 82.3732 98.9123 82.9657L97.6021 81.3858ZM355.91 86.4218L357.22 84.9406C357.825 85.5331 358.429 86.0269 359.034 86.6193L357.724 88.1005C357.119 87.6068 356.514 87.0143 355.91 86.4218ZM102.238 77.4359C102.843 76.8434 103.548 76.3497 104.153 75.856L105.463 77.4359C104.858 77.9296 104.153 78.5221 103.548 79.0158L102.238 77.4359ZM351.475 82.472L352.785 80.9908C353.39 81.5833 353.995 82.077 354.7 82.6695L353.39 84.1507C352.785 83.5582 352.08 82.9657 351.475 82.472ZM106.975 73.5848C107.68 73.0911 108.285 72.4986 108.991 72.0049L110.2 73.5848C109.495 74.0785 108.89 74.5723 108.184 75.1647L106.975 73.5848ZM346.94 78.6209L348.149 77.0409C348.754 77.5347 349.459 78.1271 350.064 78.6209L348.855 80.2008C348.25 79.7071 347.645 79.1146 346.94 78.6209ZM111.813 69.9312C112.518 69.4374 113.223 68.9437 113.828 68.45L115.038 70.1287C114.332 70.6224 113.627 71.1161 113.022 71.6099L111.813 69.9312ZM342.304 74.8685L343.513 73.2886C344.219 73.7823 344.823 74.276 345.529 74.8685L344.32 76.4485C343.614 75.9547 343.009 75.3622 342.304 74.8685ZM116.852 66.3763C117.557 65.8826 118.263 65.3888 118.968 64.9939L120.077 66.6725C119.371 67.1663 118.666 67.5613 117.96 68.055L116.852 66.3763ZM337.567 71.3136L338.676 69.7337C339.381 70.2274 339.986 70.7212 340.691 71.2149L339.583 72.7948C338.877 72.3011 338.273 71.8074 337.567 71.3136ZM121.891 63.0189C122.596 62.5252 123.302 62.1302 124.007 61.6365L125.116 63.4139C124.41 63.8089 123.705 64.3026 122.999 64.7964L121.891 63.0189ZM332.729 67.9562L333.838 66.2776C334.544 66.7713 335.249 67.1663 335.854 67.66L334.745 69.3387C334.04 68.845 333.334 68.3512 332.729 67.9562ZM127.132 59.859C127.837 59.4641 128.543 58.9703 129.349 58.5753L130.357 60.3528C129.651 60.7478 128.946 61.1427 128.24 61.6365L127.132 59.859ZM327.69 64.6976L328.698 63.0189C329.404 63.4139 330.109 63.9077 330.815 64.4014L329.807 66.0801C329.101 65.5863 328.396 65.0926 327.69 64.6976ZM132.372 56.7979C133.078 56.4029 133.884 56.0079 134.59 55.6129L135.597 57.3904C134.892 57.7854 134.086 58.1803 133.38 58.5753L132.372 56.7979ZM322.651 61.5377L323.659 59.7603C324.364 60.1553 325.07 60.649 325.775 61.044L324.768 62.7227C324.062 62.4264 323.357 62.0315 322.651 61.5377ZM137.815 53.9343C138.621 53.5393 139.326 53.1443 140.032 52.7493L140.939 54.5267C140.133 54.9217 139.427 55.3167 138.722 55.6129L137.815 53.9343ZM317.511 58.6741L318.418 56.8966C319.124 57.2916 319.93 57.6866 320.635 58.0816L319.728 59.859C318.922 59.4641 318.217 59.0691 317.511 58.6741ZM143.257 51.2681C144.063 50.8731 144.769 50.5769 145.575 50.1819L146.482 52.0581C145.676 52.3543 144.97 52.7493 144.164 53.1443L143.257 51.2681ZM312.27 55.8104L313.178 54.033C313.883 54.428 314.689 54.823 315.395 55.218L314.488 56.9954C313.681 56.6004 312.976 56.2054 312.27 55.8104ZM148.8 48.7994C149.606 48.5032 150.312 48.1082 151.118 47.812L151.924 49.6881C151.118 49.9844 150.413 50.3794 149.606 50.6756L148.8 48.7994ZM306.828 53.243L307.634 51.4656C308.441 51.8606 309.146 52.1568 309.852 52.5518L309.045 54.3292C308.34 53.9343 307.634 53.5393 306.828 53.243ZM154.444 46.4295C155.25 46.1333 156.056 45.837 156.863 45.5408L157.669 47.417C156.863 47.7132 156.056 48.0095 155.351 48.3057L154.444 46.4295ZM301.487 50.7744L302.293 48.8982C303.099 49.1944 303.805 49.5894 304.611 49.8856L303.805 51.7618C302.998 51.4656 302.192 51.0706 301.487 50.7744ZM160.188 44.2571C160.995 43.9609 161.801 43.6646 162.607 43.4671L163.313 45.3433C162.506 45.6395 161.7 45.9358 160.894 46.1333L160.188 44.2571ZM295.944 48.5032L296.649 46.627C297.455 46.9232 298.161 47.2195 298.967 47.6145L298.262 49.4907C297.455 49.0957 296.649 48.7994 295.944 48.5032ZM165.933 42.2822C166.739 41.9859 167.546 41.7884 168.352 41.4922L168.957 43.4671C168.15 43.6646 167.344 43.9609 166.538 44.2571L165.933 42.2822ZM290.3 46.3308L290.904 44.4546C291.711 44.7508 292.517 45.0471 293.222 45.3433L292.517 47.2195C291.912 46.9232 291.106 46.627 290.3 46.3308ZM171.779 40.5047C172.585 40.3072 173.391 40.011 174.197 39.8135L174.802 41.7884C173.996 41.9859 173.19 42.2822 172.383 42.4797L171.779 40.5047ZM284.656 44.4546L285.261 42.5784C286.067 42.8746 286.873 43.0721 287.679 43.3684L287.075 45.2446C286.268 44.9483 285.462 44.6521 284.656 44.4546ZM177.624 38.9248C178.43 38.7273 179.237 38.5298 180.043 38.3323L180.547 40.3072C179.74 40.5047 178.934 40.7022 178.128 40.8997L177.624 38.9248ZM279.012 42.6772L279.516 40.7022C280.322 40.8997 281.128 41.196 281.935 41.3935L281.431 43.3684C280.524 43.1709 279.818 42.8746 279.012 42.6772ZM183.57 37.5423C184.376 37.3448 185.183 37.1474 186.09 37.0486L186.493 39.0235C185.687 39.221 184.88 39.3198 184.074 39.5173L183.57 37.5423ZM273.167 41.0972L273.67 39.1223C274.477 39.3198 275.283 39.5173 276.089 39.8135L275.585 41.7884C274.779 41.4922 273.973 41.2947 273.167 41.0972ZM189.516 36.2586C190.323 36.0611 191.129 35.9624 192.036 35.7649L192.439 37.7398C191.633 37.9373 190.827 38.0361 189.92 38.1348L189.516 36.2586ZM267.422 39.7148L267.825 37.7398C268.631 37.9373 269.438 38.1348 270.244 38.3323L269.841 40.3072C269.034 40.011 268.228 39.8135 267.422 39.7148ZM195.463 35.2712C196.269 35.1724 197.075 34.9749 197.982 34.8762L198.285 36.8511C197.478 36.9499 196.672 37.0486 195.765 37.2461L195.463 35.2712ZM261.476 38.4311L261.778 36.4561C262.584 36.6536 263.391 36.7524 264.298 36.9499L263.894 38.9248C263.088 38.7273 262.282 38.6285 261.476 38.4311ZM201.51 34.4812C202.316 34.3825 203.223 34.2837 204.029 34.185L204.231 36.1599C203.425 36.2586 202.618 36.3574 201.711 36.4561L201.51 34.4812ZM255.63 37.4436L255.933 35.4687C256.739 35.5674 257.545 35.7649 258.452 35.8636L258.15 37.8386C257.243 37.6411 256.437 37.5423 255.63 37.4436ZM207.557 33.79C208.363 33.6912 209.27 33.5925 210.076 33.5925L210.278 35.6662C209.472 35.7649 208.665 35.7649 207.758 35.8636L207.557 33.79ZM249.684 36.5549L249.886 34.5799C250.692 34.6787 251.599 34.7774 252.405 34.8762L252.204 36.8511C251.297 36.7524 250.49 36.6536 249.684 36.5549ZM213.604 33.2962C214.41 33.1975 215.317 33.1975 216.123 33.1975L216.224 35.2712C215.418 35.2712 214.611 35.3699 213.704 35.3699L213.604 33.2962ZM243.738 35.8636L243.839 33.8887C244.645 33.9875 245.552 34.0862 246.358 34.185L246.157 36.1599C245.35 36.0611 244.544 35.9624 243.738 35.8636ZM219.651 33.0987C220.457 33.0987 221.364 33.0987 222.17 33L222.271 35.0737C221.465 35.0737 220.558 35.0737 219.751 35.1724L219.651 33.0987ZM237.691 35.4687L237.792 33.395C238.598 33.4937 239.505 33.4937 240.311 33.5925L240.21 35.5674C239.404 35.5674 238.598 35.4687 237.691 35.4687ZM225.698 33C226.504 33 227.411 33 228.217 33V35.0737C227.411 35.0737 226.504 35.0737 225.698 35.0737V33ZM231.745 35.1724V33.0987C232.551 33.0987 233.458 33.1975 234.264 33.1975L234.163 35.2712C233.458 35.1724 232.551 35.1724 231.745 35.1724Z" fill="#C29E6C"/>
</svg>
