<?xml version="1.0" encoding="utf-8"?>
<!-- Generator: Adobe Illustrator 25.0.0, SVG Export Plug-In . SVG Version: 6.00 Build 0)  -->
<svg version="1.1" id="Layer_1" xmlns="http://www.w3.org/2000/svg" xmlns:xlink="http://www.w3.org/1999/xlink" x="0px" y="0px"
	 viewBox="0 0 200 200" style="enable-background:new 0 0 200 200;" xml:space="preserve">
<style type="text/css">
	.st0{fill:#C29E6C;}
</style>
<path class="st0" d="M49.24,67.34c-1.05,3.05-1.58,6.24-1.58,9.5c0,16.09,13.09,29.18,29.18,29.18c6.19,0,12.1-1.91,17.1-5.53
	c1.41-1.02,3.39-0.71,4.41,0.71c1.02,1.41,0.71,3.39-0.71,4.41c-6.08,4.4-13.27,6.73-20.8,6.73c-19.57,0-35.5-15.92-35.5-35.5
	c0-3.96,0.65-7.84,1.92-11.55c0.57-1.65,2.36-2.53,4.01-1.96C48.93,63.9,49.81,65.69,49.24,67.34z M104.19,94.39
	c0.46,0.24,0.95,0.35,1.44,0.35c1.15,0,2.25-0.63,2.81-1.72c2.55-4.97,3.89-10.56,3.89-16.18c0-19.57-15.92-35.5-35.5-35.5
	c-9.31,0-18.11,3.58-24.78,10.08c-1.25,1.22-1.27,3.22-0.06,4.47c1.22,1.25,3.22,1.27,4.47,0.06c5.48-5.34,12.71-8.28,20.37-8.28
	c16.09,0,29.18,13.09,29.18,29.18c0,4.69-1.08,9.16-3.2,13.3C102.03,91.69,102.64,93.59,104.19,94.39z M102.65,123.91
	c-0.75-1.58-2.63-2.25-4.21-1.5c-2.56,1.22-5.25,2.22-7.99,2.99c-1.14,0.32-2.01,1.26-2.25,2.42l-3.34,16.7
	c-0.33,1.65-1.79,2.85-3.47,2.85h-9.11c-1.68,0-3.14-1.2-3.47-2.85l-3.34-16.7c-0.23-1.17-1.1-2.1-2.25-2.42
	c-3.87-1.08-7.6-2.63-11.09-4.6c-1.04-0.58-2.31-0.54-3.3,0.12l-14.17,9.45c-1.4,0.93-3.28,0.75-4.47-0.44l-6.44-6.44
	c-1.19-1.19-1.38-3.07-0.44-4.47l9.45-14.17c0.66-0.99,0.71-2.27,0.12-3.3c-1.97-3.49-3.51-7.22-4.6-11.09
	c-0.32-1.14-1.26-2.01-2.42-2.25l-16.7-3.34c-1.65-0.33-2.85-1.79-2.85-3.47v-9.11c0-1.68,1.2-3.14,2.85-3.47l16.7-3.34
	c1.17-0.23,2.1-1.1,2.42-2.25c1.08-3.87,2.63-7.6,4.6-11.09c0.58-1.04,0.54-2.31-0.12-3.3l-9.45-14.17
	c-0.93-1.4-0.75-3.28,0.44-4.47l6.44-6.44c1.19-1.19,3.07-1.38,4.47-0.44l14.17,9.45c0.99,0.66,2.27,0.71,3.3,0.12
	c3.49-1.97,7.22-3.51,11.09-4.6c1.14-0.32,2.01-1.26,2.25-2.42l3.34-16.7c0.33-1.65,1.79-2.85,3.47-2.85h9.11
	c1.68,0,3.14,1.2,3.47,2.85l3.34,16.7c0.23,1.17,1.1,2.1,2.25,2.42c3.87,1.08,7.6,2.63,11.09,4.6c1.04,0.58,2.31,0.54,3.3-0.12
	l14.17-9.45c1.4-0.93,3.28-0.75,4.47,0.44l6.44,6.44c1.19,1.19,1.38,3.07,0.44,4.47l-9.45,14.17c-0.66,0.99-0.71,2.27-0.12,3.3
	c1.97,3.49,3.51,7.22,4.6,11.09c0.32,1.14,1.26,2.01,2.42,2.25l16.7,3.34c1.65,0.33,2.85,1.79,2.85,3.47v9.11
	c0,1.68-1.2,3.14-2.85,3.47l-16.7,3.34c-1.17,0.23-2.1,1.1-2.42,2.25c-0.78,2.8-1.82,5.56-3.08,8.18c-0.75,1.57-0.09,3.46,1.48,4.21
	c1.57,0.75,3.46,0.09,4.21-1.48c1.14-2.37,2.11-4.83,2.91-7.33l14.84-2.97c4.59-0.92,7.92-4.98,7.92-9.67v-9.11
	c0-4.68-3.33-8.75-7.92-9.67l-14.84-2.97c-0.97-3.06-2.21-6.04-3.69-8.89l8.4-12.59c2.6-3.9,2.08-9.13-1.23-12.44l-6.44-6.44
	c-3.31-3.31-8.54-3.83-12.44-1.23l-12.59,8.4c-2.85-1.48-5.83-2.71-8.89-3.69L91.06,7.92C90.15,3.33,86.08,0,81.4,0h-9.11
	c-4.68,0-8.75,3.33-9.67,7.92l-2.97,14.84c-3.06,0.97-6.04,2.21-8.89,3.69l-12.59-8.4c-3.9-2.6-9.13-2.08-12.44,1.23l-6.44,6.44
	c-3.31,3.31-3.83,8.54-1.23,12.44l8.4,12.59c-1.48,2.85-2.71,5.83-3.69,8.89L7.92,62.62C3.33,63.54,0,67.6,0,72.29v9.11
	c0,4.68,3.33,8.75,7.92,9.67l14.84,2.97c0.97,3.06,2.21,6.04,3.69,8.89l-8.4,12.59c-2.6,3.9-2.08,9.13,1.23,12.44l6.44,6.44
	c3.31,3.31,8.54,3.83,12.44,1.23l12.59-8.4c2.85,1.48,5.83,2.71,8.89,3.69l2.97,14.84c0.92,4.59,4.98,7.92,9.66,7.92h9.11
	c4.68,0,8.75-3.33,9.67-7.92l2.97-14.84c2.43-0.77,4.82-1.71,7.12-2.8C102.73,127.37,103.4,125.48,102.65,123.91z M148.42,137.05
	c6.27,0,11.37,5.1,11.37,11.37c0,1.74,1.41,3.16,3.16,3.16c1.74,0,3.16-1.41,3.16-3.16c0-9.75-7.93-17.68-17.68-17.68
	s-17.68,7.93-17.68,17.68s7.93,17.68,17.68,17.68c3.95,0,7.69-1.27,10.8-3.68c1.38-1.07,1.63-3.05,0.57-4.43
	c-1.07-1.38-3.05-1.63-4.43-0.57c-2,1.55-4.4,2.37-6.94,2.37c-6.27,0-11.37-5.1-11.37-11.37S142.15,137.05,148.42,137.05z
	 M76.84,96.08c-10.61,0-19.24-8.63-19.24-19.24S66.23,57.6,76.84,57.6s19.24,8.63,19.24,19.24S87.45,96.08,76.84,96.08z
	 M76.84,89.77c7.13,0,12.92-5.8,12.92-12.92s-5.8-12.92-12.92-12.92s-12.92,5.8-12.92,12.92S69.72,89.77,76.84,89.77z
	 M193.92,138.01l-9.13-1.83c-0.56-1.66-1.23-3.27-2-4.83l5.17-7.75c1.99-2.99,1.59-7-0.94-9.54l-4.23-4.23
	c-2.54-2.54-6.55-2.94-9.54-0.94l-7.75,5.17c-1.56-0.78-3.18-1.45-4.83-2l-1.83-9.13c-0.7-3.52-3.82-6.08-7.41-6.08h-5.99
	c-3.59,0-6.71,2.56-7.41,6.08l-1.83,9.13c-1.66,0.56-3.27,1.23-4.83,2l-7.75-5.17c-2.99-1.99-7-1.59-9.54,0.94l-4.23,4.23
	c-2.54,2.54-2.94,6.55-0.94,9.54l5.17,7.75c-1.07,2.15-1.93,4.4-2.58,6.71c-0.47,1.68,0.51,3.42,2.19,3.89
	c1.68,0.47,3.42-0.51,3.89-2.19c0.69-2.46,1.67-4.83,2.92-7.05c0.58-1.04,0.54-2.31-0.12-3.3l-6.21-9.31
	c-0.33-0.49-0.26-1.15,0.16-1.57l4.23-4.23c0.42-0.42,1.08-0.48,1.57-0.16l9.31,6.21c0.99,0.66,2.27,0.71,3.3,0.12
	c2.22-1.25,4.59-2.23,7.05-2.92c1.14-0.32,2.01-1.26,2.25-2.42l2.19-10.98c0.12-0.58,0.63-1,1.22-1h5.99c0.59,0,1.1,0.42,1.22,1
	l2.19,10.98c0.23,1.17,1.1,2.1,2.25,2.42c2.46,0.69,4.83,1.67,7.05,2.92c1.04,0.58,2.31,0.54,3.3-0.12l9.31-6.21
	c0.49-0.33,1.15-0.26,1.57,0.16l4.23,4.23c0.42,0.42,0.48,1.08,0.16,1.57l-6.21,9.31c-0.66,0.99-0.71,2.27-0.12,3.3
	c1.25,2.22,2.23,4.59,2.92,7.05c0.32,1.14,1.26,2.01,2.42,2.25l10.98,2.19c0.58,0.12,1,0.63,1,1.22v5.99c0,0.59-0.42,1.1-1,1.22
	l-10.98,2.19c-1.17,0.23-2.1,1.1-2.42,2.25c-0.69,2.46-1.67,4.83-2.92,7.05c-0.58,1.04-0.54,2.31,0.12,3.3l6.21,9.31
	c0.33,0.49,0.26,1.15-0.16,1.57l-4.23,4.23c-0.42,0.42-1.08,0.48-1.57,0.16l-9.31-6.21c-0.99-0.66-2.27-0.71-3.3-0.12
	c-2.22,1.25-4.59,2.23-7.05,2.92c-1.14,0.32-2.01,1.26-2.25,2.42l-2.19,10.98c-0.12,0.58-0.63,1-1.22,1h-5.99
	c-0.59,0-1.1-0.42-1.22-1l-2.19-10.98c-0.23-1.17-1.1-2.1-2.25-2.42c-2.46-0.69-4.83-1.67-7.05-2.92c-1.04-0.58-2.31-0.54-3.3,0.12
	l-9.31,6.21c-0.49,0.33-1.15,0.26-1.57-0.16l-4.23-4.23c-0.42-0.42-0.48-1.08-0.16-1.57l6.21-9.31c0.66-0.99,0.71-2.27,0.12-3.3
	c-1.25-2.22-2.23-4.59-2.92-7.05c-0.32-1.14-1.26-2.01-2.42-2.25l-10.98-2.19c-0.58-0.12-1-0.63-1-1.22v-5.99
	c0-0.59,0.42-1.1,1-1.22l0.67-0.13c1.71-0.34,2.82-2.01,2.48-3.72c-0.34-1.71-2-2.82-3.72-2.48l-0.67,0.13
	c-3.52,0.7-6.08,3.82-6.08,7.41v5.99c0,3.59,2.56,6.71,6.08,7.41l9.13,1.83c0.56,1.66,1.23,3.27,2,4.83l-5.17,7.75
	c-1.99,2.99-1.59,7,0.94,9.54l4.23,4.23c2.54,2.54,6.55,2.94,9.54,0.94l7.75-5.17c1.56,0.78,3.18,1.45,4.83,2l1.83,9.13
	c0.7,3.52,3.82,6.08,7.41,6.08h5.99c3.59,0,6.71-2.56,7.41-6.08l1.83-9.13c1.66-0.56,3.27-1.23,4.83-2l7.75,5.17
	c2.99,1.99,7,1.59,9.54-0.94l4.23-4.23c2.54-2.54,2.94-6.55,0.94-9.54l-5.17-7.75c0.78-1.56,1.45-3.18,2-4.83l9.13-1.83
	c3.52-0.7,6.08-3.82,6.08-7.41v-5.99C200,141.84,197.44,138.72,193.92,138.01z"/>
</svg>
