<?xml version="1.0" encoding="utf-8"?>
<!-- Generator: Adobe Illustrator 25.0.0, SVG Export Plug-In . SVG Version: 6.00 Build 0)  -->
<svg version="1.1" id="Layer_1" xmlns="http://www.w3.org/2000/svg" xmlns:xlink="http://www.w3.org/1999/xlink" x="0px" y="0px"
	 viewBox="0 0 200 200" style="enable-background:new 0 0 200 200;" xml:space="preserve">
<style type="text/css">
	.st0{fill:#C29E6C;}
</style>
<g>
	<g>
		<path class="st0" d="M182.19,34.54c-27.52-7.54-55.2-19.28-80.05-33.95c-1.32-0.78-2.96-0.78-4.28,0
			C72.3,15.68,46.11,26.78,17.81,34.54c-1.83,0.5-3.1,2.16-3.1,4.06v42.99c0,44.27,20.42,73.57,37.55,90.35
			C70.72,190.01,92.2,200,100,200c7.8,0,29.28-9.99,47.73-28.07c17.13-16.79,37.55-46.09,37.55-90.35V38.59
			C185.28,36.7,184.01,35.04,182.19,34.54z M176.87,81.58c0,41.34-19.05,68.69-35.03,84.34c-18.14,17.77-37.53,25.66-41.84,25.66
			s-23.7-7.89-41.84-25.66c-15.98-15.66-35.03-43-35.03-84.34V41.79C50.2,34.1,75.4,23.38,100,9.08
			c23.99,13.92,50.45,25.17,76.86,32.7V81.58z"/>
		<path class="st0" d="M62.71,41.32c-0.85-2.16-3.29-3.22-5.46-2.37c-7.52,2.96-15.23,5.69-22.93,8.1
			c-1.75,0.55-2.95,2.18-2.95,4.01v16.25c0,2.32,1.88,4.21,4.21,4.21c2.32,0,4.21-1.88,4.21-4.21V54.13
			c6.91-2.23,13.8-4.71,20.55-7.36C62.5,45.92,63.56,43.48,62.71,41.32z"/>
		<path class="st0" d="M70.7,42.11c0.56,0,1.14-0.11,1.69-0.35l0.08-0.03c2.13-0.93,3.09-3.41,2.15-5.54
			c-0.93-2.13-3.43-3.09-5.55-2.16L69,34.06c-2.13,0.93-3.09,3.41-2.16,5.53C67.53,41.17,69.08,42.11,70.7,42.11z"/>
		<path class="st0" d="M150.13,135.66c-1.94-1.27-4.55-0.72-5.82,1.22c-3.47,5.31-7.53,10.39-12.09,15.1
			c-3.75,3.88-7.81,7.49-12.07,10.74c-1.85,1.41-2.2,4.05-0.79,5.9c0.83,1.09,2.08,1.66,3.35,1.66c0.89,0,1.79-0.28,2.55-0.86
			c4.6-3.5,8.97-7.4,13.01-11.58c4.93-5.1,9.33-10.6,13.09-16.35C152.62,139.53,152.07,136.93,150.13,135.66z"/>
		<path class="st0" d="M110.37,169.31l-0.24,0.14c-2.01,1.16-2.7,3.74-1.53,5.75c0.78,1.35,2.19,2.1,3.64,2.1
			c0.71,0,1.44-0.18,2.1-0.57l0.28-0.16c2.01-1.17,2.68-3.75,1.5-5.76C114.96,168.81,112.38,168.14,110.37,169.31z"/>
		<path class="st0" d="M71.32,91.41c-2.58-2.58-6.02-4.01-9.67-4.01c-3.65,0-7.09,1.42-9.67,4.01c-5.33,5.33-5.33,14.01,0,19.35
			l24.84,24.84c2.58,2.58,6.02,4.01,9.67,4.01c3.65,0,7.09-1.42,9.67-4.01l51.86-51.86c5.33-5.34,5.33-14.01,0-19.35
			c-2.58-2.58-6.02-4.01-9.67-4.01c-3.65,0-7.09,1.42-9.67,4.01l-42.19,42.19L71.32,91.41z M134.63,70.35
			c0.99-0.99,2.32-1.54,3.72-1.54c1.41,0,2.73,0.55,3.72,1.54c2.05,2.05,2.05,5.39,0,7.45l-51.86,51.86
			c-0.99,0.99-2.32,1.54-3.72,1.54s-2.73-0.55-3.72-1.54l-24.84-24.84c-2.05-2.05-2.05-5.4,0-7.45c0.99-0.99,2.32-1.54,3.72-1.54
			s2.73,0.55,3.72,1.54l18.14,18.14c0.79,0.79,1.86,1.23,2.97,1.23s2.19-0.44,2.97-1.23L134.63,70.35z"/>
	</g>
</g>
</svg>
