<svg width="142" height="141" viewBox="0 0 142 141" fill="none" xmlns="http://www.w3.org/2000/svg">
<path d="M82.6809 14.3768C81.5026 14.1497 80.506 13.6562 79.6911 12.8962C78.8919 12.1393 78.3254 11.2317 77.9917 10.1734C77.661 9.0994 77.6046 7.99681 77.8226 6.86563C78.0437 5.71873 78.5058 4.71607 79.2089 3.85763C79.9309 2.98651 80.8034 2.34811 81.8267 1.94244C82.8687 1.52408 83.971 1.42693 85.1336 1.65101C86.3119 1.87811 87.2992 2.37798 88.0953 3.15062C88.9102 3.91057 89.4831 4.82755 89.8138 5.90155C90.1632 6.96286 90.2274 8.06696 90.0064 9.21386C89.7884 10.345 89.3263 11.3477 88.6201 12.2219C87.9169 13.0803 87.0458 13.7108 86.0069 14.1135C84.9836 14.5192 83.8749 14.6069 82.6809 14.3768ZM79.4442 7.20259C79.2685 8.11382 79.3044 8.98435 79.5519 9.81417C79.818 10.6313 80.2465 11.3249 80.8373 11.895C81.4311 12.4494 82.1365 12.8054 82.9534 12.9628C83.7704 13.1203 84.5591 13.0442 85.3194 12.7345C86.0798 12.4248 86.7369 11.9322 87.2907 11.2568C87.8445 10.5814 88.2092 9.78812 88.3849 8.87689C88.5605 7.96566 88.5167 7.09362 88.2536 6.26077C87.9905 5.42792 87.5635 4.72644 86.9727 4.15633C86.3819 3.58622 85.6781 3.22244 84.8611 3.06498C84.0598 2.91055 83.2775 2.99605 82.5141 3.32146C81.7538 3.63115 81.0967 4.1237 80.5429 4.79909C79.9891 5.47449 79.6228 6.27565 79.4442 7.20259Z" fill="#C29A5C"/>
<path d="M93.3269 17.6147C92.198 17.1627 91.3054 16.4865 90.6491 15.5861C89.9987 14.6708 89.6023 13.659 89.46 12.5507C89.3237 11.4276 89.4755 10.3164 89.9156 9.21725C90.3556 8.11807 90.9991 7.22098 91.8461 6.52598C92.699 5.81613 93.6707 5.36926 94.7612 5.18537C95.8576 4.98663 96.9777 5.1162 98.1214 5.57409C99.2057 6.00819 100.055 6.64129 100.67 7.47338C101.306 8.29657 101.662 9.21475 101.739 10.2279L100.081 10.1071C99.9921 9.38213 99.716 8.73732 99.2526 8.17267C98.8101 7.59911 98.2324 7.16961 97.5194 6.88418C96.7321 6.56901 95.9388 6.4841 95.1396 6.62945C94.3551 6.78075 93.6271 7.13558 92.9555 7.69396C92.3046 8.24343 91.8038 8.95635 91.4529 9.83273C91.1021 10.7091 90.9771 11.5811 91.0778 12.4487C91.1786 13.3163 91.4621 14.0933 91.9284 14.7798C92.4006 15.4514 93.0229 15.9418 93.7953 16.251C94.3003 16.4532 94.8262 16.5603 95.3729 16.5724C95.9195 16.5844 96.4232 16.5103 96.8837 16.35C97.3503 16.1748 97.7143 15.9328 97.9758 15.6239L99.2903 16.6671C98.8623 17.1335 98.3214 17.4943 97.6677 17.7496C97.0199 17.9901 96.3187 18.1058 95.5641 18.0966C94.8153 18.0726 94.0696 17.912 93.3269 17.6147Z" fill="#C29A5C"/>
<path d="M101.953 21.7754L107.921 12.488L104.166 10.0746L104.957 8.84299L113.841 14.5522L113.05 15.7837L109.294 13.3703L103.326 22.6578L101.953 21.7754Z" fill="#C29A5C"/>
<path d="M109.617 22.452C110.147 21.8962 110.767 21.5702 111.478 21.4741C112.2 21.3664 112.955 21.4672 113.743 21.7767C114.543 22.0971 115.319 22.6162 116.072 23.3339C116.512 23.7535 116.93 24.2301 117.328 24.7639C117.736 25.286 118.065 25.7875 118.314 26.2682L119.043 25.5039C119.772 24.7397 120.126 23.9164 120.105 23.0342C120.084 22.152 119.674 21.3299 118.875 20.5681C118.4 20.1154 117.837 19.7553 117.185 19.4879C116.545 19.2089 115.804 19.0002 114.964 18.8618L115.307 17.5974C116.284 17.7553 117.15 18.0063 117.905 18.3504C118.671 18.683 119.35 19.1309 119.94 19.694C121.052 20.7539 121.628 21.9115 121.669 23.1667C121.711 24.4219 121.196 25.6111 120.125 26.7343L116.133 30.9204C115.835 31.2331 115.825 31.5332 116.104 31.8208L115.21 32.7588C114.922 32.5506 114.731 32.391 114.638 32.2801C114.359 31.9925 114.228 31.6901 114.243 31.3728C114.258 31.0556 114.354 30.793 114.53 30.5851L115.142 29.9085C114.24 30.0432 113.326 29.9461 112.402 29.6173C111.488 29.2769 110.696 28.7865 110.024 28.1461C109.433 27.583 109.023 26.959 108.791 26.2742C108.571 25.5778 108.526 24.8942 108.658 24.2234C108.811 23.552 109.131 22.9616 109.617 22.452ZM115.016 28.9269C115.581 28.8682 115.99 28.7057 116.244 28.4394L117.503 27.1193C117.002 26.0448 116.317 25.0935 115.449 24.2654C114.603 23.4594 113.76 22.9759 112.919 22.8148C112.077 22.6538 111.381 22.8627 110.829 23.4417C110.354 23.9397 110.114 24.5734 110.11 25.3431C110.117 26.1238 110.468 26.8454 111.163 27.5079C111.731 28.0489 112.362 28.4412 113.059 28.685C113.766 28.9397 114.419 29.0204 115.016 28.9269Z" fill="#C29A5C"/>
<path d="M116.108 33.9796L126.293 26.7266L129.913 31.8095C130.321 32.383 130.541 32.9534 130.572 33.5207C130.616 34.0788 130.512 34.5948 130.26 35.0687C130.03 35.5464 129.707 35.9337 129.29 36.2307C128.743 36.6205 128.15 36.8363 127.512 36.8782C126.896 36.9238 126.306 36.7844 125.741 36.4599C126.002 37.1578 126.035 37.8516 125.838 38.5413C125.642 39.2311 125.238 39.7941 124.625 40.2303C123.804 40.815 122.937 40.9904 122.024 40.7566C121.133 40.5265 120.368 39.9619 119.728 39.0626L116.108 33.9796ZM122.604 31.2688L125.068 34.7292C125.43 35.2375 125.911 35.5134 126.512 35.5571C127.135 35.6045 127.688 35.4565 128.17 35.1131C128.639 34.779 128.938 34.3302 129.068 33.7669C129.206 33.2165 129.104 32.7002 128.76 32.218L126.24 28.6795L122.604 31.2688ZM117.971 34.5682L120.658 38.3413C121.029 38.8627 121.529 39.1647 122.157 39.2474C122.799 39.3209 123.354 39.1906 123.823 38.8565C124.332 38.4945 124.648 38.0142 124.771 37.4155C124.895 36.8167 124.78 36.2697 124.428 35.7745L121.685 31.9231L117.971 34.5682Z" fill="#C29A5C"/>
<path d="M122.012 42.4952L133.364 37.3108L134.042 38.7953L124.698 43.0624L137.224 45.7058L137.832 47.0375L126.458 52.2319L125.78 50.7473L134.971 46.55L122.67 43.936L122.012 42.4952Z" fill="#C29A5C"/>
<path d="M127.444 56.5498L138.173 53.947L137.121 49.6088L138.543 49.2637L141.033 59.526L139.61 59.8711L138.558 55.533L127.829 58.1358L127.444 56.5498Z" fill="#C29A5C"/>
<path d="M129.007 64.1615L141.497 63.5666L141.575 65.1967L137.164 65.4068L137.318 68.6432C137.386 70.0656 137.069 71.1539 136.368 71.9081C135.684 72.6775 134.751 73.0904 133.568 73.1467C132.801 73.1833 132.098 73.0566 131.46 72.7666C130.821 72.4767 130.303 72.0288 129.906 71.423C129.509 70.8172 129.288 70.0589 129.245 69.1479L129.007 64.1615ZM130.38 65.73L130.529 68.8705C130.576 69.8454 130.889 70.5352 131.469 70.9401C132.065 71.3442 132.73 71.5287 133.465 71.4937C133.945 71.4709 134.38 71.3621 134.771 71.1672C135.179 70.9876 135.493 70.6843 135.713 70.2574C135.95 69.8456 136.051 69.2802 136.017 68.561L135.869 65.4685L130.38 65.73Z" fill="#C29A5C"/>
<path d="M125.973 89.8325C126.349 88.7439 126.878 87.8771 127.558 87.2322C128.249 86.6076 129.04 86.2295 129.932 86.0981L130.059 87.5644C129.431 87.6685 128.871 87.9404 128.38 88.3801C127.904 88.825 127.533 89.433 127.266 90.2041C126.947 91.1264 126.905 91.933 127.14 92.6238C127.37 93.3298 127.84 93.8058 128.55 94.0517C129.185 94.2715 129.783 94.2328 130.343 93.9356C130.903 93.6384 131.316 93.1043 131.583 92.3332L131.999 91.1311L133.065 91.5001L132.618 92.7928C132.445 93.2918 132.49 93.773 132.753 94.2365C133.026 94.7203 133.45 95.0616 134.024 95.2605C134.614 95.4646 135.163 95.4177 135.673 95.12C136.177 94.8373 136.568 94.2953 136.845 93.494C137.295 92.1936 137.09 91.0983 136.23 90.208L137.273 89.2485C137.848 89.837 138.215 90.5394 138.372 91.3559C138.53 92.1723 138.447 93.0493 138.122 93.9867C137.735 95.1056 137.139 95.9236 136.333 96.4406C135.543 96.9628 134.664 97.0565 133.696 96.7216C133.137 96.528 132.662 96.2113 132.273 95.7717C131.883 95.3321 131.658 94.8311 131.599 94.2688C131.132 94.8858 130.568 95.2917 129.908 95.4866C129.258 95.7018 128.577 95.6864 127.867 95.4404C126.793 95.0689 126.098 94.3627 125.781 93.3217C125.464 92.2808 125.528 91.1178 125.973 89.8325Z" fill="#C29A5C"/>
<path d="M127.488 96.8229C128.153 97.2069 128.616 97.7329 128.877 98.4009C129.152 99.0769 129.232 99.8344 129.117 100.673C128.994 101.526 128.673 102.403 128.153 103.304C127.849 103.83 127.484 104.349 127.059 104.862C126.648 105.382 126.238 105.819 125.83 106.175L126.745 106.703C127.659 107.231 128.543 107.381 129.395 107.152C130.247 106.924 130.95 106.332 131.502 105.375C131.83 104.807 132.047 104.175 132.153 103.479C132.273 102.791 132.301 102.022 132.238 101.172L133.547 101.208C133.624 102.195 133.585 103.096 133.428 103.911C133.286 104.733 133.01 105.498 132.602 106.205C131.834 107.535 130.845 108.368 129.635 108.704C128.425 109.04 127.148 108.82 125.804 108.044L120.795 105.152C120.421 104.936 120.127 104.997 119.913 105.336L118.79 104.688C118.925 104.359 119.035 104.136 119.121 104.019C119.335 103.681 119.598 103.482 119.909 103.422C120.221 103.362 120.499 103.393 120.742 103.515L121.544 103.95C121.201 103.105 121.08 102.194 121.181 101.218C121.297 100.251 121.587 99.3647 122.051 98.561C122.459 97.8544 122.968 97.3079 123.579 96.9216C124.204 96.5434 124.858 96.3389 125.541 96.3082C126.229 96.2994 126.878 96.4709 127.488 96.8229ZM122.469 103.597C122.659 104.131 122.913 104.491 123.232 104.675L124.812 105.587C125.738 104.847 126.501 103.957 127.101 102.918C127.685 101.906 127.956 100.973 127.914 100.117C127.872 99.2617 127.505 98.6339 126.812 98.2339C126.216 97.8899 125.544 97.8066 124.795 97.9838C124.038 98.175 123.419 98.6862 122.939 99.5176C122.547 100.197 122.315 100.903 122.242 101.637C122.162 102.385 122.237 103.038 122.469 103.597Z" fill="#C29A5C"/>
<path d="M118.275 105.319L119.702 111.478C120.353 110.898 121.081 110.619 121.888 110.641C122.695 110.663 123.504 111.025 124.314 111.727C124.846 112.188 125.213 112.728 125.417 113.349C125.632 113.98 125.667 114.636 125.523 115.315C125.369 116.007 125.019 116.667 124.474 117.296L121.346 120.905L111.878 112.701L112.947 111.468L116.611 114.642L118.434 112.538L117.08 106.697L118.275 105.319ZM119.629 113.065L117.554 115.46L121.436 118.823L123.322 116.646C123.866 116.018 124.12 115.359 124.082 114.67C124.056 113.991 123.771 113.416 123.227 112.944C122.671 112.462 122.068 112.205 121.419 112.172C120.76 112.151 120.163 112.449 119.629 113.065Z" fill="#C29A5C"/>
<path d="M110.379 114.028L118.109 123.857L113.204 127.714C112.651 128.15 112.091 128.396 111.526 128.454C110.971 128.524 110.45 128.445 109.965 128.216C109.477 128.009 109.075 127.705 108.758 127.302C108.343 126.774 108.099 126.192 108.027 125.557C107.952 124.944 108.063 124.348 108.36 123.768C107.676 124.062 106.984 124.128 106.286 123.965C105.588 123.801 105.006 123.424 104.541 122.833C103.918 122.041 103.702 121.183 103.892 120.26C104.079 119.359 104.607 118.568 105.475 117.886L110.379 114.028ZM113.396 120.388L110.057 123.014C109.567 123.4 109.314 123.894 109.299 124.496C109.281 125.12 109.455 125.665 109.821 126.131C110.177 126.583 110.64 126.861 111.209 126.963C111.765 127.075 112.276 126.948 112.741 126.582L116.156 123.897L113.396 120.388ZM109.88 115.917L106.239 118.78C105.736 119.176 105.458 119.69 105.405 120.321C105.363 120.966 105.519 121.514 105.875 121.967C106.261 122.458 106.756 122.75 107.36 122.845C107.964 122.94 108.505 122.8 108.983 122.424L112.699 119.501L109.88 115.917Z" fill="#C29A5C"/>
<path d="M101.363 120.739L107.093 131.853L105.642 132.6L103.19 127.843L101.526 128.701L100.245 135.383L98.5811 136.241L100.044 128.655L92.3181 125.402L94.0247 124.522L100.833 127.357L102.497 126.499L99.9123 121.486L101.363 120.739Z" fill="#C29A5C"/>
<path d="M89.3346 120.691C89.8412 120.542 90.4259 120.545 91.0886 120.701L90.8374 121.975C90.4519 121.855 90.1057 121.84 89.7986 121.93C89.031 122.156 88.5471 123.148 88.3467 124.908L88.1875 126.581L97.0257 136.917L95.3677 137.404L87.9199 128.31L86.9165 139.886L85.3506 140.345L86.9843 124.783C87.1248 123.557 87.3916 122.62 87.7846 121.971C88.1732 121.307 88.6899 120.88 89.3346 120.691Z" fill="#C29A5C"/>
<path d="M54.5231 126.282C55.6745 126.62 56.6197 127.206 57.3587 128.04C58.0823 128.869 58.5599 129.827 58.7916 130.912C59.0187 132.013 58.97 133.116 58.6454 134.221C58.3164 135.342 57.761 136.296 56.9795 137.083C56.178 137.882 55.2487 138.435 54.1915 138.741C53.1145 139.059 52.0079 139.051 50.8719 138.717C49.7205 138.379 48.7852 137.787 48.0661 136.943C47.3271 136.109 46.8441 135.141 46.6169 134.041C46.3699 132.951 46.411 131.846 46.74 130.725C47.0646 129.62 47.6199 128.666 48.406 127.863C49.1876 127.075 50.1147 126.53 51.1872 126.228C52.2444 125.921 53.3564 125.939 54.5231 126.282ZM57.0633 133.731C57.3247 132.841 57.3717 131.971 57.2043 131.121C57.017 130.283 56.6564 129.551 56.1225 128.928C55.5841 128.319 54.9157 127.898 54.1174 127.664C53.3191 127.429 52.5268 127.43 51.7405 127.666C50.9541 127.902 50.2532 128.33 49.6377 128.95C49.0221 129.569 48.5837 130.324 48.3222 131.215C48.0608 132.105 48.0214 132.977 48.2042 133.831C48.387 134.686 48.7453 135.424 49.2792 136.048C49.8132 136.672 50.4793 137.101 51.2776 137.335C52.0605 137.565 52.8474 137.554 53.6383 137.303C54.4246 137.067 55.1255 136.639 55.7411 136.02C56.3566 135.4 56.7973 134.637 57.0633 133.731Z" fill="#C29A5C"/>
<path d="M44.2331 122.047C45.3139 122.604 46.1382 123.362 46.706 124.321C47.2665 125.294 47.5649 126.339 47.6012 127.455C47.6301 128.586 47.3733 129.678 46.8308 130.73C46.2883 131.783 45.5624 132.615 44.6532 133.226C43.7366 133.852 42.7269 134.204 41.6239 134.283C40.5136 134.377 39.4109 134.142 38.3158 133.577C37.2777 133.042 36.4921 132.331 35.9592 131.444C35.4048 130.564 35.1374 129.616 35.1571 128.6L36.796 128.878C36.8156 129.608 37.0292 130.277 37.4367 130.883C37.8227 131.496 38.357 131.978 39.0397 132.33C39.7934 132.719 40.575 132.879 41.3845 132.81C42.1797 132.734 42.9382 132.45 43.6599 131.958C44.36 131.473 44.9263 130.811 45.3589 129.972C45.7915 129.132 45.9988 128.276 45.981 127.403C45.9631 126.53 45.7548 125.729 45.3559 125.002C44.9496 124.288 44.3768 123.741 43.6373 123.36C43.1537 123.11 42.6404 122.954 42.0974 122.89C41.5543 122.826 41.0459 122.852 40.5722 122.968C40.0911 123.098 39.7057 123.304 39.416 123.587L38.2067 122.423C38.6771 122 39.2498 121.692 39.9248 121.5C40.5925 121.322 41.3016 121.273 42.0519 121.354C42.795 121.449 43.522 121.68 44.2331 122.047Z" fill="#C29A5C"/>
<path d="M36.042 117.085L29.2176 125.763L32.7265 128.522L31.8215 129.673L23.5208 123.145L24.4258 121.995L27.9347 124.754L34.7592 116.076L36.042 117.085Z" fill="#C29A5C"/>
<path d="M28.4767 115.683C27.8963 116.186 27.2478 116.451 26.5312 116.479C25.8025 116.518 25.0606 116.346 24.3053 115.963C23.5396 115.568 22.8162 114.977 22.1351 114.191C21.737 113.732 21.3654 113.218 21.0205 112.649C20.6635 112.09 20.3838 111.559 20.1815 111.057L19.3835 111.749C18.5854 112.44 18.1549 113.226 18.0919 114.106C18.029 114.987 18.359 115.844 19.0819 116.678C19.5115 117.174 20.0378 117.586 20.6609 117.914C21.2719 118.253 21.9892 118.531 22.813 118.749L22.351 119.975C21.3935 119.725 20.5552 119.392 19.8362 118.978C19.1051 118.574 18.4724 118.064 17.938 117.447C16.9322 116.286 16.4684 115.079 16.5467 113.826C16.625 112.572 17.2506 111.437 18.4235 110.421L22.7948 106.633C23.1213 106.351 23.1596 106.053 22.9098 105.74L23.8892 104.891C24.156 105.126 24.3305 105.303 24.4127 105.422C24.6625 105.735 24.7649 106.048 24.7197 106.363C24.6746 106.677 24.5544 106.929 24.3593 107.12L23.6858 107.735C24.5967 107.687 25.4966 107.87 26.3857 108.285C27.2626 108.711 28.005 109.275 28.6127 109.976C29.1471 110.593 29.4968 111.253 29.662 111.957C29.8151 112.671 29.7945 113.355 29.6002 114.011C29.3833 114.664 29.0088 115.222 28.4767 115.683ZM23.7172 108.724C23.1497 108.729 22.7269 108.852 22.4488 109.093L21.0703 110.287C21.4668 111.404 22.0579 112.416 22.8438 113.323C23.6086 114.206 24.4022 114.768 25.2243 115.008C26.0465 115.248 26.7599 115.106 27.3645 114.582C27.8844 114.132 28.1831 113.524 28.2606 112.758C28.3276 111.98 28.0467 111.228 27.4181 110.503C26.9046 109.91 26.313 109.46 25.6432 109.151C24.9629 108.83 24.3209 108.688 23.7172 108.724Z" fill="#C29A5C"/>
<path d="M23.1109 103.59L12.2821 109.842L9.1621 104.438C8.8101 103.829 8.64573 103.24 8.669 102.672C8.67842 102.113 8.83097 101.609 9.12667 101.161C9.4005 100.707 9.75912 100.353 10.2025 100.097C10.7845 99.7605 11.395 99.602 12.0342 99.621C12.6514 99.6341 13.2258 99.829 13.7574 100.206C13.5637 99.4862 13.5973 98.7924 13.8583 98.1244C14.1192 97.4565 14.5754 96.9345 15.2266 96.5585C16.0996 96.0545 16.9793 95.9622 17.8658 96.2818C18.7305 96.5955 19.4389 97.2304 19.9909 98.1864L23.1109 103.59ZM16.3865 105.671L14.2625 101.993C13.9505 101.452 13.4976 101.132 12.9037 101.031C12.288 100.925 11.7238 101.02 11.2112 101.316C10.7123 101.604 10.3719 102.022 10.1897 102.57C9.9996 103.105 10.0525 103.629 10.3485 104.141L12.5205 107.903L16.3865 105.671ZM21.3124 102.827L18.9964 98.816C18.6764 98.2618 18.2075 97.9136 17.5897 97.7714C16.958 97.6373 16.3927 97.7143 15.8939 98.0023C15.3535 98.3143 14.9933 98.7624 14.8133 99.3467C14.6333 99.9309 14.6954 100.486 14.9994 101.013L17.3634 105.107L21.3124 102.827Z" fill="#C29A5C"/>
<path d="M18.0433 94.5523L6.24969 98.6341L5.71592 97.0918L15.423 93.7322L3.20491 89.9101L2.72608 88.5266L14.5424 84.437L15.0761 85.9792L5.52786 89.2839L17.5252 93.0554L18.0433 94.5523Z" fill="#C29A5C"/>
<path d="M13.9714 80.045L3.04379 81.6161L3.67908 86.0347L2.22998 86.243L0.727137 75.7905L2.17624 75.5822L2.81153 80.0007L13.7392 78.4296L13.9714 80.045Z" fill="#C29A5C"/>
<path d="M13.1388 72.3191L0.648965 71.7241L0.726619 70.094L5.13762 70.3041L5.29178 67.0678C5.35954 65.6454 5.77813 64.5921 6.54756 63.9079C7.30176 63.207 8.27019 62.8847 9.45285 62.9411C10.22 62.9776 10.9076 63.1706 11.5156 63.5199C12.1237 63.8692 12.5967 64.3643 12.9346 65.0051C13.2725 65.6459 13.4197 66.4218 13.3763 67.3327L13.1388 72.3191ZM11.9219 70.6273L12.0715 67.4868C12.118 66.5119 11.8718 65.7954 11.333 65.3372C10.7782 64.8783 10.1332 64.6314 9.39803 64.5963C8.91857 64.5735 8.47488 64.6405 8.06696 64.7972C7.64382 64.9373 7.30249 65.2093 7.04297 65.6134C6.76822 66.0008 6.61372 66.5541 6.57946 67.2733L6.43215 70.3658L11.9219 70.6273Z" fill="#C29A5C"/>
<path d="M18.6001 47.0527C18.1215 48.1006 17.5129 48.9132 16.7743 49.4905C16.0278 50.0467 15.2043 50.3478 14.3038 50.3939L14.3164 48.9221C14.952 48.8782 15.5351 48.6607 16.0654 48.2697C16.5812 47.8721 17.0086 47.3021 17.3476 46.5598C17.753 45.672 17.8716 44.8731 17.7034 44.1631C17.5418 43.4384 17.119 42.9199 16.435 42.6076C15.8237 42.3284 15.2252 42.3101 14.6395 42.5527C14.0538 42.7953 13.5914 43.2878 13.2524 44.03L12.724 45.1871L11.698 44.7185L12.2663 43.4741C12.4856 42.9938 12.4865 42.5105 12.2688 42.0242C12.0433 41.5166 11.654 41.1365 11.1009 40.884C10.5333 40.6247 9.98183 40.6191 9.44642 40.8671C8.91766 41.1006 8.47715 41.603 8.12488 42.3743C7.55326 43.626 7.65326 44.7358 8.42486 45.7038L7.29515 46.5599C6.77853 45.9194 6.48057 45.1853 6.40126 44.3575C6.32196 43.5298 6.48835 42.6647 6.90044 41.7624C7.39229 40.6854 8.06366 39.9278 8.91456 39.4897C9.7509 39.0449 10.6348 39.0353 11.5663 39.4606C12.1048 39.7066 12.5471 40.0669 12.8932 40.5415C13.2392 41.0162 13.4151 41.5362 13.4207 42.1017C13.9448 41.5319 14.5446 41.1814 15.2201 41.0502C15.8878 40.8977 16.5636 40.9777 17.2477 41.2901C18.281 41.762 18.906 42.5312 19.1226 43.5975C19.3392 44.6638 19.165 45.8156 18.6001 47.0527Z" fill="#C29A5C"/>
<path d="M17.7559 39.95C17.1303 39.5045 16.7194 38.9368 16.5231 38.2471C16.3137 37.548 16.3061 36.7864 16.5002 35.9621C16.7036 35.1249 17.1069 34.2827 17.7102 33.4355C18.0629 32.9402 18.4751 32.4579 18.9468 31.9885C19.4055 31.5098 19.8551 31.113 20.2954 30.798L19.4352 30.1855C18.575 29.573 17.7098 29.3399 16.8396 29.4862C15.9693 29.6325 15.214 30.1553 14.5736 31.0546C14.1931 31.589 13.9168 32.1976 13.7449 32.8805C13.5598 33.554 13.4587 34.3168 13.4413 35.1687L12.1409 35.0087C12.1581 34.0192 12.2833 33.1262 12.5165 32.3298C12.7367 31.5242 13.0834 30.789 13.5567 30.1243C14.4477 28.8731 15.5115 28.1378 16.748 27.9184C17.9846 27.699 19.235 28.0394 20.4992 28.9396L25.2107 32.2947C25.5626 32.5453 25.8611 32.5123 26.1061 32.1957L27.1618 32.9475C26.9967 33.2621 26.8659 33.4734 26.7693 33.5814C26.5243 33.8979 26.2437 34.0713 25.9275 34.1015C25.6114 34.1317 25.3379 34.0745 25.107 33.9297L24.3502 33.4203C24.6119 34.2941 24.6458 35.2119 24.4519 36.1738C24.2449 37.1264 23.8723 37.9807 23.334 38.7366C22.8607 39.4013 22.3016 39.8969 21.6566 40.2233C20.9987 40.5404 20.3284 40.6818 19.6457 40.6475C18.9593 40.5908 18.3294 40.3583 17.7559 39.95ZM23.3965 33.6839C23.258 33.1336 23.0389 32.7517 22.7392 32.5382L21.2534 31.4802C20.2611 32.1289 19.4169 32.942 18.7208 33.9195C18.0433 34.8709 17.6847 35.7744 17.6451 36.6301C17.6054 37.4857 17.9114 38.1456 18.563 38.6096C19.1235 39.0087 19.7849 39.1556 20.5473 39.0503C21.319 38.932 21.9833 38.4819 22.5402 37.6999C22.995 37.0613 23.2934 36.3801 23.4356 35.6564C23.587 34.9196 23.574 34.2621 23.3965 33.6839Z" fill="#C29A5C"/>
<path d="M27.7349 32.3682L26.8995 26.1014C26.1969 26.6166 25.4451 26.825 24.6439 26.7267C23.8427 26.6284 23.0723 26.1914 22.3325 25.4155C21.8467 24.906 21.5321 24.3327 21.3889 23.6955C21.2346 23.0468 21.2615 22.3911 21.4697 21.7283C21.6894 21.0545 22.1003 20.4306 22.7025 19.8564L26.159 16.5606L34.8044 25.6275L33.6232 26.7537L30.2777 23.2451L28.2628 25.1663L29.055 31.1095L27.7349 32.3682ZM27.1237 24.528L29.4165 22.3419L25.8723 18.6248L23.7879 20.6122C23.1858 21.1863 22.8708 21.8182 22.8431 22.5079C22.8043 23.186 23.0333 23.7856 23.5302 24.3067C24.0381 24.8394 24.6135 25.153 25.2563 25.2475C25.9107 25.331 26.5331 25.0911 27.1237 24.528Z" fill="#C29A5C"/>
<path d="M36.4225 24.4487L29.6623 13.9297L34.9118 10.5561C35.504 10.1755 36.0842 9.98332 36.6524 9.97955C37.2119 9.96232 37.7223 10.0907 38.1837 10.3648C38.6499 10.6167 39.0215 10.958 39.2983 11.3888C39.6616 11.9541 39.849 12.5564 39.8604 13.1957C39.8767 13.8129 39.7093 14.3959 39.3583 14.9448C40.0678 14.7171 40.7624 14.7176 41.4421 14.9465C42.1217 15.1754 42.6648 15.6062 43.0714 16.2388C43.6163 17.0868 43.7503 17.9612 43.4733 18.8619C43.2011 19.7405 42.6007 20.4783 41.6719 21.0751L36.4225 24.4487ZM34.0239 17.831L37.5975 15.5343C38.1225 15.197 38.4211 14.7293 38.4932 14.1314C38.5702 13.5113 38.4487 12.9523 38.1286 12.4543C37.8172 11.9697 37.3832 11.6495 36.8266 11.4937C36.2835 11.3292 35.7629 11.407 35.2649 11.7271L31.6105 14.0756L34.0239 17.831ZM37.0991 22.616L40.9958 20.1118C41.5342 19.7658 41.8596 19.2808 41.9722 18.6569C42.0761 18.0196 41.9724 17.4586 41.661 16.974C41.3236 16.4491 40.8588 16.1106 40.2667 15.9587C39.6745 15.8067 39.1227 15.8951 38.6112 16.2238L34.6337 18.7799L37.0991 22.616Z" fill="#C29A5C"/>
<path d="M46.0361 18.6258L41.3889 7.0175L42.904 6.41095L44.8931 11.3796L46.631 10.6838L48.541 4.15421L50.2789 3.45846L48.1018 10.8706L55.4832 14.8438L53.7008 15.5574L47.193 12.0875L45.4551 12.7833L47.5512 18.0193L46.0361 18.6258Z" fill="#C29A5C"/>
<path d="M58.0054 19.817C57.4869 19.9169 56.9052 19.8579 56.2603 19.64L56.6315 18.3953C57.0038 18.5516 57.3471 18.5995 57.6613 18.539C58.4468 18.3876 59.023 17.4455 59.3897 15.7128L59.7072 14.0629L51.8916 2.93289L53.5883 2.60586L60.1379 12.3667L62.2372 0.938937L63.8397 0.630079L60.7341 15.967C60.4777 17.1733 60.1231 18.0808 59.6701 18.6895C59.2201 19.314 58.6652 19.6898 58.0054 19.817Z" fill="#C29A5C"/>
</svg>
