<svg width="280" height="280" viewBox="0 0 280 280" fill="none" xmlns="http://www.w3.org/2000/svg">
<path opacity="0.5" d="M137.728 279.901V278.319C138.233 278.319 138.738 278.319 139.243 278.319V279.901C138.738 279.901 138.233 279.901 137.728 279.901ZM141.363 278.418C141.868 278.418 142.373 278.418 142.878 278.418V280C142.373 280 141.868 280 141.262 280V278.418H141.363ZM134.093 279.802L134.194 278.22C134.699 278.22 135.204 278.22 135.709 278.319L135.608 279.901C135.103 279.802 134.598 279.802 134.093 279.802ZM144.998 278.319C145.503 278.319 146.008 278.319 146.513 278.22L146.614 279.802C146.109 279.802 145.604 279.802 144.998 279.901V278.319ZM130.357 279.604L130.458 278.022C130.963 278.022 131.468 278.121 131.973 278.121L131.872 279.703C131.468 279.604 130.963 279.604 130.357 279.604ZM148.633 278.121C149.138 278.121 149.643 278.022 150.148 278.022L150.249 279.604C149.744 279.604 149.239 279.703 148.734 279.703L148.633 278.121ZM126.722 279.308L126.924 277.725C127.429 277.725 127.934 277.824 128.439 277.824L128.338 279.407C127.732 279.407 127.227 279.308 126.722 279.308ZM152.268 277.923C152.773 277.923 153.278 277.824 153.783 277.824L153.884 279.407C153.379 279.407 152.874 279.505 152.369 279.505L152.268 277.923ZM123.087 278.912L123.289 277.33C123.794 277.428 124.299 277.428 124.803 277.527L124.602 279.11C124.097 279.011 123.592 278.912 123.087 278.912ZM155.903 277.527C156.408 277.428 156.913 277.428 157.418 277.33L157.62 278.912C157.115 279.011 156.61 279.011 156.105 279.11L155.903 277.527ZM119.452 278.319L119.654 276.736C120.159 276.835 120.664 276.835 121.168 276.934L120.966 278.516C120.462 278.516 119.957 278.418 119.452 278.319ZM159.437 277.132C159.942 277.033 160.447 277.033 160.952 276.934L161.154 278.418C160.649 278.516 160.144 278.516 159.639 278.615L159.437 277.132ZM115.817 277.725L116.12 276.242C116.625 276.341 117.129 276.439 117.634 276.538L117.331 278.022C116.827 277.923 116.322 277.824 115.817 277.725ZM163.072 276.538C163.577 276.439 164.082 276.341 164.587 276.242L164.89 277.725C164.385 277.824 163.88 277.923 163.375 278.022L163.072 276.538ZM112.182 277.033L112.485 275.549C112.99 275.648 113.494 275.747 113.999 275.846L113.696 277.33C113.191 277.33 112.687 277.132 112.182 277.033ZM166.607 275.945C167.111 275.846 167.616 275.747 168.121 275.648L168.424 277.132C167.919 277.231 167.414 277.33 166.909 277.428L166.607 275.945ZM108.547 276.242L108.951 274.758C109.455 274.857 109.96 274.956 110.465 275.154L110.061 276.637C109.657 276.538 109.052 276.439 108.547 276.242ZM170.141 275.253C170.645 275.154 171.15 275.055 171.655 274.956L171.958 276.439C171.453 276.538 170.948 276.637 170.444 276.835L170.141 275.253ZM105.013 275.351L105.417 273.868C105.921 273.967 106.426 274.165 106.931 274.264L106.527 275.747C106.022 275.648 105.517 275.549 105.013 275.351ZM173.675 274.461C174.18 274.362 174.684 274.264 175.189 274.066L175.593 275.549C175.088 275.648 174.583 275.846 174.079 275.945L173.675 274.461ZM101.479 274.461L101.882 272.978C102.387 273.077 102.892 273.274 103.397 273.373L102.993 274.857C102.488 274.659 101.983 274.56 101.479 274.461ZM177.209 273.472C177.714 273.373 178.219 273.176 178.723 273.077L179.127 274.56C178.622 274.659 178.118 274.857 177.613 274.956L177.209 273.472ZM97.9445 273.373L98.4493 271.89C98.9542 272.088 99.4591 272.186 99.9639 272.384L99.4591 273.868C98.9542 273.67 98.4493 273.472 97.9445 273.373ZM180.642 272.483C181.147 272.384 181.652 272.187 182.157 271.989L182.661 273.472C182.157 273.67 181.652 273.769 181.147 273.967L180.642 272.483ZM94.4104 272.187L94.9152 270.703C95.4201 270.901 95.925 271 96.4298 271.197L95.925 272.681C95.4201 272.483 94.9153 272.384 94.4104 272.187ZM184.176 271.395C184.681 271.197 185.186 271.099 185.691 270.901L186.195 272.384C185.691 272.582 185.186 272.681 184.681 272.879L184.176 271.395ZM90.9773 270.901L91.5831 269.417C92.088 269.615 92.5929 269.813 92.9967 269.912L92.4919 271.395C91.987 271.296 91.4821 271.099 90.9773 270.901ZM187.508 270.208C188.013 270.011 188.518 269.813 189.023 269.714L189.528 271.197C189.023 271.395 188.518 271.593 188.013 271.692L187.508 270.208ZM87.5442 269.615L88.15 268.131C88.6549 268.329 89.1598 268.527 89.5636 268.725L88.9578 270.208C88.4529 270.011 88.049 269.714 87.5442 269.615ZM190.941 268.923C191.446 268.725 191.951 268.527 192.355 268.329L192.961 269.813C192.456 270.011 191.951 270.208 191.446 270.406L190.941 268.923ZM84.1111 268.131L84.7169 266.747C85.2218 266.945 85.6257 267.142 86.1306 267.34L85.5247 268.824C85.1208 268.527 84.6159 268.329 84.1111 268.131ZM194.273 267.637C194.778 267.439 195.182 267.241 195.687 267.043L196.293 268.428C195.788 268.626 195.283 268.824 194.879 269.022L194.273 267.637ZM80.7789 266.648L81.4858 265.263C81.9906 265.461 82.3945 265.758 82.8994 265.955L82.1926 267.34C81.6877 267.043 81.2838 266.846 80.7789 266.648ZM197.605 266.153C198.11 265.955 198.514 265.758 199.019 265.461L199.625 266.846C199.12 267.043 198.716 267.34 198.211 267.538L197.605 266.153ZM77.4468 264.966L78.1536 263.582C78.6585 263.78 79.0624 264.076 79.5673 264.274L78.8604 265.659C78.4565 265.461 77.9517 265.263 77.4468 264.966ZM200.938 264.571C201.442 264.373 201.846 264.076 202.351 263.879L203.058 265.263C202.553 265.461 202.149 265.758 201.644 265.955L200.938 264.571ZM74.2157 263.285L75.0234 261.9C75.4273 262.098 75.9322 262.395 76.4371 262.593L75.7303 263.977C75.1244 263.78 74.6195 263.582 74.2157 263.285ZM204.169 262.988C204.674 262.791 205.078 262.494 205.582 262.296L206.289 263.681C205.784 263.878 205.38 264.175 204.876 264.373L204.169 262.988ZM70.9845 261.505L71.7923 260.12C72.1962 260.417 72.701 260.615 73.2059 260.911L72.3981 262.296C71.8933 261.999 71.4894 261.801 70.9845 261.505ZM207.299 261.208C207.804 261.01 208.208 260.714 208.612 260.417L209.419 261.801C208.915 262.098 208.511 262.296 208.006 262.593L207.299 261.208ZM67.7533 259.626L68.5611 258.241C68.965 258.538 69.4699 258.735 69.8738 259.032L69.066 260.417C68.6621 260.219 68.2582 259.922 67.7533 259.626ZM210.53 259.428C210.934 259.131 211.439 258.933 211.843 258.637L212.651 259.922C212.247 260.219 211.742 260.417 211.338 260.714L210.53 259.428ZM64.7241 257.647L65.6329 256.362C66.0368 256.658 66.5417 256.955 66.9456 257.252L66.1378 258.538C65.5319 258.241 65.128 257.944 64.7241 257.647ZM213.559 257.647C213.963 257.351 214.468 257.153 214.872 256.856L215.68 258.142C215.276 258.439 214.771 258.735 214.367 258.933L213.559 257.647ZM61.5939 255.669L62.5027 254.384C62.9066 254.68 63.4115 254.977 63.8154 255.274L62.9066 256.56C62.5027 256.263 61.9978 255.966 61.5939 255.669ZM216.589 255.669C216.992 255.373 217.497 255.076 217.901 254.779L218.81 256.065C218.406 256.362 217.901 256.658 217.497 256.955L216.589 255.669ZM58.5647 253.493L59.4735 252.208C59.8774 252.504 60.2813 252.801 60.7862 253.098L59.8774 254.384C59.3725 254.186 58.9686 253.79 58.5647 253.493ZM219.618 253.592C220.022 253.296 220.426 252.999 220.829 252.702L221.738 253.988C221.334 254.285 220.93 254.581 220.426 254.878L219.618 253.592ZM55.6365 251.318L56.6462 250.032C57.0501 250.329 57.454 250.625 57.8579 251.021L56.9491 252.307C56.4443 251.911 56.0404 251.614 55.6365 251.318ZM222.546 251.515C222.95 251.219 223.354 250.922 223.758 250.625L224.666 251.812C224.263 252.109 223.859 252.406 223.455 252.801L222.546 251.515ZM52.7083 249.043L53.718 247.856C54.1219 248.153 54.5258 248.548 54.9297 248.845L53.9199 250.032C53.516 249.735 53.1122 249.339 52.7083 249.043ZM225.373 249.339C225.777 249.043 226.181 248.746 226.585 248.35L227.595 249.537C227.191 249.834 226.787 250.131 226.383 250.526L225.373 249.339ZM49.78 246.669L50.7898 245.482C51.1937 245.779 51.5975 246.175 52.0014 246.471L50.9917 247.658C50.5878 247.361 50.1839 247.065 49.78 246.669ZM228.2 247.065C228.604 246.768 229.008 246.372 229.412 246.076L230.422 247.262C230.018 247.559 229.614 247.955 229.21 248.251L228.2 247.065ZM47.0537 244.295L48.1644 243.108C48.5683 243.504 48.9722 243.801 49.3761 244.098L48.3664 245.284C47.8615 244.988 47.4576 244.592 47.0537 244.295ZM231.028 244.79C231.432 244.493 231.836 244.097 232.138 243.801L233.148 244.988C232.744 245.383 232.34 245.68 231.937 245.977L231.028 244.79ZM44.3274 241.724L45.4382 240.636C45.842 241.031 46.2459 241.328 46.5489 241.724L45.4382 242.911C45.0343 242.515 44.7313 242.119 44.3274 241.724ZM233.653 242.317C234.057 241.922 234.461 241.625 234.764 241.229L235.774 242.317C235.37 242.713 234.966 243.01 234.663 243.405L233.653 242.317ZM41.6012 239.152L42.7119 238.064C43.1158 238.46 43.4187 238.757 43.8226 239.152L42.7119 240.24C42.4089 239.943 42.005 239.548 41.6012 239.152ZM236.278 239.845C236.682 239.449 236.985 239.152 237.389 238.757L238.5 239.845C238.096 240.24 237.793 240.537 237.389 240.933L236.278 239.845ZM38.9758 236.482L40.0865 235.394C40.4904 235.789 40.7934 236.185 41.1973 236.482L40.0865 237.57C39.7836 237.273 39.3797 236.877 38.9758 236.482ZM238.904 237.372C239.308 236.976 239.611 236.68 240.014 236.284L241.125 237.372C240.721 237.768 240.418 238.163 240.014 238.46L238.904 237.372ZM36.4515 233.811L37.6632 232.723C38.0671 233.119 38.37 233.515 38.7739 233.91L37.5622 234.998C37.1583 234.603 36.8554 234.207 36.4515 233.811ZM241.428 234.8C241.832 234.405 242.135 234.009 242.438 233.712L243.549 234.702C243.145 235.097 242.842 235.493 242.539 235.888L241.428 234.8ZM34.0281 231.042L35.2398 230.053C35.5427 230.449 35.9466 230.844 36.2495 231.24L35.0379 232.229C34.7349 231.833 34.432 231.438 34.0281 231.042ZM243.851 232.031C244.154 231.635 244.558 231.24 244.861 230.844L245.972 231.833C245.669 232.229 245.265 232.625 244.962 233.02L243.851 232.031ZM31.6048 228.174L32.8164 227.185C33.1194 227.58 33.5233 227.976 33.8262 228.372L32.6145 229.361C32.3116 229.064 32.0087 228.569 31.6048 228.174ZM246.174 229.361C246.477 228.965 246.78 228.569 247.184 228.174L248.395 229.163C248.092 229.558 247.688 229.954 247.385 230.35L246.174 229.361ZM29.2824 225.306L30.494 224.317C30.797 224.712 31.0999 225.108 31.5038 225.503L30.2921 226.492C29.9892 226.097 29.6863 225.701 29.2824 225.306ZM248.496 226.591C248.799 226.196 249.102 225.8 249.506 225.404L250.718 226.393C250.415 226.789 250.112 227.185 249.708 227.58L248.496 226.591ZM27.0609 222.338L28.3736 221.448C28.6765 221.844 28.9794 222.338 29.2824 222.734L27.9697 223.723C27.7678 223.13 27.3639 222.734 27.0609 222.338ZM250.617 223.723C250.92 223.327 251.223 222.932 251.525 222.536L252.737 223.426C252.434 223.822 252.131 224.218 251.828 224.712L250.617 223.723ZM24.9405 219.272L26.2532 218.382C26.5561 218.778 26.859 219.272 27.1619 219.668L25.8493 220.558C25.5463 220.162 25.2434 219.668 24.9405 219.272ZM252.737 220.855C253.04 220.459 253.343 219.965 253.646 219.569L254.858 220.459C254.555 220.855 254.252 221.349 253.949 221.745L252.737 220.855ZM22.82 216.206L24.1327 215.316C24.4356 215.712 24.7386 216.206 25.0415 216.602L23.7288 217.492C23.4259 217.096 23.123 216.602 22.82 216.206ZM254.858 217.888C255.16 217.492 255.463 216.998 255.766 216.602L257.079 217.492C256.776 217.888 256.473 218.382 256.17 218.778L254.858 217.888ZM20.8006 213.041L22.2142 212.25C22.5171 212.745 22.8201 213.14 23.022 213.635L21.7093 214.426C21.4064 213.931 21.1035 213.536 20.8006 213.041ZM256.877 214.921C257.18 214.525 257.382 214.03 257.685 213.635L258.997 214.426C258.695 214.921 258.493 215.316 258.19 215.712L256.877 214.921ZM18.9831 209.876L20.3967 209.085C20.6996 209.58 20.9016 209.975 21.2045 210.47L19.7908 211.261C19.4879 210.767 19.185 210.272 18.9831 209.876ZM258.695 211.854C258.997 211.459 259.199 210.964 259.502 210.569L260.815 211.36C260.512 211.854 260.31 212.25 260.007 212.745L258.695 211.854ZM17.0645 206.612L18.4782 205.821C18.6801 206.316 18.983 206.711 19.286 207.206L17.8723 207.997C17.6704 207.503 17.3675 207.107 17.0645 206.612ZM260.512 208.69C260.714 208.195 261.017 207.799 261.32 207.305L262.633 208.096C262.431 208.591 262.128 208.986 261.825 209.481L260.512 208.69ZM15.348 203.349L16.7616 202.656C16.9636 203.151 17.2665 203.645 17.4684 204.041L16.0548 204.733C15.8529 204.239 15.6509 203.843 15.348 203.349ZM262.33 205.623C262.532 205.129 262.834 204.733 263.036 204.239L264.45 204.931C264.248 205.426 263.945 205.821 263.743 206.316L262.33 205.623ZM13.7324 199.986L15.1461 199.294C15.348 199.788 15.5499 200.283 15.8529 200.678L14.4392 201.371C14.1363 200.975 13.9344 200.48 13.7324 199.986ZM263.945 202.36C264.147 201.865 264.45 201.469 264.652 200.975L266.066 201.667C265.864 202.162 265.561 202.557 265.359 203.052L263.945 202.36ZM12.1168 196.623L13.5305 196.03C13.7324 196.524 13.9344 197.019 14.1363 197.513L12.7227 198.107C12.6217 197.513 12.3188 197.118 12.1168 196.623ZM265.561 199.195C265.763 198.7 265.965 198.304 266.167 197.81L267.58 198.403C267.378 198.898 267.176 199.392 266.974 199.788L265.561 199.195ZM10.7032 193.161L12.2178 192.568C12.4198 193.063 12.6217 193.557 12.8237 194.052L11.309 194.645C11.1071 194.15 10.9051 193.656 10.7032 193.161ZM266.974 195.931C267.176 195.436 267.378 194.942 267.58 194.546L268.994 195.14C268.792 195.634 268.59 196.129 268.388 196.623L266.974 195.931ZM9.28958 189.7L10.8042 189.106C11.0061 189.601 11.2081 190.095 11.41 190.59L9.89542 191.183C9.69348 190.689 9.49152 190.194 9.28958 189.7ZM268.388 192.568C268.59 192.073 268.792 191.579 268.994 191.084L270.407 191.678C270.206 192.172 270.004 192.667 269.802 193.161L268.388 192.568ZM7.97691 186.139L9.49152 185.645C9.69347 186.139 9.89541 186.634 9.99639 187.128L8.48178 187.623C8.38081 187.227 8.17886 186.733 7.97691 186.139ZM269.701 189.205C269.903 188.711 270.105 188.216 270.206 187.722L271.619 188.216C271.417 188.711 271.215 189.205 271.114 189.7L269.701 189.205ZM6.76523 182.678L8.27984 182.183C8.48179 182.678 8.58276 183.172 8.78471 183.667L7.2701 184.161C7.06815 183.667 6.96718 183.172 6.76523 182.678ZM270.912 185.842C271.114 185.348 271.215 184.853 271.417 184.359L272.932 184.853C272.73 185.348 272.629 185.842 272.427 186.337L270.912 185.842ZM5.65452 179.117L7.16912 178.721C7.2701 179.216 7.47205 179.71 7.57303 180.205L6.05842 180.699C5.95745 180.106 5.85646 179.611 5.65452 179.117ZM272.124 182.381C272.225 181.886 272.427 181.392 272.629 180.897L274.144 181.392C274.043 181.886 273.841 182.381 273.639 182.875L272.124 182.381ZM4.64478 175.457L6.15939 175.062C6.26036 175.556 6.46232 176.051 6.56329 176.545L5.04868 176.941C4.94771 176.545 4.84673 176.051 4.64478 175.457ZM273.134 178.919C273.235 178.425 273.437 177.93 273.538 177.436L275.052 177.831C274.951 178.326 274.749 178.82 274.648 179.315L273.134 178.919ZM3.73602 171.897L5.35161 171.501C5.45258 171.996 5.55355 172.49 5.7555 172.985L4.24089 173.38C4.03894 172.886 3.837 172.391 3.73602 171.897ZM274.043 175.457C274.144 174.963 274.244 174.468 274.446 173.974L275.961 174.369C275.86 174.864 275.759 175.359 275.557 175.853L274.043 175.457ZM2.92823 168.237L4.54382 167.941C4.64479 168.435 4.74577 168.93 4.84674 169.523L3.23115 169.82C3.13018 169.325 3.0292 168.732 2.92823 168.237ZM274.951 171.897C275.052 171.402 275.153 170.908 275.254 170.413L276.769 170.71C276.668 171.205 276.567 171.699 276.466 172.194L274.951 171.897ZM2.22142 164.578L3.837 164.281C3.93798 164.776 4.03894 165.27 4.13991 165.864L2.52434 166.16C2.42337 165.666 2.32239 165.072 2.22142 164.578ZM275.759 168.435C275.86 167.941 275.961 167.446 276.062 166.952L277.577 167.248C277.476 167.743 277.375 168.237 277.274 168.732L275.759 168.435ZM1.61557 160.918L3.23115 160.721C3.33213 161.215 3.4331 161.71 3.4331 162.303L1.81753 162.501C1.81753 161.907 1.71654 161.413 1.61557 160.918ZM276.365 164.875C276.466 164.38 276.567 163.886 276.668 163.391L278.182 163.589C278.082 164.083 277.981 164.578 277.88 165.171L276.365 164.875ZM1.1107 157.259L2.72629 157.061C2.82726 157.556 2.82726 158.149 2.92823 158.644L1.31266 158.841C1.21169 158.248 1.1107 157.753 1.1107 157.259ZM276.971 161.314C277.072 160.82 277.072 160.325 277.173 159.83L278.687 160.028C278.586 160.523 278.586 161.017 278.485 161.611L276.971 161.314ZM0.605833 153.501L2.22142 153.402C2.32239 153.896 2.32239 154.49 2.42336 154.984L0.807793 155.182C0.807793 154.588 0.706807 153.995 0.605833 153.501ZM277.476 157.753C277.577 157.259 277.577 156.764 277.678 156.171L279.192 156.369C279.091 156.863 279.091 157.358 278.99 157.951L277.476 157.753ZM0.302924 149.841L1.91849 149.742C1.91849 150.237 2.01947 150.83 2.01947 151.325L0.403889 151.424C0.403889 150.83 0.403898 150.336 0.302924 149.841ZM277.88 154.094C277.88 153.599 277.981 153.105 277.981 152.511L279.495 152.61C279.495 153.105 279.394 153.599 279.394 154.193L277.88 154.094ZM0.100964 146.083L1.71655 145.984C1.71655 146.478 1.81753 147.072 1.81753 147.566L0.201944 147.665C0.201944 147.171 0.100964 146.577 0.100964 146.083ZM278.182 150.533C278.182 150.039 278.283 149.544 278.283 148.951L279.798 149.05C279.798 149.544 279.697 150.138 279.697 150.632L278.182 150.533ZM0 142.324H1.61557C1.61557 142.819 1.61557 143.412 1.61557 143.907H0C0 143.412 0 142.918 0 142.324ZM278.384 146.874C278.384 146.379 278.384 145.885 278.485 145.291H280C280 145.786 280 146.28 279.899 146.874H278.384ZM0 138.566V138.368H1.61557V138.566C1.61557 139.06 1.61557 139.654 1.61557 140.148H0C0 139.654 0 139.159 0 138.566ZM278.485 143.214C278.485 142.72 278.485 142.225 278.485 141.731H280C280 142.225 280 142.72 280 143.214V143.313H278.485V143.214ZM0 136.291C0 135.797 0 135.203 0 134.709L1.61557 134.808C1.61557 135.302 1.61557 135.895 1.61557 136.39L0 136.291ZM278.485 138.071H280C280 138.566 280 139.159 280 139.654H278.485C278.485 139.159 278.485 138.665 278.485 138.071ZM0.100964 132.533C0.100964 132.038 0.201944 131.445 0.201944 130.95L1.81753 131.049C1.81753 131.544 1.71655 132.137 1.71655 132.632L0.100964 132.533ZM278.384 134.511L279.899 134.412C279.899 134.906 279.899 135.5 280 135.994H278.485C278.485 135.5 278.384 135.005 278.384 134.511ZM0.302924 128.774C0.302924 128.28 0.403889 127.686 0.403889 127.192L2.01947 127.39C2.01947 127.884 1.91849 128.478 1.91849 128.972L0.302924 128.774ZM278.182 130.851L279.697 130.752C279.697 131.247 279.798 131.84 279.798 132.335L278.283 132.434C278.283 131.939 278.283 131.445 278.182 130.851ZM0.706813 125.115C0.807786 124.62 0.807783 124.027 0.908757 123.532L2.52434 123.73C2.42337 124.225 2.42337 124.818 2.3224 125.313L0.706813 125.115ZM277.88 127.291L279.394 127.192C279.394 127.686 279.495 128.181 279.495 128.774L277.981 128.873C277.981 128.28 277.981 127.785 277.88 127.291ZM1.1107 121.356C1.21167 120.862 1.21169 120.268 1.31266 119.774L2.92823 119.972C2.82726 120.466 2.82726 120.961 2.72629 121.554L1.1107 121.356ZM277.476 123.631L278.99 123.433C279.091 123.928 279.091 124.422 279.192 125.016L277.678 125.214C277.678 124.719 277.577 124.225 277.476 123.631ZM1.61557 117.697C1.71654 117.202 1.81753 116.609 1.81753 116.114L3.4331 116.411C3.33213 116.906 3.23115 117.4 3.23115 117.994L1.61557 117.697ZM277.072 120.071L278.586 119.873C278.687 120.367 278.687 120.862 278.788 121.455L277.274 121.653C277.173 121.159 277.072 120.565 277.072 120.071ZM2.22142 114.037C2.32239 113.543 2.42337 112.949 2.52434 112.455L4.13991 112.752C4.03894 113.246 3.93798 113.741 3.837 114.334L2.22142 114.037ZM276.466 116.51L277.981 116.213C278.081 116.708 278.182 117.202 278.283 117.796L276.769 118.093C276.668 117.499 276.567 117.005 276.466 116.51ZM2.92823 110.378C3.0292 109.883 3.13018 109.29 3.23115 108.795L4.84674 109.191C4.74577 109.686 4.64479 110.18 4.54382 110.774L2.92823 110.378ZM275.759 112.949L277.274 112.653C277.375 113.147 277.476 113.642 277.577 114.235L276.062 114.532C275.961 113.939 275.86 113.444 275.759 112.949ZM3.837 106.718C3.93798 106.224 4.03894 105.729 4.24089 105.136L5.85648 105.532C5.7555 106.026 5.65452 106.521 5.45257 107.015L3.837 106.718ZM275.052 109.389L276.567 108.993C276.668 109.488 276.769 109.982 276.87 110.477L275.355 110.774C275.254 110.378 275.153 109.883 275.052 109.389ZM4.74576 103.059C4.84673 102.564 5.04867 102.07 5.14965 101.477L6.66425 101.971C6.56328 102.466 6.36134 102.96 6.26036 103.455L4.74576 103.059ZM274.144 105.828L275.658 105.433C275.759 105.927 275.961 106.422 276.062 106.916L274.547 107.312C274.446 106.916 274.245 106.323 274.144 105.828ZM5.7555 99.4984C5.85647 99.0039 6.05842 98.5094 6.26036 97.9159L7.77497 98.4105C7.674 98.905 7.47206 99.3995 7.37108 99.894L5.7555 99.4984ZM273.235 102.367L274.749 101.971C274.85 102.466 275.052 102.96 275.153 103.455L273.639 103.85C273.437 103.356 273.336 102.861 273.235 102.367ZM6.86621 95.9378C7.06816 95.4433 7.16913 94.9488 7.37108 94.4543L8.88569 94.9488C8.68374 95.4433 8.58277 95.9378 8.38082 96.4324L6.86621 95.9378ZM272.124 98.905L273.639 98.4105C273.841 98.905 273.942 99.3995 274.144 99.894L272.629 100.389C272.427 99.894 272.326 99.3995 272.124 98.905ZM8.07789 92.4762C8.27984 91.9816 8.48179 91.4871 8.58276 90.9926L10.0974 91.586C9.89542 92.0805 9.69347 92.5751 9.5925 93.0696L8.07789 92.4762ZM271.013 95.4433L272.528 94.9488C272.73 95.4433 272.831 95.9378 273.033 96.4324L271.518 96.9269C271.316 96.4324 271.215 95.9378 271.013 95.4433ZM9.39056 88.9156C9.5925 88.4211 9.79444 87.9265 9.99639 87.432L11.511 88.0254C11.309 88.52 11.1071 89.0145 10.9052 89.509L9.39056 88.9156ZM269.802 91.9816L271.215 91.3882C271.417 91.8827 271.619 92.3773 271.72 92.8718L270.206 93.3663C270.105 92.9707 269.903 92.4762 269.802 91.9816ZM10.7032 85.4539C10.9051 84.9594 11.1071 84.4649 11.309 83.9703L12.8237 84.6627C12.6217 85.1572 12.4198 85.6517 12.2178 86.1462L10.7032 85.4539ZM268.489 88.52L269.903 87.9265C270.105 88.4211 270.307 88.9156 270.509 89.4101L269.095 90.0035C268.792 89.509 268.691 89.0145 268.489 88.52ZM12.2178 82.0911C12.4198 81.5966 12.6217 81.1021 12.9246 80.6076L14.3383 81.2999C14.1363 81.7944 13.9344 82.2889 13.7324 82.6846L12.2178 82.0911ZM267.075 85.1572L268.489 84.5638C268.691 85.0583 268.893 85.5528 269.095 86.0473L267.681 86.6408C267.479 86.1462 267.277 85.6517 267.075 85.1572ZM13.8334 78.7284C14.0353 78.2338 14.3383 77.7393 14.5402 77.3437L15.9538 78.036C15.7519 78.5306 15.449 78.9262 15.247 79.4207L13.8334 78.7284ZM265.561 81.8933L266.974 81.201C267.176 81.6955 267.378 82.19 267.681 82.5857L266.268 83.278C265.965 82.7835 265.763 82.3879 265.561 81.8933ZM15.449 75.3656C15.6509 74.8711 15.9538 74.4755 16.1558 73.9809L17.5694 74.7722C17.3675 75.2667 17.0645 75.6623 16.8626 76.1568L15.449 75.3656ZM263.945 78.6295L265.359 77.9371C265.561 78.4317 265.864 78.9262 266.066 79.3218L264.652 80.0141C264.45 79.5196 264.147 79.0251 263.945 78.6295ZM17.2665 72.1017C17.4684 71.6072 17.7714 71.2116 18.0743 70.7171L19.4879 71.5083C19.185 72.0028 18.9831 72.3985 18.6801 72.893L17.2665 72.1017ZM262.229 75.3656L263.642 74.5744C263.844 75.0689 264.147 75.4645 264.349 75.959L262.935 76.6514C262.734 76.2557 262.532 75.8601 262.229 75.3656ZM19.084 68.8379C19.3869 68.3433 19.5889 67.9477 19.8918 67.4532L21.3054 68.3433C21.0025 68.8379 20.8006 69.2335 20.4977 69.728L19.084 68.8379ZM260.512 72.2006L261.825 71.4094C262.128 71.9039 262.33 72.2995 262.633 72.7941L261.219 73.5853C261.017 73.0908 260.714 72.5963 260.512 72.2006ZM21.0025 65.6729C21.3054 65.1784 21.6084 64.7828 21.8103 64.2882L23.2239 65.1784C22.921 65.574 22.6181 66.0685 22.4162 66.5631L21.0025 65.6729ZM258.695 69.0357L260.007 68.2444C260.31 68.739 260.512 69.1346 260.815 69.6291L259.502 70.4204C259.199 69.9258 258.897 69.4313 258.695 69.0357ZM23.022 62.508C23.3249 62.1123 23.6278 61.6178 23.9308 61.2222L25.2434 62.1123C24.9405 62.5079 24.6376 63.0025 24.3346 63.3981L23.022 62.508ZM256.776 65.8707L258.089 64.9806C258.392 65.3762 258.695 65.8707 258.897 66.3652L257.584 67.2554C257.281 66.7609 256.978 66.3652 256.776 65.8707ZM25.0415 59.4419C25.3444 59.0463 25.6473 58.5518 25.9502 58.1561L27.2629 59.1452C26.96 59.5408 26.657 60.0353 26.3541 60.4309L25.0415 59.4419ZM254.757 62.8047L256.069 61.9145C256.372 62.3101 256.675 62.8047 256.978 63.2003L255.665 64.0904C255.261 63.6948 255.06 63.2992 254.757 62.8047ZM27.2629 56.3758C27.5658 55.9802 27.8687 55.4857 28.1716 55.0901L29.4843 56.0791C29.1814 56.4748 28.8785 56.9693 28.5756 57.3649L27.2629 56.3758ZM252.636 59.8375L253.848 58.9474C254.151 59.343 254.454 59.8375 254.757 60.2331L253.444 61.1233C253.242 60.7277 252.939 60.2331 252.636 59.8375ZM29.4843 53.4087C29.7872 53.0131 30.0902 52.5186 30.494 52.1229L31.7057 53.112C31.4028 53.5076 31.0999 53.9032 30.696 54.2988L29.4843 53.4087ZM250.516 56.8704L251.727 55.8813C252.03 56.2769 252.333 56.7715 252.636 57.1671L251.424 58.0572C251.122 57.7605 250.819 57.3649 250.516 56.8704ZM31.9077 50.5405C32.2106 50.1448 32.6145 49.7492 32.9174 49.3536L34.1291 50.4415C33.8262 50.8372 33.4223 51.2328 33.1194 51.6284L31.9077 50.5405ZM248.193 54.0021L249.405 53.0131C249.708 53.4087 250.011 53.8043 250.415 54.2988L249.203 55.2879C248.9 54.8923 248.597 54.3977 248.193 54.0021ZM34.2301 47.6722C34.634 47.2766 34.9369 46.881 35.3408 46.4853L36.5525 47.5733C36.1486 47.9689 35.8457 48.3645 35.5427 48.7602L34.2301 47.6722ZM245.972 51.2328L247.184 50.2437C247.486 50.6394 247.89 51.035 248.193 51.4306L246.982 52.4196C246.578 52.024 246.275 51.6284 245.972 51.2328ZM36.7544 44.9029C37.1583 44.5072 37.4612 44.1116 37.8651 43.716L39.0768 44.804C38.6729 45.1996 38.37 45.5952 37.9661 45.9908L36.7544 44.9029ZM243.549 48.4634L244.659 47.3755C245.063 47.7711 245.366 48.1667 245.669 48.5624L244.457 49.6503C244.255 49.2547 243.851 48.8591 243.549 48.4634ZM39.2788 42.2324C39.6826 41.8368 39.9856 41.4412 40.3895 41.1445L41.5002 42.2324C41.0963 42.6281 40.7934 43.0237 40.3895 43.3204L39.2788 42.2324ZM241.125 45.6941L242.236 44.6062C242.64 45.0018 242.943 45.3974 243.347 45.793L242.236 46.881C241.832 46.4853 241.428 46.0897 241.125 45.6941ZM42.005 39.562C42.4089 39.1664 42.8128 38.7708 43.1158 38.474L44.2265 39.6609C43.8226 40.0565 43.4187 40.3532 43.1158 40.7489L42.005 39.562ZM238.5 43.1226L239.611 42.0346C240.014 42.4302 240.317 42.8259 240.721 43.1226L239.611 44.2105C239.308 43.8149 238.904 43.4193 238.5 43.1226ZM44.6304 36.9905C45.0343 36.5949 45.4381 36.2981 45.842 35.9025L46.9528 37.0894C46.5489 37.485 46.145 37.7817 45.842 38.1773L44.6304 36.9905ZM235.975 40.551L237.086 39.3642C237.49 39.7598 237.894 40.0565 238.197 40.4521L237.086 41.5401C236.682 41.2434 236.379 40.8478 235.975 40.551ZM47.4576 34.5178C47.8615 34.1222 48.2654 33.8255 48.6693 33.4299L49.78 34.6167C49.3761 35.0124 48.9722 35.3091 48.5683 35.7047L47.4576 34.5178ZM233.249 37.9795L234.259 36.7927C234.663 37.1883 235.067 37.485 235.37 37.8806L234.36 39.0675C234.057 38.7708 233.653 38.3751 233.249 37.9795ZM50.2849 32.1441C50.6888 31.8474 51.0927 31.4518 51.4966 31.1551L52.5063 32.4408C52.1024 32.7376 51.6985 33.1332 51.2946 33.4299L50.2849 32.1441ZM230.523 35.6058L231.533 34.4189C231.937 34.8146 232.34 35.1113 232.744 35.5069L231.735 36.6938C231.331 36.2981 230.927 35.9025 230.523 35.6058ZM53.2131 29.7704C53.617 29.4737 54.0209 29.0781 54.4248 28.7814L55.4345 30.0671C55.0306 30.3638 54.6268 30.6606 54.2229 31.0562L53.2131 29.7704ZM227.797 33.2321L228.806 32.0452C229.21 32.3419 229.614 32.7376 230.018 33.0343L229.008 34.2211C228.604 33.9244 228.201 33.5288 227.797 33.2321ZM56.1414 27.4956C56.5453 27.1989 57.0501 26.9022 57.454 26.5065L58.3628 27.7923C57.9589 28.089 57.555 28.3857 57.0501 28.6824L56.1414 27.4956ZM224.868 30.9573L225.777 29.6715C226.181 29.9682 226.585 30.3638 226.989 30.6605L225.979 31.8474C225.777 31.5507 225.373 31.254 224.868 30.9573ZM59.1706 25.3197C59.5745 25.023 60.0793 24.7263 60.4832 24.4295L61.392 25.7153C60.9881 26.012 60.4832 26.3087 60.0793 26.6054L59.1706 25.3197ZM222.041 28.6824L222.95 27.3967C223.354 27.6934 223.758 27.9901 224.263 28.3857L223.354 29.6715C222.849 29.3748 222.445 29.0781 222.041 28.6824ZM62.1998 23.1438C62.6037 22.8471 63.1085 22.5503 63.5124 22.2536L64.4212 23.6383C64.0173 23.935 63.5124 24.2317 63.1085 24.5284L62.1998 23.1438ZM219.012 26.6054L219.921 25.3197C220.325 25.6164 220.829 25.9131 221.233 26.2098L220.325 27.4956C219.921 27.1989 219.416 26.9022 219.012 26.6054ZM65.4309 21.1657C65.8348 20.869 66.3397 20.5722 66.8446 20.2755L67.6524 21.6602C67.2485 21.9569 66.7436 22.2536 66.3397 22.4514L65.4309 21.1657ZM215.983 24.5284L216.79 23.2427C217.194 23.5394 217.699 23.8361 218.103 24.1328L217.194 25.4186C216.891 25.1219 216.488 24.8252 215.983 24.5284ZM68.5611 19.1876C68.965 18.8909 69.4699 18.5941 69.9748 18.3963L70.7825 19.781C70.3786 20.0777 69.8738 20.2755 69.3689 20.5722L68.5611 19.1876ZM212.953 22.5503L213.761 21.1657C214.165 21.4624 214.67 21.7591 215.074 22.0558L214.266 23.4405C213.862 23.1438 213.357 22.8471 212.953 22.5503ZM71.7923 17.4073C72.2971 17.1106 72.701 16.9128 73.2059 16.616L74.0137 18.0007C73.5088 18.1985 73.1049 18.4952 72.6001 18.7919L71.7923 17.4073ZM209.823 20.6711L210.631 19.2865C211.136 19.5832 211.54 19.781 212.045 20.0777L211.237 21.4624C210.732 21.1657 210.227 20.9679 209.823 20.6711ZM75.1244 15.627C75.6293 15.4292 76.0332 15.1325 76.5381 14.9347L77.2449 16.3193C76.74 16.5171 76.3361 16.8139 75.8312 17.0117L75.1244 15.627ZM206.592 18.8909L207.299 17.5062C207.804 17.8029 208.208 18.0007 208.713 18.2974L207.905 19.6821C207.501 19.3854 207.097 19.0887 206.592 18.8909ZM78.4565 13.9456C78.9614 13.7478 79.3653 13.4511 79.8702 13.2533L80.577 14.7369C80.0721 14.9347 79.6682 15.2314 79.1634 15.4292L78.4565 13.9456ZM203.462 17.1106L204.169 15.7259C204.674 15.9237 205.078 16.2204 205.582 16.5171L204.876 17.9018C204.371 17.6051 203.866 17.4073 203.462 17.1106ZM81.8896 12.3631C82.3945 12.1653 82.8994 11.9675 83.3033 11.6708L83.9091 13.1544C83.4042 13.3522 82.8994 13.55 82.4955 13.7478L81.8896 12.3631ZM200.13 15.5281L200.837 14.1434C201.342 14.3412 201.745 14.6379 202.25 14.8357L201.543 16.2204C201.039 15.9237 200.635 15.7259 200.13 15.5281ZM85.3228 10.8795C85.8276 10.6817 86.3325 10.4839 86.8374 10.2861L87.4432 11.7697C86.9383 11.9675 86.4335 12.1653 86.0296 12.3631L85.3228 10.8795ZM196.798 13.9456L197.404 12.462C197.908 12.6598 198.413 12.8577 198.817 13.1544L198.211 14.6379C197.807 14.3412 197.303 14.1434 196.798 13.9456ZM88.7559 9.39597C89.2607 9.19816 89.7656 9.00036 90.2705 8.80255L90.8763 10.2861C90.3714 10.4839 89.8666 10.6817 89.3617 10.8795L88.7559 9.39597ZM193.466 12.462L194.071 10.9785C194.576 11.1763 195.081 11.3741 195.586 11.5719L194.98 13.0555C194.475 12.8577 193.97 12.6598 193.466 12.462ZM92.189 8.11022C92.6938 7.91241 93.1987 7.7146 93.7036 7.6157L94.2084 9.09927C93.7036 9.29708 93.1987 9.49489 92.6938 9.5938L92.189 8.11022ZM190.032 11.0774L190.537 9.5938C191.042 9.79161 191.547 9.98941 192.052 10.1872L191.446 11.6708C191.042 11.473 190.537 11.2752 190.032 11.0774ZM95.824 6.92335C96.3289 6.72554 96.8338 6.62663 97.3386 6.42882L97.8435 8.01131C97.3386 8.20912 96.8338 8.30802 96.3289 8.50583L95.824 6.92335ZM186.599 9.7916L187.104 8.30803C187.609 8.50584 188.114 8.70364 188.619 8.90145L188.114 10.385C187.609 10.0883 187.104 9.98941 186.599 9.7916ZM99.3581 5.73649C99.863 5.53868 100.368 5.43978 100.873 5.24197L101.378 6.82445C100.873 6.92336 100.368 7.12116 99.863 7.22007L99.3581 5.73649ZM183.166 8.60475L183.671 7.12117C184.176 7.31898 184.681 7.41789 185.186 7.6157L184.681 9.09927C184.176 8.90146 183.671 8.70365 183.166 8.60475ZM102.892 4.74744C103.397 4.64854 103.902 4.45073 104.407 4.35183L104.811 5.9343C104.306 6.0332 103.801 6.23102 103.296 6.32993L102.892 4.74744ZM179.632 7.41787L180.036 5.9343C180.541 6.13211 181.046 6.23101 181.551 6.42882L181.046 7.9124C180.642 7.81349 180.137 7.61568 179.632 7.41787ZM106.527 3.8573C107.032 3.7584 107.537 3.65948 108.042 3.46167L108.446 5.04416C107.941 5.14306 107.436 5.24196 106.931 5.43977L106.527 3.8573ZM176.098 6.42882L176.502 4.84635C177.007 4.94526 177.512 5.14306 178.017 5.24197L177.613 6.82445C177.108 6.72555 176.603 6.62663 176.098 6.42882ZM110.162 2.96715C110.667 2.86824 111.172 2.76935 111.677 2.67045L111.98 4.25292C111.475 4.35182 110.97 4.45073 110.465 4.54964L110.162 2.96715ZM172.564 5.53868L172.968 3.9562C173.473 4.0551 173.978 4.25292 174.483 4.35183L174.079 5.9343C173.574 5.73649 173.069 5.63759 172.564 5.53868ZM113.797 2.27482C114.302 2.17591 114.807 2.077 115.413 1.9781L115.716 3.56059C115.211 3.65949 114.706 3.7584 114.201 3.8573L113.797 2.27482ZM169.03 4.74744L169.333 3.16497C169.838 3.26388 170.343 3.36278 170.847 3.56059L170.545 5.14307C170.04 4.94526 169.535 4.84635 169.03 4.74744ZM117.533 1.6814C118.038 1.58249 118.543 1.48357 119.149 1.48357L119.351 3.06606C118.846 3.16497 118.341 3.26387 117.836 3.26387L117.533 1.6814ZM165.395 3.9562L165.698 2.37373C166.203 2.47263 166.708 2.57154 167.212 2.67045L166.909 4.25292C166.405 4.15401 165.9 4.0551 165.395 3.9562ZM121.168 1.08796C121.673 0.989056 122.178 0.989059 122.784 0.890154L122.986 2.47262C122.481 2.57153 121.976 2.57154 121.471 2.67045L121.168 1.08796ZM161.76 3.36278L161.962 1.78029C162.467 1.8792 162.972 1.97811 163.577 2.07701L163.375 3.6595C162.77 3.56059 162.265 3.46168 161.76 3.36278ZM124.904 0.692347C125.409 0.593442 125.914 0.59343 126.52 0.494525L126.722 2.07701C126.217 2.17592 125.712 2.17592 125.106 2.17592L124.904 0.692347ZM158.125 2.76934L158.327 1.18687C158.832 1.28578 159.336 1.28577 159.942 1.38468L159.74 2.96715C159.135 2.96715 158.63 2.86825 158.125 2.76934ZM128.64 0.395629C129.145 0.395629 129.65 0.296718 130.256 0.296718L130.357 1.8792C129.852 1.8792 129.347 1.9781 128.741 1.9781L128.64 0.395629ZM154.49 2.37373L154.591 0.791243C155.096 0.890148 155.6 0.890145 156.206 0.98905L156.004 2.57154C155.499 2.47263 154.995 2.47263 154.49 2.37373ZM132.376 0.098911C132.881 0.098911 133.386 0 133.992 0L134.093 1.58249C133.588 1.58249 133.083 1.58249 132.477 1.6814L132.376 0.098911ZM150.855 1.9781L150.956 0.395629C151.461 0.395629 151.965 0.494525 152.571 0.494525L152.47 2.07701C151.864 2.07701 151.36 2.077 150.855 1.9781ZM136.012 0C136.516 0 137.021 0 137.627 0V1.58249C137.122 1.58249 136.617 1.58249 136.012 1.58249V0ZM147.119 1.78029L147.22 0.197822C147.724 0.197822 148.229 0.296718 148.835 0.296718L148.734 1.8792C148.229 1.7803 147.624 1.78029 147.119 1.78029ZM139.748 0C140.252 0 140.757 0 141.363 0V1.58249C140.858 1.58249 140.353 1.58249 139.748 1.58249V0ZM143.484 1.58249V0C143.988 0 144.493 6.03521e-06 145.099 0.098911V1.6814C144.493 1.6814 143.988 1.68139 143.484 1.58249Z" fill="#046363"/>
<path fill-rule="evenodd" clip-rule="evenodd" d="M140.4 130.3L140.5 151.1H169.7V151.2C169.5 151.6 169.4 152 169.2 152.4C166 160 160 166.1 152.3 169.3C144.6 172.5 148.5 171.9 113.2 171.9H99C108.8 184.8 124.1 192.4 140.4 192.4C165 192.4 186.2 175.2 191.2 151.1V151C191.9 147.5 192.3 144 192.3 140.4V130.3H140.4V130.3Z" fill="#C29E6C"/>
<path fill-rule="evenodd" clip-rule="evenodd" d="M68.5 151.2C69.4 157.1 71 162.9 73.2 168.3C73.7 169.5 74.3 170.7 74.8 171.9C86.9 197.1 112.4 213.2 140.4 213.2C168.4 213.2 193.9 197.2 206 172C206.6 170.8 207.1 169.6 207.6 168.4C209.9 162.9 211.5 157.1 212.3 151.3V151.2C212.8 147.7 213.1 144.2 213.1 140.6V130.4H233.9V140.6C233.9 144.1 233.7 147.7 233.3 151.2V151.3C232.5 158.3 230.9 165.3 228.5 172C228 173.5 227.4 174.9 226.8 176.3C213.8 207.8 184.6 229.7 150.8 233.4C150.8 233.4 146.1 234 140.5 234C134.7 234 130.1 233.4 130.1 233.4C96.3 229.6 67.1 207.8 54.1 176.3C53.5 174.9 53 173.4 52.4 172C50 165.3 48.4 158.3 47.6 151.2V151.1C47.2 147.7 47 144.2 47 140.7C47 137.2 47.2 133.8 47.6 130.3V130.2H89.6C94.5 106 115.8 88.6 140.5 88.6C147 88.6 153.4 89.8 159.5 92.2L175.1 76.5C164.8 70.9 153.2 67.9 141.4 67.8H138.7C111.2 68.4 86.4 84.6 74.6 109.4H52.2C52.8 107.8 53.4 106.2 54 104.7C67 73.2 96.2 51.3 130 47.6C130 47.6 135.3 47 140.4 47C146.2 47 150.8 47.6 150.8 47.6C171.9 49.9 191.6 59.4 206.5 74.4L199.1 81.8L191.7 89.2L177 103.9L171.3 109.6L169.7 111.2L162.3 118.6C157.1 113.4 150.2 110.2 142.9 109.6H137.7C126.1 110.6 116 118 111.5 128.7C111.3 129.2 111.1 129.8 110.9 130.4V130.5C109.8 133.8 109.2 137.2 109.2 140.7C109.2 144.3 109.8 147.9 111.1 151.3V151.4L68.5 151.2Z" fill="#C29E6C"/>
</svg>
