<?xml version="1.0" encoding="utf-8"?>
<!-- Generator: Adobe Illustrator 25.0.0, SVG Export Plug-In . SVG Version: 6.00 Build 0)  -->
<svg version="1.1" id="Layer_1" xmlns="http://www.w3.org/2000/svg" xmlns:xlink="http://www.w3.org/1999/xlink" x="0px" y="0px"
	 viewBox="0 0 141.7 141.7" style="enable-background:new 0 0 141.7 141.7;" xml:space="preserve">
<style type="text/css">
	.st0{fill:#F0F0F0;}
	.st1{fill:#D80027;}
	.st2{fill:#0052B4;}
	.st3{fill:#FFDA44;}
</style>
<g>
	<path class="st0" d="M81.9,61.6h24.6c-0.8-3.2-2.1-6.3-3.8-9.2H81.8L81.9,61.6L81.9,61.6z"/>
	<path class="st0" d="M71.5,107.7h-0.9C70.9,107.7,71.2,107.7,71.5,107.7z"/>
	<path class="st0" d="M81.9,73.7H34.1c0.2,2.2,0.5,4.3,1.1,6.4h71.4c0-0.1,0.1-0.2,0.1-0.3c0.7-3,1.1-5.9,1.1-8.9H82v2.8H81.9z"/>
	<path class="st0" d="M46.4,98.5h48.8c3-2.6,5.5-5.7,7.5-9.2H38.8C40.9,92.7,43.4,95.9,46.4,98.5z"/>
	<path class="st0" d="M95.2,43.2c-3.8-3.3-8.3-5.9-13.3-7.5v7.5H95.2z"/>
	<path class="st1" d="M81.9,52.4h20.9c-2-3.4-4.5-6.6-7.5-9.2H82L81.9,52.4L81.9,52.4z"/>
	<path class="st1" d="M81.9,70.9h25.8c0-3.1-0.4-6.2-1.2-9.2H81.9L81.9,70.9L81.9,70.9z"/>
	<path class="st1" d="M38.9,89.3h63.9c1.6-2.8,2.9-5.9,3.8-9.2H35.2C35.9,83.3,37.2,86.4,38.9,89.3z"/>
	<path class="st1" d="M62,106.7c2.9,0.7,5.8,1.1,8.6,1.1h0.9c8.9-0.2,17.3-3.5,23.7-9.2H46.4C50.7,102.3,56,105.2,62,106.7z"/>
	<path class="st2" d="M46.4,43.2h3.5c1.1-0.4,2.3-0.6,3.6-0.6s2.4,0.2,3.6,0.6h24.8v-7.5c-0.7-0.2-1.5-0.4-2.2-0.6
		C67.5,32.1,55.2,35.5,46.4,43.2z"/>
	<path class="st2" d="M63.2,53.4l2.9,2.3l-3.7,0.8v3.8L59.5,58l-2.9,2.3v-3.8l-3.7-0.8l2.9-2.3l-0.4-0.9h-7.5
		c-0.1,0.5-0.1,0.9-0.1,1.4c0,3.3,1.8,6.2,4.4,7.8h29.6v-9.2H63.6L63.2,53.4z"/>
	<path class="st2" d="M42.3,53.8c0-0.5,0-0.9,0.1-1.4h-3.5c-1.6,2.8-2.9,5.9-3.8,9.2h10.3C43.5,59.6,42.3,56.9,42.3,53.8z"/>
	<path class="st2" d="M81.9,70.9H34c0,0.9,0,1.9,0.1,2.8h47.8L81.9,70.9L81.9,70.9z"/>
	<path class="st2" d="M49.9,43.2h-3.5c-3,2.6-5.5,5.7-7.6,9.2h3.5C42.9,48.1,45.9,44.6,49.9,43.2z"/>
	<path class="st2" d="M57,44.7c-4.6,0-8.3,3.3-9,7.7h7.5l-1.2-2.5l3.7,0.8l1.6-3.4l1.6,3.4l3.6-0.8l-1.2,2.5h18.2v-9.2H57
		c1.6,0.5,3.1,1.4,4.3,2.6C60,45.1,58.6,44.7,57,44.7z"/>
	<path class="st2" d="M81.9,61.6H52.3c1.4,0.8,3,1.3,4.7,1.3c1.6,0,3-0.4,4.3-1.1c-2,2-4.8,3.2-7.8,3.2c-3.2,0-6-1.3-8-3.4H35.2
		c0,0.1-0.1,0.2-0.1,0.4c-0.7,3-1.1,5.9-1.1,8.9h47.9L81.9,61.6L81.9,61.6z"/>
	<path class="st3" d="M47.9,53.8c0-0.5,0-0.9,0.1-1.4h-5.6c-0.1,0.5-0.1,0.9-0.1,1.4c0,3,1.2,5.8,3.2,7.8h6.9
		C49.7,60.1,47.9,57.2,47.9,53.8z"/>
	<path class="st3" d="M53.5,42.6c-1.3,0-2.4,0.2-3.6,0.6H57C55.9,42.8,54.7,42.6,53.5,42.6z"/>
	<path class="st3" d="M42.4,52.4H48c0.7-4.4,4.4-7.7,9-7.7c1.6,0,3,0.4,4.3,1.1c-1.2-1.2-2.7-2.1-4.3-2.6h-7.1
		C45.9,44.6,42.9,48.1,42.4,52.4z"/>
	<path class="st3" d="M53.5,65.1c3,0,5.8-1.2,7.8-3.2C60,62.6,58.5,63,57,63c-1.7,0-3.3-0.5-4.7-1.3h-6.9
		C47.5,63.8,50.3,65.1,53.5,65.1z"/>
	<polygon class="st3" points="53,55.7 56.7,56.5 56.6,60.3 59.6,57.9 62.5,60.3 62.5,56.5 66.1,55.7 63.2,53.4 63.6,52.4 55.5,52.4 
		55.9,53.4 	"/>
	<polygon class="st3" points="64.8,50 61.2,50.8 59.6,47.4 58,50.8 54.3,50 55.5,52.4 63.6,52.4 	"/>
</g>
</svg>
