<?xml version="1.0" encoding="utf-8"?>
<!-- Generator: Adobe Illustrator 25.0.0, SVG Export Plug-In . SVG Version: 6.00 Build 0)  -->
<svg version="1.1" id="Layer_1" xmlns="http://www.w3.org/2000/svg" xmlns:xlink="http://www.w3.org/1999/xlink" x="0px" y="0px"
	 viewBox="0 0 141.7 141.7" style="enable-background:new 0 0 141.7 141.7;" xml:space="preserve">
<style type="text/css">
	.st0{fill:#E5280E;}
	.st1{fill:#FDCF10;}
</style>
<g>
	<g>
		<path class="st0" d="M35.1,62C40,42.2,60,30.2,79.8,35.1s31.8,24.9,26.9,44.7s-24.9,31.8-44.6,26.9C42.3,101.8,30.2,81.8,35.1,62"
			/>
	</g>
	<path class="st1" d="M73.2,69.7l-1.7,2.1l-2.5-1l1.4,2.3l-1.7,2.1l2.6-0.7l1.4,2.3L73,74l2.6-0.7l-2.5-1L73.2,69.7z M83.2,64h-2.7
		l-0.8-2.6L78.9,64h-2.7l2.2,1.6l-0.8,2.6l2.2-1.6l2.2,1.6l-0.8-2.6L83.2,64z M78.8,54.1l0.4,2.7l1.2-2.4l2.7,0.4l-1.9-1.9l1.2-2.4
		L80,51.7l-1.9-1.9l0.4,2.7l-2.4,1.2L78.8,54.1z M73.2,41.8l-1.7,2.1l-2.5-1l1.4,2.3l-1.7,2.1l2.6-0.7l1.4,2.3l0.2-2.7l2.6-0.7
		l-2.5-1L73.2,41.8z M54.4,53.6l-2.5-7.8l-2.5,7.8h-8.2l6.6,4.8l-2.5,7.8l6.6-4.8l6.6,4.8L56,58.4l6.6-4.8
		C62.6,53.6,54.4,53.6,54.4,53.6z"/>
</g>
</svg>
