<?xml version="1.0" encoding="utf-8"?>
<!-- Generator: Adobe Illustrator 25.0.0, SVG Export Plug-In . SVG Version: 6.00 Build 0)  -->
<svg version="1.1" id="Layer_1" xmlns="http://www.w3.org/2000/svg" xmlns:xlink="http://www.w3.org/1999/xlink" x="0px" y="0px"
	 viewBox="0 0 141.7 141.7" style="enable-background:new 0 0 141.7 141.7;" xml:space="preserve">
<style type="text/css">
	.st0{fill:#006823;}
</style>
<path class="st0" d="M59.7,53.5c0.1,0,0.2-0.2,0.1-0.4c-0.1-0.2-0.3-0.3-0.4-0.3l0,0c-0.2,0-0.2,0.2-0.1,0.4S59.6,53.5,59.7,53.5z"
	/>
<path class="st0" d="M72,61.2c0.2,0.1,0.5,0.1,0.6,0l0,0l0,0l0,0l0,0l0,0l0,0c0-0.1-0.1-0.3-0.3-0.4c-0.1-0.1-0.3-0.1-0.4-0.1
	s-0.1,0-0.1,0l0,0l0,0l0,0l0,0l0,0C71.7,60.9,71.8,61.1,72,61.2z"/>
<path class="st0" d="M75.2,54.2c-0.2,0.1-0.8-0.1-0.3,0.5c0.1,0.1,0.3,0.3,0.5,0.7c-0.1-0.3-0.1-0.5-0.2-0.8
	C75.3,54.4,75.2,54.3,75.2,54.2z"/>
<path class="st0" d="M51.8,61.8c-0.1,0-0.2,0.1-0.3,0.1l0,0l0,0c-0.1,0.1-0.2,0.3-0.2,0.5c0.1,0.2,0.2,0.2,0.4,0.2s0.4,0,0.4,0l0,0
	c0.1-0.1,0.1-0.3,0.1-0.5C52.1,61.9,52,61.8,51.8,61.8z"/>
<path class="st0" d="M69.3,65.4c-0.8-0.1-1.6-0.1-2.2-0.2l0,0c0,0,0,0-0.1,0c-0.4,0-0.6,0.3-0.6,0.6c0.1,1.3,1.1,1.9,1.5,2.2
	c0.1,0.1,0.3,0.2,0.5,0.2l0,0l0,0l0,0l0,0l0,0l0,0c0.1-0.1,0.1-0.3,0-0.7c0-0.8,0.5-1,1.1-1.2C70.2,65.9,69.9,65.4,69.3,65.4z"/>
<path class="st0" d="M79.7,35.1C60,30.2,40,42.2,35.1,62s7.2,39.8,26.9,44.7c19.8,4.9,39.8-7.2,44.6-26.9
	C111.6,60,99.5,40,79.7,35.1z M94.8,53.7c0.5,0.2,0.8,1.6,0.7,2c-0.1,0.7-0.4,1.5-0.6,1.4s0-1.1-0.1-1.4c-0.1-0.4-0.8-1.2-0.7-1.5
	C94.1,53.8,94.5,53.6,94.8,53.7z M87.3,52.1c0.1-0.6,0.3-0.3,0.6-0.1c0.6,0.5,0.8,0.7,1.5,1.4c0.8,1-1-0.1,0.2,1.2
	c0,0,0.1,0.1,0.2,0.2c0-0.1,0-0.2,0-0.3c0-0.6-0.2-1.3-0.2-1.9c0-0.4,0.2-0.6,0.4-0.8c0.2-0.3,0.3-0.2,0.5,0c0.5,0.9,1,1.8,1.5,2.7
	c0.1,0.2,0,0.5-0.2,0.5c-0.1,0-0.1,0-0.3-0.2c-0.1,0-0.1,0-0.1,0.2c0.1,0.3,0.1,1.8,0.1,1.8s0,0.2,0.1,0.4c0.5,0.8,1.1,1.6,1.5,2.3
	c-0.2-1.8-0.6-3.7-0.9-5.5c-0.1-0.7-0.3-1.5,0.1-1.8c0.4-0.5,0.7-0.6,0.8-0.3c0.5,0.7,1.4,3.1,1.2,3.3c-0.1,0.2-0.4,0-0.5,0.2
	c0,0.1,0.1,1,0.2,1.3c0.2,0.8,0.3,1.7,0.4,2.3c0.1,0.4,0.2,1.7,0.4,2.9c0.6,0.9,1.5,2,2.1,3.1c0.2,0.3,0.4,2.4,0,2.6
	c-0.6-1.1-1.2-2.2-1.9-3.2c0,0.5,0,1.1,0,1.7c0,0.7-1.4,2.2-1.3,1.9c0.1-1.9,0-3.9-0.2-5.9c-0.4-0.6-0.9-1.3-1.3-1.9
	c0.1,2.3,0.2,6.4-0.1,7.2c-0.3,0.7-0.6,1-1,1.3c-0.7,0.5-1.4,0.4-2-0.1c-0.4-0.2-0.6-0.4-0.9-0.8c-0.2-0.3-0.8-0.4-1,0.2
	c-0.3,0.3-0.3,2-0.9,2.6c-0.3,0.3-0.8,0.6-1.4,0.1c-0.7-0.3-1-0.8-1.3-1.5c-0.2-0.4-0.7-2.4,0.4-3.6c0,0,0,0,0-0.1l0,0
	c-0.1,0.3-0.4,2.1,0.6,3.4c0.5,0.5,0.9,0.3,1,0c0.6-1.1,1-2.6,1.8-3.5c0.3-0.3,0.6-0.4,1,0c0,0,0.8,1.3,1.1,1.4c0.3,0.3,0.7,0,0.7,0
	c0.3-0.1,0.6-1.4,0.6-2.4c-0.2-2.3-0.2-4.4-0.4-6.7c-0.9-1.1-1.7-2.2-2.5-3.2c-0.2-0.3-0.5-0.8-0.5-1C87.2,53.2,87.3,52.6,87.3,52.1
	z M89.3,64.5c-0.1-0.4-0.5-1.2-0.5-1.5c-0.2-0.5,0.3-0.8,0.6-0.7c0.5,0.2,0.7,1.7,0.6,2.1c0,0.8-0.5,1.4-0.7,1.3
	C89.2,65.7,89.4,64.9,89.3,64.5z M89.8,61.4c0.1,0.2-2.8,2.2-3,2.1c-0.1,0.1-0.3-0.8,0-1c0.1-0.1,2.9-2.1,2.9-2.1
	C90,60.3,89.9,61.4,89.8,61.4z M86.1,57.7c0.2-0.1,0.5-0.3,0.8-0.1c0,0,0.2,0.3,0.2,0.4c0.3,0.1,0.4,0.1,0.5-0.1
	c0-0.2-0.1-0.4-0.1-0.6c0.1-0.6,0.9-0.8,1.2-0.3c0.2,0.3,0.3,0.8,0.3,1.2c0,0.2-0.3,0-0.5,0s-0.2,0.2-0.2,0.4c0,0.5-0.1,1.2-0.1,1.8
	c-0.6,0-1.8-1.1-2.1-1.7C85.9,58.3,86,57.9,86.1,57.7z M83,52.1c0.4-0.5,0.3-0.2,0.5,0.1c0.3,0.7,1.2,1.9,1.5,2.7
	c0.1,0.7-0.9-0.3-0.7,0.8c0.2,0.6,1,7,1.1,7.7c0,0.8,0.2,1.6,0.1,2.9c-0.2,1-0.7,1.9-1.1,1.9c0.2-4.5-0.8-8.7-1.7-13.4
	C82.5,54.2,82.7,53.2,83,52.1z M80.7,52.3c0.3-0.6,0.3-0.4,0.5,0c0.4,0.7,1.2,2.5,1,2.7c-0.1,0.2-0.4,0.1-0.5,0.2
	c0,0.1-0.1,0.4,0,0.7c0.6,3,0.9,6.3,0.8,10.5c0,0.7-0.5,1.6-0.8,2.1c-1,1.9-2.1,2.6-3.4,2.7c-0.8,0-1.3-0.8-1.2-1
	c1.5-0.6,3-1.9,3.9-2.8c0.3-0.2,0.3-0.8,0.3-1.2c-0.4-4.1-0.6-7.8-1.2-11.9C80.2,53.5,80.4,52.7,80.7,52.3z M78.6,52.1
	c0.5,0.2,0.9,1.3,0.8,1.9c-0.1,0.7-0.4,1.4-0.6,1.3s0.1-0.7-0.1-1.3c-0.1-0.4-0.9-1.1-0.8-1.3C77.8,52.2,78.2,52,78.6,52.1z
	 M78.2,56.4C78.3,56.4,78.3,56.4,78.2,56.4l0.1,0.3c0,0.1,0,0.1,0.1,0.1s0,0,0.1,0s0.1,0,0.1-0.1s0-0.2,0-0.2c0.1-0.1,0-0.1,0.1-0.1
	s0.1,0,0.1,0l0.1,0.2c0,0.3,0.2,0.3,0.2,0.2c0.1,0,0-0.2,0-0.3c0.1-0.3,0.4-0.4,0.5-0.1c0,0.1,0,0.4,0,0.5c0,1-1.1,1.1-1.7,0.8
	c-0.5-0.2-0.4-0.9-0.4-0.9C77.8,56.8,77.9,56.4,78.2,56.4z M72.2,51.9c0.1-0.6,0.8-0.2,1.1,0c0.6,0.5,0.6,0.5,1.3,1.1
	c0.2,0.2,0.3,0.4,0.4,0.6c-0.1-0.4-0.1-0.9,0.2-1.4c0.4-0.5,0.4-0.4,0.6-0.1c0.8,1.1,1.5,1.9,1.7,3.1c0.1,0.7-0.6-0.6-0.4,0.6
	c0.1,0.3,0.2,1.3,0.3,2.4c0.5,0.8,1,1.5,1.1,1.7c0.4,0.7,1.5,2.5,2.4,4.3c0.2,0.3,0.3,2.5-0.1,2.7c-1.1-2.1-2.1-4-3.2-5.8
	c0,0.4,0,0.8,0.1,1.2c0,0.8,0.2,3.8,0.1,5.2c-0.2,1-0.9,1.7-1.3,1.7c0.1-2.4,0.1-5.2-0.1-7.5c-0.1-1-0.2-2.1-0.3-3.1
	c-1-1.4-1.9-2.8-3-4.2c-0.2-0.3-0.7-0.8-0.7-1.1C72.2,52.7,72.2,52.4,72.2,51.9z M72.9,69.1c-0.2,0.1-0.4,0.2-0.4,0
	c-0.1-0.2-0.1-0.2,0.1-0.3c0.2-0.3,0.8-0.7,0.8-0.7c0.3-0.1,0.6,0.1,0.5,0.1c0,0.3-0.2,0.5-0.1,0.9c0.1,0.1,0.1,0.3,0.4,0.2
	c0.5-0.4,0.9-0.4,1.3-0.4c0.3,0,0.4,0.6,0.1,0.6c-0.8,0.2-1.2,0.4-1.8,0.6c-0.3,0.2-0.5,0-0.5-0.1c0,0-0.2-0.2,0-0.5
	C73.3,69.2,73.2,69.1,72.9,69.1z M75.3,66.1c-1.6,0.5-3.2,0.7-4.9,0.9c-0.6,0.3-0.9,0.7-0.8,1.1c0.2,0.5,1.4,0.9,1.5,1
	c0.2,0.1,0.5,0.5-0.1,1.2c-2.6-0.1-4.6-1.2-5.3-2.8c-0.2-0.2-0.4,0-0.6,0.2c-1,1.3-2,2.5-3.7,3.1c-1,0.3-2.1-0.2-2.6-0.8
	c-0.3-0.4-0.3-0.8-0.4-0.9l0,0c-0.6,0.2-5.3,2.3-4.7,1.3c1.2-1.2,3.2-2.2,5-3.4c0.1-0.4,0.4-1.8,1.1-2.3l0,0l0,0l0,0
	c0,0.1-0.1,0.8-0.1,1.1c0,0.2,0,0.3,0,0.3l0,0l0,0l0,0l0,0l0,0l0,0c0.1-0.1,2.3-1.8,2.4-2.3c0.2-0.3,0.1-1,0.1-1.1
	c-0.4-1-1-1.1-1.2-1.6c-0.2-0.7-0.1-1.5,0.3-1.7c0.3-0.3,0.8-0.3,1.1,0.1c0.4,0.4,0.8,1.1,0.9,1.7c-0.1,0.2-0.5-0.1-0.7,0l0,0
	c0.3,0.3,0.4,0.7,0.5,1.1c0.3,1.2,0.2,1.7-0.1,2.4c-1,2-2.2,2.6-3.3,3.4l0,0l0,0c0,0.1,0,0.5,0.4,0.8c0.1,0.2,0.7,0.2,1.4,0
	c1.3-0.7,2.6-2,3.2-3.4c0.2-1.1-0.1-2.2-0.3-3.2c-0.4-1-0.9-2.3-0.9-2.4c0-0.6,0-0.8,0.3-1.1c0.1-0.1,0.2-0.2,0.3-0.3l0,0l0,0l0,0
	l0,0l0,0c0.1,0,0.2,0.1,0.5,0.4c0.8,1.3,1.3,3,1.3,4.5c0,0.3,0.1,0.5,0.3,0.5l0,0l0,0l0,0l0,0l0,0l0,0l0,0c0.1-0.9,2.2-2.1,4.2-2.3
	c0.3-0.1,0.2-0.6,0.2-0.9c-0.1-1.1,0.6-2.1,1.6-2.1c1.4,0.2,1.8,0.9,1.9,2.1c-0.2,2.2-2.4,2.5-3.7,2.7c-0.1,0-0.1,0.1-0.2,0.1l0,0
	l0,0l0,0l0,0l0,0l0,0l0,0l0,0l0,0c0,0,0.1,0,0.1,0.1h5.3l0.3,0.2l0,0l0,0l0,0c0,0-0.1,0.1-0.3,0.3C75.6,64.8,75.3,65.6,75.3,66.1z
	 M57.8,65.4c0-0.5-0.7-0.8-0.7-1.1c-0.1-0.4,0.3-0.5,0.6-0.5c0.5,0.2,0.8,1.2,0.7,1.5c-0.1,0.5-0.3,1.1-0.5,1
	C57.7,66.3,57.9,65.6,57.8,65.4z M67.8,59.5C67.9,59.5,67.9,59.5,67.8,59.5l0.1,0.3c0,0,0,0.1,0.1,0.1s0,0,0.1,0s0.1,0,0.1-0.1
	s0-0.2,0.1-0.2c0-0.1,0-0.1,0.1-0.1s0.1,0,0.1,0c0,0.1,0.1,0.2,0.1,0.2c0,0.3,0.2,0.3,0.2,0.2c0.1-0.1,0-0.2,0-0.3
	c0.1-0.3,0.4-0.4,0.5-0.1c0,0.1,0,0.4,0,0.5c0.3,0.9-1.1,1.1-1.7,0.8c-0.5-0.2-0.4-0.9-0.4-0.9C67.4,59.9,67.4,59.5,67.8,59.5z
	 M66.2,51.9c0.3-0.7,0.7-0.7,0.8-0.1c0,0.4,0,0.8-0.4,1.8c-0.2,0.5-0.8,0.3-0.7-0.1C65.9,53.6,66.1,52.2,66.2,51.9z M62.1,52.8
	c0-0.7,0.6-1.2,0.8-1.4c0.4-0.2,0.4,0,0.4,0.3c-0.3,0.4-0.6,0.6-0.5,1c0.1,0.5,0.6-0.1,0.5,0.3c-0.1,0.2-0.1,0.3-0.3,0.5
	c-0.3,0.2-0.5,0.2-0.7,0C62,53.1,62.1,53.1,62.1,52.8z M61.1,53.3c0.6-0.6,0.6,2.9,1.1,3.3c0.2,0.3,0.5,0.6,0.7-0.3
	c0.3-1.1,0.7-2.6,1.7-3.4c0.2-0.2,0.7-0.4,0.9,0.2c0.2,0.3,0.1,2,0.1,3c0.1,0.6,0.4,0.7,0.7,0.9c0.3,0.2,0.7,0.3,1.1-0.1
	c0.3-0.3,0.3-0.4,0.5-0.8c0.1-1.1,0-2.1-0.3-2.8c-0.4-1,0.1-1.5,0.3-1.8c0.4-0.8,0.6-0.3,0.8,0.1c0.5,0.8,0.3,2.4,0.5,3.6
	c0.2,1.5,0.6,1.7,0.9,1.7c0.6,0.1,0.9-0.5,0.9-0.5c0.2-1.1-0.4-1.9-0.7-2.5c-0.4-0.5-0.4-0.9-0.3-1.2s0-0.6,0.3-0.9
	c0.5-0.4,0.9-0.3,1.2,0c0.4,0.4,1,1.3,0.8,1.6c-0.1,0.3-0.4,0.2-0.6,0.2c-0.3,0,0,0.8,0,0.8c0.2,0.5,0.2,1.2,0.5,1.7
	c0.3,0.4,0.8,0.2,1.1,0.2c0.2-0.1,0.2-0.2,0.5-0.3c0.2-0.1,0.4-0.1,0.4,0.3c0,0-0.4,1.2-1,1.5c-0.2,0-0.2,0.2-0.5,0
	c-0.2-0.3,0.1-0.5,0.1-0.6s-0.4-0.2-0.6,0.1c-0.2,0.2-0.2,0.4-0.5,1c-0.2,0.4-1.3,0.6-1.8,0.4c-0.6-0.3-0.5-0.7-0.8-1
	c-0.3-0.2-0.5-0.2-0.7,0c0,0-0.8,0.8-0.9,0.9c-0.1,0.1-1,0.8-2.2,0c-0.5-0.6-0.7-1-0.6-3c-0.1-0.2-0.2-0.2-0.5,0.2
	c-0.3,1.5-0.8,2.9-1.5,2.6C61.6,58.8,60.2,55.9,61.1,53.3z M55.9,56.9L55.9,56.9L55.9,56.9c0.1-0.3,2.4-1.9,3.3-2.8
	c0.2-0.2-0.1-0.5-0.4-0.6c-0.3-0.4-0.2-1,0.2-1.4c0.1-0.1,0.3-0.1,0.5-0.1s0.4,0,0.7,0.1c0.3,0.3,0.5,1.1-0.1,1.4
	c-0.1,0.1-0.1,0.2,0,0.3s0.2,0.2,0.3,0.3c0,0-2.3,2.7-2.8,2.9l0,0l0,0C57.5,57,56.1,57,55.9,56.9L55.9,56.9L55.9,56.9L55.9,56.9
	L55.9,56.9z M59.2,57.7c0.1,0.2,0.1,0.2,0.4,0.2c0.6-0.6,0.6-0.3,0.6-0.3s-0.3,1.1-0.8,1c-0.1,0-0.6,0.2-0.9-0.3s-0.1-1.4,0.4-1.7
	c0.3-0.2,0.5-0.1,0.4,0.2C59.2,57.1,59.2,57.4,59.2,57.7z M49.8,52C49.9,52,49.9,52,49.8,52c0.1,0.2,0.1,0.3,0.1,0.3s0,0.1,0.1,0.1
	s0,0,0.1,0s0.1,0,0.1-0.2c0-0.1,0-0.2,0-0.2c0.1-0.1,0.1-0.1,0.1-0.1c0.1,0,0.1,0,0.1,0c0,0.1,0.1,0.1,0.1,0.2
	c0,0.3,0.2,0.3,0.2,0.2c0.1,0,0-0.2,0-0.3c0.1-0.3,0.4-0.4,0.5-0.1c0,0.1,0,0.4,0,0.5c0,1-1.1,1.1-1.7,0.8c-0.5-0.2-0.4-0.9-0.4-0.9
	C49.5,52.3,49.5,52,49.8,52z M45,51.8c0.7,0.2,0.7,1.2,0.7,1.5c-0.1,0.5-0.4,1.2-0.5,1.1c-0.2-0.1,0-0.8-0.1-1
	c-0.1-0.3-0.7-0.9-0.6-1.1C44.2,51.9,44.7,51.7,45,51.8z M43.2,54.8c0.5-0.5,0.6,1.7,0.9,2.6c0.3,1.2,0.8,0.8,0.8,0.1
	c0.1-0.6,0.2-1.3,0.2-1.3c0.2-1.3,0.9-2.1,1.2-2.1c0.4-0.1,0.5,0,0.7,0.4s0.2,1.9,0,2.8c0,0.7,0.8,1.6,0.8,0.1
	c-0.2-1.1-0.2-2-0.5-3.1c-0.1-0.6-0.1-1.3,0-1.9c0.2-0.3,0.5-0.5,0.8-0.1c0.4,0.4,0.5,1.8,0.6,2.5c0,0.5,0.1,1.7,0.3,2.5
	c0.2,0.4,0.4,0.5,0.5,0.1c0.1,0-0.2-0.4-0.4-1c-0.3-0.6-0.5-2.1-0.1-2.8c0.1-0.2,0.4-0.2,0.7,0c0.2,0.4,0.5,0.6,0.6,1.1
	c0.1,0.4,0.3,0.6,0.1,2.1c0,0.1,0.9,0.8,0.9,0.8c0.3,0.3,0.6,0.4,0.9,0.2c0.1-0.5-0.1-1-0.2-1.3c-0.6-0.8-1-1.8-0.9-2.6
	c0.2-0.7,0.8-0.8,1.2-0.5c0.5,0.3,0.8,0.8,1,1.5c-0.1,0.3-0.4,0.3-0.6,0c0,0.2,0.2,0.5,0.2,0.7c0.3,0.8,0.4,1.6,0.5,2.4
	c0,0.9-0.7,1.4-1.8,1.7c-0.7,0.2-0.9-0.2-1.4-0.6c-0.3-0.2-0.7-0.1-0.7,0.2c-0.2,0.3,0.2,1.8,0.1,3.5c0,2.9-1.1,2.6-1.1,2.6
	c-0.1-1.6-0.1-3.1-0.2-4.7c-0.2-0.5-0.5-0.5-1-0.4c-0.4-0.2-1-0.4-1-1.3v-2.7c0-0.4-0.2-0.4-0.4-0.1c-0.6,0.6,0.3,3.8-1.5,3.6
	C42.9,59.6,43.1,56.5,43.2,54.8z M48.1,61.9c-1.6,0.8-3.1,1.5-4.7,2.2c0.1-1.1,2.2-3,3.7-3C48.1,61.2,47.8,61.5,48.1,61.9z
	 M44.1,70.8c-0.3,0.1-0.7,0-1-0.3c-0.5-0.6-0.4-2.7,0.5-4.1c0.2-0.2,0.3-0.4,0.2,0.2s-0.2,1.4-0.1,2.2c0,0.4,0.2,1,0.6,0.2
	c0.2-0.2,0.3-0.2,0.5,0.1C44.9,69.4,44.7,70.5,44.1,70.8z M45.7,68.1c0-0.7,0-0.8,0.1-1.5c0.1-0.8,0.4-1.3,0.7-1.1
	c0.1,0.1,0.2,0.3,0.2,0.7c0,0.6,0.1,1.7,0.4,2.1c1.1,2,7.2,1.5,7.4-4.7c0-0.1-0.1-0.2-0.1-0.2c-0.1,0-0.3,0.2-0.4,0.3
	c-0.9,6.9-9.1,6-6.6-0.3c0.8-0.6,0.5,1.9,0.8,2.5c0.5,1,1.5,0.9,2.8,0.3c2.1-1.1,2.2-2.5,2.1-2.7c-0.2-0.1-0.5,0.3-1,0.5
	c-0.5,0.1-1.2,0.2-1.7-0.4c-0.2-0.5-0.1-1.2,0-1.8c0.1-0.8,0.9-1.5,1.7-1.5c1,0,1.1,0.8,1.7,1.2c0.3,0,0.6-0.4,0.5-0.7
	c-0.5-2.7-0.7-4.8-1.2-7.5c-0.1-0.6,0.2-1,0.6-1.1c0.1,0,0.2-0.1,0.3-0.1h0.1c0,0,0,0,0.1,0l0,0l0,0c0,0,0,0,0,0.1l0,0
	c0.3,0.2,1,2.1,1.3,3c-0.3,0.4-0.6,0.1-0.9,0.1c0.2,1.8,0.5,3.5,0.7,5.2c0.7-0.4,1.1-0.3,1,0.6c0.1,0.4,0.6,0.3,1,0.1
	c0.5-1.3,1.2-1.2,1.4-0.4c0,0.2,0.3,0.2,0.4,0.2c0,0,0.1,0,0.1-0.1l0,0c0-0.2,0.1-0.5,0.1-0.7c0,0,0-0.1,0.1-0.1
	c0.1-0.1,0.5-0.2,0.8-0.3c0,0.8-0.1,1.6-0.3,2.3c-0.2,0.8-1.3,1-1.9,0.5c-0.2-0.2-0.4-0.1-0.5,0c-0.2,0.3-1.3,1-2.1,0.2l0,0l0,0l0,0
	l0,0c-0.2,0.2,0.4,1.8-0.2,3.9C53.9,70.9,46,73.1,45.7,68.1z M90.3,90.2c-0.4,0-0.6-0.2-0.8-0.5c-0.3,0.1-3.6,0-4.2,0
	c-0.1,0.2-0.3,0.5-0.7,0.4l0,0l0,0l0,0c-0.3-0.2-0.7-1.3-0.3-2c-5.5,0-24.6,0-28.7,0c-2.2,0-3.9-0.4-5-2.1c0.1,0,5.5,0.2,7.2,0.2
	c3.1,0,17.3,0.2,26.6,0.2c-0.6-0.4-0.6-1.3,0.3-1.5l0,0l0,0l0,0c0,0.1,0.1,0.3,0.1,0.4l0,0l0,0l0,0l0,0l0,0c0.2,0,0.2,0,0.3,0.1
	c0.3,0.2,0,0.9-0.1,1c1.3,0,2.2,0.1,3.4,0.2c0,0,1-0.1,1.4-0.2c1.5-0.1,1.6,2.2,1.6,2.2C91.5,90,91,90.1,90.3,90.2z M92,71
	c-0.3-0.1-0.2-0.3-0.1-0.5c0.2-0.2,0.3-0.3,0.5-0.5s0.1-0.4,0-0.5C92.2,69.4,92,69.4,92,69c0-0.2,0.1-0.3,0.3-0.3
	c0.3,0,0.5-0.1,0.8,0s0.4,0.2,0.3,0.4c-0.1,0.2-0.1,0.3-0.2,0.4c-0.1,0.2,0.2,0.3,0.2,0.3c0.2,0,0.4-0.1,0.5,0.1
	c0,0,0.1,0.3-0.1,0.4C93.7,70.3,92.5,71.1,92,71z M97.6,55.9c0.6,3,0.8,7.1,0.7,11.3c0,0.7-0.3,1.9-0.6,2.3c-1,1.5-2.5,1.6-3.8,1.8
	c-0.7,0-0.7-0.6,0.2-1.1c0.3-0.2,1.2-0.5,1.5-0.8c0.4-0.3,0.8-0.9,1.2-1.4c0.2-0.5,0.2-0.7,0.2-1.1c-0.1-4-0.6-8.3-1.3-12.8
	c-0.1-0.7,0-1.5,0.3-2c0.3-0.6,0.3-0.3,0.5,0c0.5,0.7,1.7,2.3,1.5,2.5c-0.1,0.2-0.5,0-0.6,0.2C97.5,54.9,97.6,55.6,97.6,55.9z"/>
<path class="st0" d="M85.3,88.1c-0.2,0.1-0.2,0.5-0.1,0.7c0.6,0,1.1,0.1,1.7,0l0,0l0,0l0,0l0,0l0,0c0.2-0.2,0.9-0.3,1,0
	c0,0,0,0,0,0.1c0.4,0,0.7,0,1.1,0l0,0l0,0l0,0c0.2-0.1,0.2-0.5,0-0.7C87.9,88.2,86.6,88.2,85.3,88.1z"/>
</svg>
