<?xml version="1.0" encoding="utf-8"?>
<!-- Generator: Adobe Illustrator 25.0.0, SVG Export Plug-In . SVG Version: 6.00 Build 0)  -->
<svg version="1.1" id="Layer_1" xmlns="http://www.w3.org/2000/svg" xmlns:xlink="http://www.w3.org/1999/xlink" x="0px" y="0px"
	 viewBox="0 0 141.7 141.7" style="enable-background:new 0 0 141.7 141.7;" xml:space="preserve">
<style type="text/css">
	.st0{fill:#1E336A;}
	.st1{fill:#F5F2EC;}
	.st2{fill:#E5280E;}
</style>
<path class="st0" d="M35,62c4.9-19.8,24.9-31.9,44.7-27c19.8,4.9,31.9,24.9,27,44.7c-4.9,19.8-24.9,31.9-44.7,27
	C42.2,101.8,30.1,81.8,35,62"/>
<path class="st1" d="M97,44.8l-14.8,9.9v-19c-0.8-0.3-1.6-0.5-2.5-0.7c-7-1.7-14-1.3-20.3,0.7v19l-14.8-9.9c-3.4,3.4-6.1,7.5-8,12.2
	l3.9,2.6h-4.9c-0.2,0.8-0.5,1.5-0.7,2.3c-1.7,7-1.3,14.1,0.8,20.4h4.8L36.8,85c1.9,4.5,4.6,8.6,8.1,12.1l14.5-9.7v18.5
	c0.8,0.3,1.7,0.5,2.6,0.7c6.9,1.7,13.9,1.3,20.2-0.7V87.4l14.6,9.7c3.4-3.4,6.2-7.4,8.1-12.1l-4-2.6h4.9c0.3-0.9,0.6-1.8,0.8-2.7
	c1.7-6.9,1.4-13.8-0.7-20.1h-5l4-2.7C103.2,52.5,100.5,48.3,97,44.8"/>
<path class="st2" d="M101.6,50.5c-0.9-1.4-1.9-2.7-3-4L82.2,57.4v2.3h5.6L101.6,50.5z"/>
<path class="st2" d="M53.7,59.6L40,50.5c-0.9,1.4-1.7,2.8-2.5,4.4l7.2,4.8H53.7z"/>
<path class="st2" d="M40.1,91.3c0.9,1.4,1.9,2.7,3,4l16.2-10.8v-2.1h-5.9L40.1,91.3z"/>
<path class="st2" d="M88.1,82.4l13.4,8.9c0.9-1.4,1.8-2.8,2.5-4.3l-6.9-4.6L88.1,82.4z"/>
<path class="st2" d="M34.6,77.7h29.6v29.5c4.5,0.8,9,0.8,13.3,0V77.7h29.7c0.9-4.5,0.8-9,0.1-13.3H77.4V34.5c-4.5-0.8-9-0.8-13.3,0
	v29.8H34.5C33.7,68.9,33.8,73.4,34.6,77.7z"/>
</svg>
