<?xml version="1.0" encoding="utf-8"?>
<!-- Generator: Adobe Illustrator 25.0.0, SVG Export Plug-In . SVG Version: 6.00 Build 0)  -->
<svg version="1.1" id="Layer_1" xmlns="http://www.w3.org/2000/svg" xmlns:xlink="http://www.w3.org/1999/xlink" x="0px" y="0px"
	 viewBox="0 0 141.7 141.7" style="enable-background:new 0 0 141.7 141.7;" xml:space="preserve">
<style type="text/css">
	.st0{fill:#087CB5;}
	.st1{fill:#F5F5F5;}
	.st2{fill:#28292B;}
</style>
<g>
	<path class="st0" d="M79.7,35.1c-18.3-4.5-36.8,5.5-43.3,22.8h69C101.2,46.9,91.9,38.1,79.7,35.1z"/>
	<path class="st1" d="M62,106.7c18.7,4.6,37.6-5.9,43.7-23.8H36C39.9,94.3,49.4,103.6,62,106.7z"/>
	<path class="st2" d="M35.1,62c-1.8,7.2-1.3,14.4,0.9,20.9h69.7c0.4-1,0.7-2.1,0.9-3.1c1.8-7.4,1.3-14.9-1.2-21.6H36.2
		C35.8,59.4,35.4,60.7,35.1,62z"/>
	<path class="st2" d="M36.4,57.8c0,0.1-0.1,0.2-0.1,0.3h69.2c0-0.1-0.1-0.2-0.1-0.3H36.4z"/>
</g>
</svg>
