<?xml version="1.0" encoding="utf-8"?>
<!-- Generator: Adobe Illustrator 25.0.0, SVG Export Plug-In . SVG Version: 6.00 Build 0)  -->
<svg version="1.1" id="Layer_1" xmlns="http://www.w3.org/2000/svg" xmlns:xlink="http://www.w3.org/1999/xlink" x="0px" y="0px"
	 viewBox="0 0 141.7 141.7" style="enable-background:new 0 0 141.7 141.7;" xml:space="preserve">
<style type="text/css">
	.st0{fill:#E53032;}
	.st1{fill:#00508D;}
	.st2{fill:#F5F5F5;}
</style>
<path class="st0" d="M62.1,106.7c18.4,4.6,37.1-5.6,43.5-23.2H36.4C40.4,94.6,49.7,103.6,62.1,106.7z"/>
<path class="st1" d="M105.6,58.4H36.2c-0.4,1.1-0.8,2.3-1.1,3.5c-1.8,7.4-1.2,14.8,1.2,21.5h69.2c0.4-1.2,0.8-2.4,1.1-3.7
	C108.5,72.4,108,65,105.6,58.4z"/>
<path class="st2" d="M79.8,35.1c-18.5-4.6-37.3,5.7-43.5,23.4h69.3C101.5,47.2,92.2,38.1,79.8,35.1z"/>
</svg>
