<?xml version="1.0" encoding="utf-8"?>
<!-- Generator: Adobe Illustrator 25.0.0, SVG Export Plug-In . SVG Version: 6.00 Build 0)  -->
<svg version="1.1" id="Layer_1" xmlns="http://www.w3.org/2000/svg" xmlns:xlink="http://www.w3.org/1999/xlink" x="0px" y="0px"
	 viewBox="0 0 141.7 141.7" style="enable-background:new 0 0 141.7 141.7;" xml:space="preserve">
<style type="text/css">
	.st0{fill:#FDCF10;}
	.st1{fill:#1D1109;}
	.st2{fill:#E53928;}
</style>
<g>
	<g>
		<path class="st0" d="M35.2,62c4.9-19.8,24.9-31.8,44.6-26.9C99.6,40,111.6,60,106.7,79.7S81.8,111.5,62,106.6
			C42.4,101.7,30.3,81.7,35.2,62"/>
		<path class="st1" d="M36.3,58.4h69.4c-4-11.2-13.4-20.3-25.9-23.4C61.3,30.5,42.6,40.8,36.3,58.4"/>
		<path class="st2" d="M107.1,78.4c0-0.1,0-0.2,0-0.2c0-0.1,0.1-0.3,0.1-0.4c0-0.1,0-0.2,0-0.2c0-0.1,0-0.3,0.1-0.4
			c0-0.1,0-0.1,0-0.2c0-0.2,0.1-0.4,0.1-0.5v-0.1c0-0.2,0.1-0.4,0.1-0.6c0-0.1,0-0.1,0-0.2c0-0.2,0-0.3,0.1-0.5c0-0.1,0-0.1,0-0.2
			c0-0.1,0-0.3,0-0.4c0-0.1,0-0.1,0-0.2c0-0.1,0-0.3,0-0.4c0-0.1,0-0.1,0-0.2c0-0.2,0-0.3,0-0.5c0-0.1,0-0.1,0-0.1
			c0-0.2,0-0.4,0-0.6v-0.1c0-0.2,0-0.4,0-0.5s0-0.1,0-0.2c0-0.1,0-0.3,0-0.4c0-0.1,0-0.1,0-0.2c0-0.1,0-0.3,0-0.4c0-0.1,0-0.1,0-0.2
			c0-0.2,0-0.3,0-0.5c0-0.1,0-0.1,0-0.2c0-0.4,0-0.8-0.1-1.3c0-0.1,0-0.1,0-0.2c0-0.1,0-0.3,0-0.5c0-0.1,0-0.1,0-0.2
			c0-0.1,0-0.3,0-0.4c0-0.1,0-0.1,0-0.2c0-0.1,0-0.3-0.1-0.5c0-0.1,0-0.1,0-0.2c0-0.4-0.1-0.8-0.2-1.2V65c0-0.2-0.1-0.3-0.1-0.5
			c0-0.1,0-0.1,0-0.2c0-0.1-0.1-0.3-0.1-0.4c0-0.1,0-0.1,0-0.2c0-0.1-0.1-0.3-0.1-0.5c0-0.1,0-0.1,0-0.1c0-0.2-0.1-0.4-0.1-0.6l0,0
			c0-0.2-0.1-0.4-0.2-0.6l0,0c-0.3-1.1-0.6-2.1-1-3.2H36.1c-0.4,1.1-0.8,2.3-1.1,3.5c-1.2,4.9-1.4,9.9-0.6,14.6c0,0,0,0,0,0.1
			c0,0.2,0.1,0.4,0.1,0.5v0.1c0,0.2,0.1,0.3,0.1,0.5c0,0.1,0,0.1,0,0.1c0,0.1,0.1,0.3,0.1,0.5c0,0.1,0,0.1,0,0.2
			c0,0.1,0.1,0.3,0.1,0.4c0,0.1,0,0.1,0,0.2c0,0.1,0.1,0.3,0.1,0.4c0,0.1,0,0.2,0.1,0.3c0,0.1,0.1,0.3,0.1,0.4s0.1,0.3,0.1,0.4
			c0,0.1,0,0.1,0.1,0.2c0,0.1,0.1,0.3,0.1,0.4c0,0.1,0,0.1,0.1,0.2c0,0.1,0.1,0.3,0.1,0.4c0,0.1,0,0.1,0.1,0.2
			c0,0.1,0.1,0.3,0.1,0.4c0,0.1,0,0.1,0.1,0.2c0,0.1,0.1,0.3,0.1,0.4v0.1l0,0c0,0.1,0.1,0.2,0.1,0.3h69.2c0-0.1,0.1-0.2,0.1-0.3l0,0
			c0.1-0.2,0.2-0.4,0.2-0.6c0,0,0,0,0-0.1c0.1-0.3,0.2-0.6,0.3-0.9v-0.1c0.1-0.3,0.2-0.5,0.2-0.8c0-0.1,0-0.1,0-0.2
			c0.1-0.3,0.2-0.6,0.3-1c0-0.2,0.1-0.4,0.2-0.6c0-0.1,0-0.1,0-0.2C107,78.7,107.1,78.6,107.1,78.4"/>
	</g>
</g>
</svg>
