<?xml version="1.0" encoding="utf-8"?>
<!-- Generator: Adobe Illustrator 25.0.0, SVG Export Plug-In . SVG Version: 6.00 Build 0)  -->
<svg version="1.1" id="Layer_1" xmlns="http://www.w3.org/2000/svg" xmlns:xlink="http://www.w3.org/1999/xlink" x="0px" y="0px"
	 viewBox="0 0 141.7 141.7" style="enable-background:new 0 0 141.7 141.7;" xml:space="preserve">
<style type="text/css">
	.st0{fill:#273375;}
	.st1{fill:#F3F4F5;}
	.st2{fill:#29337A;}
	.st3{fill:#FFFFFF;}
	.st4{fill:#D32030;}
</style>
<g>
	<path class="st0" d="M70.9,34C50.5,34,34,50.5,34,70.9s16.5,36.9,36.9,36.9l0,0c20.4,0,36.9-16.5,36.9-36.9S91.3,34,70.9,34z"/>
	<g>
		<polygon class="st1" points="59.3,90.5 61.8,87.4 58,88.1 56.6,84.4 55.2,88.1 51.3,87.4 53.7,90.5 51.1,93.5 55.1,92.9 
			56.4,96.5 57.9,92.9 61.9,93.6 		"/>
		<polygon class="st1" points="88.7,93.3 90.1,91.5 87.9,91.9 87.2,89.8 86.4,91.9 84.1,91.5 85.5,93.2 84.1,95 86.3,94.6 
			87.1,96.7 87.9,94.6 90.2,95 		"/>
		<polygon class="st1" points="88.7,54.5 90.1,52.7 87.9,53.1 87.2,51 86.4,53.1 84.1,52.7 85.5,54.4 84.1,56.1 86.3,55.8 
			87.1,57.8 87.9,55.8 90.2,56.2 		"/>
		<polygon class="st1" points="97.8,64.5 99.2,62.7 97.1,63.1 96.3,61 95.5,63.1 93.3,62.7 94.7,64.5 93.2,66.2 95.4,65.8 
			96.2,67.9 97,65.8 99.3,66.2 		"/>
		<polygon class="st1" points="80.8,69 82.2,67.2 80,67.6 79.3,65.5 78.5,67.6 76.2,67.2 77.6,68.9 76.2,70.6 78.4,70.3 79.2,72.3 
			80,70.3 82.3,70.7 		"/>
	</g>
	<g>
		<path class="st2" d="M41.8,48.3c-0.6,0.8-1.1,1.5-1.6,2.3h3.9L41.8,48.3z"/>
		<polygon class="st2" points="60.8,70.9 64.3,70.9 60.8,67.3 		"/>
		<path class="st2" d="M49,41.2c-0.8,0.6-1.7,1.3-2.5,2l2.5,2.5V41.2z"/>
		<polygon class="st2" points="45.5,70.9 49,70.9 49,67.3 		"/>
		<path class="st2" d="M70.9,34c-3.5,0-6.9,0.5-10.1,1.4v10.2l10.1-10.1V34L70.9,34z"/>
		<polygon class="st2" points="70.9,67.5 70.9,62.4 65.8,62.4 		"/>
		<path class="st2" d="M35.5,70.9l8.5-8.5h-9c-0.6,2.7-1,5.6-1,8.5H35.5z"/>
		<polygon class="st2" points="65.8,50.6 70.9,50.6 70.9,45.5 		"/>
	</g>
	<g>
		<polygon class="st3" points="70.9,68.6 70.9,67.5 65.8,62.4 70.9,62.4 70.9,60.5 62.9,60.5 		"/>
		<path class="st3" d="M44.1,50.6h-4c-0.4,0.6-0.8,1.2-1.1,1.8h7.8l-4.6-4.6c-0.1,0.2-0.2,0.3-0.4,0.5L44.1,50.6z"/>
		<polygon class="st3" points="49,67.3 49,70.9 50.9,70.9 50.9,64.6 44.6,70.9 45.5,70.9 		"/>
		<path class="st3" d="M60.8,35.4c-0.6,0.2-1.2,0.4-1.8,0.6v12.3l11.9-11.9v-0.9L60.8,45.6V35.4z"/>
		<path class="st3" d="M49,62.4L49,62.4L49,62.4l1.8-1.8H35.5c-0.2,0.6-0.3,1.2-0.5,1.8h9l-8.5,8.5h4.9L49,62.4L49,62.4z"/>
		<path class="st3" d="M35.5,70.9l8.5-8.5L35.5,70.9z"/>
		<polygon class="st3" points="70.9,52.4 70.9,50.6 65.8,50.6 70.9,45.5 70.9,40.6 59,52.4 		"/>
		<path class="st3" d="M70.9,45.5l-5.1,5.1L70.9,45.5z"/>
		<path class="st3" d="M49,45.6l-2.5-2.5c-0.9,0.8-1.7,1.6-2.5,2.4l5,5l0,0l0,0l1.8,1.8V39.9c-0.6,0.4-1.2,0.8-1.8,1.3V45.6L49,45.6
			z"/>
		<polygon class="st3" points="60.8,67.3 64.3,70.9 69,70.9 59,60.8 59,70.9 60.8,70.9 		"/>
	</g>
	<g>
		<path class="st4" d="M49,50.5L49,50.5L49,50.5z"/>
		<path class="st4" d="M64.7,62.4l-1.8-1.8h8v-8.1H59l-0.1,0.1v-0.1H59l11.9-11.9v-4.2L59,48.3V36c-2.9,1-5.6,2.3-8.1,3.9v12.4
			l0.1,0.1h-0.1v-0.1l-1.8-1.8l0,0H49v-0.1l-5-5c-0.7,0.7-1.3,1.5-2,2.2l4.6,4.6h-7.8c-1.5,2.5-2.6,5.2-3.5,8.1h15.3l0.1-0.1v0.1
			h-0.1l-1.8,1.8v0.1h-0.1l-8.5,8.5h4.2l6.2-6.2v6.2h8.1V60.6l10.1,10.1h1.4c0.2-0.2,0.3-0.3,0.5-0.5v-1.8L64.7,62.4z"/>
		<polygon class="st4" points="59,48.3 70.9,36.4 70.9,36.4 		"/>
		<path class="st4" d="M49,62.4L49,62.4L49,62.4z"/>
		<path class="st4" d="M50.9,60.5L50.9,60.5L50.9,60.5z"/>
		<polygon class="st4" points="59,52.5 59,52.4 59,52.4 		"/>
		<polygon class="st4" points="49,50.6 49.1,50.6 49.1,50.6 49,50.5 		"/>
		<path class="st4" d="M50.9,52.4L50.9,52.4L50.9,52.4z"/>
	</g>
</g>
</svg>
