<?xml version="1.0" encoding="utf-8"?>
<!-- Generator: Adobe Illustrator 25.0.0, SVG Export Plug-In . SVG Version: 6.00 Build 0)  -->
<svg version="1.1" id="Layer_1" xmlns="http://www.w3.org/2000/svg" xmlns:xlink="http://www.w3.org/1999/xlink" x="0px" y="0px"
	 viewBox="0 0 141.7 141.7" style="enable-background:new 0 0 141.7 141.7;" xml:space="preserve">
<style type="text/css">
	.st0{fill:#F6F7F6;}
	.st1{fill:#E5280E;}
	.st2{fill:#1E336A;}
</style>
<g>
	<path class="st0" d="M35,62c4.9-19.8,24.9-31.8,44.7-26.9s31.8,24.9,26.9,44.7c-4.9,19.8-24.9,31.8-44.7,26.9
		C42.2,101.8,30.2,81.8,35,62"/>
	<path class="st1" d="M104.9,56.8H76.3v5.7h30.4C106.3,60.5,105.7,58.7,104.9,56.8 M97.6,45.5H76.3v5.6h25.6
		C100.8,49.2,99.3,47.3,97.6,45.5 M44.2,96.4h53.3c1.6-1.7,3.1-3.6,4.4-5.6H39.8C41.1,92.7,42.5,94.6,44.2,96.4 M79.7,35.1
		c-1.1-0.3-2.2-0.5-3.3-0.7v5.5h14.5C87.5,37.7,83.8,36.1,79.7,35.1 M107.6,68.1H76.4v5.7h31.2C107.8,71.9,107.8,70,107.6,68.1
		 M36.8,85.1h68.1c0.7-1.7,1.3-3.5,1.8-5.4c0-0.1,0.1-0.2,0.1-0.3H35C35.4,81.4,36.1,83.2,36.8,85.1 M62,106.6
		c2.2,0.5,4.4,0.9,6.5,1h4.7c6.2-0.4,12.2-2.4,17.4-5.7H51.1C54.4,104.1,58,105.7,62,106.6"/>
	<path class="st2" d="M73.6,71.7l-0.8-0.6L72,71.7l0.3-0.9l-0.8-0.6h1l0.3-0.9l0.3,0.9h1l-0.8,0.6L73.6,71.7z M69.7,42l0.3,0.9
		l-0.8-0.6l-0.8,0.6l0.3-0.9l-0.8-0.6h1l0.3-0.9l0.3,0.9h1L69.7,42z M69.7,50.5l0.3,0.9l-0.8-0.6l-0.8,0.6l0.3-0.9l-0.8-0.6h1
		l0.3-0.9l0.3,0.9h1L69.7,50.5z M69.6,58.8l0.3,0.9l-0.8-0.6l-0.8,0.6l0.3-0.9l-0.8-0.6h1l0.3-0.9l0.3,0.9h1L69.6,58.8z M69.8,68
		L69,67.4L68.2,68l0.3-0.9l-0.8-0.6h1l0.3-0.9l0.3,0.9h1l-0.8,0.6L69.8,68z M65.9,46.1l0.3,0.9l-0.8-0.6L64.6,47l0.3-0.9l-0.8-0.6h1
		l0.3-0.9l0.3,0.9h1L65.9,46.1z M65.9,54.3l0.3,0.9l-0.8-0.6l-0.8,0.6l0.3-0.9l-0.8-0.6h1l0.3-0.9l0.3,0.9h1L65.9,54.3z M65.9,62.7
		l0.3,0.9L65.4,63l-0.8,0.6l0.3-0.9l-0.8-0.6h1l0.3-0.9l0.3,0.9h1L65.9,62.7z M66.2,71.7l-0.8-0.6l-0.8,0.6l0.3-0.9l-0.8-0.6h1
		l0.3-0.9l0.3,0.9h1l-0.8,0.6L66.2,71.7z M62.3,42l0.3,0.9l-0.8-0.6L61,42.9l0.3-0.9l-0.8-0.6h1l0.3-0.9l0.3,0.9h1L62.3,42z
		 M62.3,50.5l0.3,0.9l-0.8-0.6L61,51.4l0.3-0.9l-0.8-0.6h1l0.3-0.9l0.3,0.9h1L62.3,50.5z M62.2,58.8l0.3,0.9l-0.8-0.6l-0.8,0.6
		l0.3-0.9l-0.8-0.6h1l0.3-0.9l0.3,0.9h1L62.2,58.8z M62.4,68l-0.8-0.6L60.8,68l0.3-0.9l-0.8-0.6h1l0.3-0.9l0.3,0.9h1l-0.8,0.6
		L62.4,68z M58.5,37.9l0.3,0.9L58,38.2l-0.8,0.6l0.3-0.9l-0.8-0.6h1l0.3-0.9l0.3,0.9h1L58.5,37.9z M58.5,46.1l0.3,0.9L58,46.4
		L57.2,47l0.3-0.9l-0.8-0.6h1l0.3-0.9l0.3,0.9h1L58.5,46.1z M58.5,54.3l0.3,0.9L58,54.6l-0.8,0.6l0.3-0.9l-0.8-0.6h1l0.3-0.9
		l0.3,0.9h1L58.5,54.3z M58.5,62.7l0.3,0.9L58,63l-0.8,0.6l0.3-0.9l-0.8-0.6h1l0.3-0.9l0.3,0.9h1L58.5,62.7z M58.8,71.7L58,71.1
		l-0.8,0.6l0.3-0.9l-0.8-0.6h1l0.3-0.9l0.3,0.9h1l-0.8,0.6L58.8,71.7z M54.9,41.7l0.3,0.9L54.4,42l-0.8,0.6l0.3-0.9l-0.8-0.6h1
		l0.3-0.9l0.3,0.9h1L54.9,41.7z M54.9,50.2l0.3,0.9l-0.8-0.6l-0.8,0.6l0.3-0.9l-0.8-0.6h1l0.3-0.9l0.3,0.9h1L54.9,50.2z M54.9,58.5
		l0.3,0.9l-0.8-0.6l-0.8,0.6l0.3-0.9l-0.8-0.6h1l0.3-0.9l0.3,0.9h1L54.9,58.5z M55.1,67.7l-0.8-0.6l-0.8,0.6l0.3-0.9L53,66.2h1
		l0.3-0.9l0.3,0.9h1l-0.8,0.6L55.1,67.7z M51.2,46.1l0.3,0.9l-0.8-0.6L49.9,47l0.3-0.9l-0.8-0.6h1l0.3-0.9l0.3,0.9h1L51.2,46.1z
		 M51.2,54.3l0.3,0.9l-0.8-0.6l-0.8,0.6l0.3-0.9l-0.8-0.6h1l0.3-0.9l0.3,0.9h1L51.2,54.3z M51.2,62.7l0.3,0.9L50.7,63l-0.8,0.6
		l0.3-0.9l-0.8-0.6h1l0.3-0.9l0.3,0.9h1L51.2,62.7z M51.5,71.7l-0.8-0.6l-0.8,0.6l0.3-0.9l-0.8-0.6h1l0.3-0.9l0.3,0.9h1l-0.8,0.6
		L51.5,71.7z M47.5,50.1l0.3,0.9L47,50.4L46.2,51l0.3-0.9l-0.8-0.6h1l0.3-0.9l0.3,0.9h1L47.5,50.1z M47.5,58.4l0.3,0.9L47,58.7
		l-0.8,0.6l0.3-0.9l-0.8-0.6h1l0.3-0.9l0.3,0.9h1L47.5,58.4z M47.7,67.6L46.9,67l-0.8,0.6l0.3-0.9l-0.8-0.6h1l0.3-0.9l0.3,0.9h1
		l-0.8,0.6L47.7,67.6z M65.1,37.3l0.3-0.9l0.3,0.9h1l-0.8,0.6l0.3,0.9l-0.8-0.6l-0.8,0.6l0.3-0.9l-0.8-0.6H65.1z M72.5,62.2l0.3-0.9
		l0.3,0.9h1l-0.8,0.6l0.3,0.9l-0.8-0.6L72,63.7l0.3-0.9l-0.8-0.6H72.5z M72.5,53.7l0.3-0.9l0.3,0.9h1l-0.8,0.6l0.3,0.9l-0.8-0.6
		L72,55.2l0.3-0.9l-0.8-0.6H72.5z M72.5,45.5l0.3-0.9l0.3,0.9h1l-0.8,0.6l0.3,0.9l-0.8-0.6L72,47l0.3-0.9l-0.8-0.6H72.5z M72.5,37.3
		l0.3-0.9l0.3,0.9h1l-0.8,0.6l0.3,0.9l-0.8-0.6L72,38.8l0.3-0.9l-0.8-0.6H72.5z M43.8,54.3l0.3,0.9l-0.8-0.6l-0.8,0.6l0.3-0.9
		L42,53.7h1l0.3-0.9l0.3,0.9h1L43.8,54.3z M43.8,62.7l0.3,0.9L43.3,63l-0.8,0.6l0.3-0.9L42,62.1h1l0.3-0.9l0.3,0.9h1L43.8,62.7z
		 M44.1,71.7l-0.8-0.6l-0.8,0.6l0.3-0.9L42,70.2h1l0.3-0.9l0.3,0.9h1l-0.8,0.6L44.1,71.7z M40.1,58.3l0.3,0.9l-0.8-0.6l-0.8,0.6
		l0.3-0.9l-0.8-0.6h1l0.3-0.9l0.3,0.9h1L40.1,58.3z M40.3,67.4l-0.8-0.6l-0.8,0.6l0.3-0.9l-0.8-0.6h1l0.3-0.9l0.3,0.9h1L40,66.5
		L40.3,67.4z M36.7,71.7l-0.8-0.6l-0.8,0.6l0.3-0.9l-0.8-0.6h1l0.3-0.9l0.3,0.9h1l-0.8,0.6L36.7,71.7z M76.4,34.4
		C76,34.3,73.3,34.1,73,34l-6.6,0.2c-6.9,0.8-13.3,3.6-18.6,7.9l0.1,0.4l-0.3-0.2c-1.2,1-2.4,2.1-3.5,3.2h0.5l-0.8,0.6l0.3,0.9
		l-0.8-0.6L43,46.6c-0.7,0.9-1.4,1.8-2.1,2.7H41l-0.2,0.2c-0.2,0.2-0.3,0.5-0.5,0.7l0.2,0.7l-0.4-0.3c-2.2,3.4-4,7.2-5,11.4
		c0,0.1,0,0.1,0,0.2h0.6l0.3-0.9l0.3,0.9h1l-0.8,0.6l0.3,0.9L36,63.1l-0.8,0.6l0.3-0.9L35,62.5c-0.9,3.8-1.2,7.7-0.9,11.4h42.3
		L76.4,34.4L76.4,34.4z"/>
</g>
</svg>
