<?xml version="1.0" encoding="utf-8"?>
<!-- Generator: Adobe Illustrator 25.0.0, SVG Export Plug-In . SVG Version: 6.00 Build 0)  -->
<svg version="1.1" id="Layer_1" xmlns="http://www.w3.org/2000/svg" xmlns:xlink="http://www.w3.org/1999/xlink" x="0px" y="0px"
	 viewBox="0 0 141.7 141.7" style="enable-background:new 0 0 141.7 141.7;" xml:space="preserve">
<style type="text/css">
	.st0{fill:#46B54A;}
	.st1{fill:#E5280E;}
	.st2{fill:#F5F5F5;}
</style>
<g>
	<path class="st0" d="M38.3,54.6v1.9c0,0.2,0.1,0.3,0.3,0.3h0c0.2,0,0.3-0.1,0.3-0.3v-1.9c0-0.2,0.1-0.3,0.3-0.3h0
		c0.2,0,0.3,0.1,0.3,0.3v2.6c0,0.2-0.1,0.3-0.3,0.3H37c-0.1,0.2-0.2,0.4-0.2,0.7h2.4c0.2,0,0.3,0.1,0.3,0.3v0.3h0.6v-0.3
		c0-0.2,0.1-0.3,0.3-0.3h5c0.2,0,0.3,0.1,0.3,0.3v0.3h0.6v-0.3c0-0.2,0.1-0.3,0.3-0.3h5c0.2,0,0.3,0.1,0.3,0.3v0.3h0.6v-0.3
		c0-0.2,0.1-0.3,0.3-0.3h5c0.2,0,0.3,0.1,0.3,0.3v0.3h0.6v-0.3c0-0.2,0.1-0.3,0.3-0.3h5c0.2,0,0.3,0.1,0.3,0.3v0.3H65v-0.3
		c0-0.2,0.1-0.3,0.3-0.3h5c0.2,0,0.3,0.1,0.3,0.3v0.3h0.6v-0.3c0-0.2,0.1-0.3,0.3-0.3h5c0.2,0,0.3,0.1,0.3,0.3v0.3h0.6v-0.3
		c0-0.2,0.1-0.3,0.3-0.3h5c0.2,0,0.3,0.1,0.3,0.3v0.3h0.6v-0.3c0-0.2,0.1-0.3,0.3-0.3h5c0.2,0,0.3,0.1,0.3,0.3v0.3h0.6v-0.3
		c0-0.2,0.1-0.3,0.3-0.3h5c0.2,0,0.3,0.1,0.3,0.3v0.3H96v-0.3c0-0.2,0.1-0.3,0.3-0.3h5c0.2,0,0.3,0.1,0.3,0.3v0.3h0.6v-0.3
		c0-0.2,0.1-0.3,0.3-0.3h2.4c-0.2-0.6-0.5-1.3-0.8-1.9h-1.1c-0.2,0-0.3,0.1-0.3,0.3v0.7c0,0.2-0.1,0.3-0.3,0.3h0
		c-0.2,0-0.3-0.1-0.3-0.3v-1.3c0-0.2,0.1-0.3,0.3-0.3h1.4c-0.1-0.2-0.2-0.4-0.3-0.6h-1.1c-0.2,0-0.3-0.1-0.3-0.3v0
		c0-0.2,0.1-0.3,0.3-0.3h0.8c-6-11.8-18.3-19.8-32.4-19.8C56.6,34.5,44.3,42.7,38.3,54.6z M103.4,57.1c0-0.2,0.1-0.3,0.3-0.3h0
		c0.2,0,0.3,0.1,0.3,0.3v0c0,0.2-0.1,0.3-0.3,0.3h0C103.5,57.4,103.4,57.3,103.4,57.1L103.4,57.1z M91.6,57.1c0,0.2-0.1,0.3-0.3,0.3
		h0c-0.2,0-0.3-0.1-0.3-0.3v0c0-0.2,0.1-0.3,0.3-0.3h0C91.5,56.8,91.6,57,91.6,57.1L91.6,57.1z M95.3,57.1c0,0.2-0.1,0.3-0.3,0.3
		h-2.5c-0.2,0-0.3-0.1-0.3-0.3v-0.7c0-0.2-0.1-0.3-0.3-0.3h-1.3c-0.2,0-0.3,0.1-0.3,0.3v0.7c0,0.2-0.1,0.3-0.3,0.3h0
		c-0.2,0-0.3-0.1-0.3-0.3v-1.3c0-0.2,0.1-0.3,0.3-0.3h2.5c0.2,0,0.3,0.1,0.3,0.3v0.7c0,0.2,0.1,0.3,0.3,0.3h1.3
		c0.2,0,0.3-0.1,0.3-0.3v0c0-0.2-0.1-0.3-0.3-0.3h-0.6c-0.2,0-0.3-0.1-0.3-0.3v0c0-0.2,0.1-0.3,0.3-0.3H95c0.2,0,0.3,0.1,0.3,0.3
		V57.1z M98.4,55.3v-0.7c0-0.2,0.1-0.3,0.3-0.3h0c0.2,0,0.3,0.1,0.3,0.3v1.9c0,0.2,0.1,0.3,0.3,0.3h0c0.2,0,0.3-0.1,0.3-0.3v-1.9
		c0-0.2,0.1-0.3,0.3-0.3h0c0.2,0,0.3,0.1,0.3,0.3v1.9c0,0.2,0.1,0.3,0.3,0.3h0c0.2,0,0.3-0.1,0.3-0.3v-1.9c0-0.2,0.1-0.3,0.3-0.3h0
		c0.2,0,0.3,0.1,0.3,0.3v2.6c0,0.2-0.1,0.3-0.3,0.3h-2.5c-0.2,0-0.3-0.1-0.3-0.3v-0.7c0-0.2-0.1-0.3-0.3-0.3h-1.2
		c-0.2,0-0.3,0.1-0.3,0.3v0c0,0.2,0.1,0.3,0.3,0.3h0.6c0.2,0,0.3,0.1,0.3,0.3v0c0,0.2-0.1,0.3-0.3,0.3h-1.3c-0.2,0-0.3-0.1-0.3-0.3
		v-1.3c0-0.2,0.1-0.3,0.3-0.3h1.9C98.3,55.6,98.4,55.4,98.4,55.3z M89.8,54.6c0-0.2,0.1-0.3,0.3-0.3h7.5c0.2,0,0.3,0.1,0.3,0.3v0
		c0,0.2-0.1,0.3-0.3,0.3h-7.5C89.9,54.9,89.8,54.8,89.8,54.6L89.8,54.6z M79.2,57.1c0,0.2-0.1,0.3-0.3,0.3h0c-0.2,0-0.3-0.1-0.3-0.3
		v0c0-0.2,0.1-0.3,0.3-0.3h0C79.1,56.8,79.2,57,79.2,57.1L79.2,57.1z M82.9,57.1c0,0.2-0.1,0.3-0.3,0.3h-2.5c-0.2,0-0.3-0.1-0.3-0.3
		v-0.7c0-0.2-0.1-0.3-0.3-0.3h-1.3c-0.2,0-0.3,0.1-0.3,0.3v0.7c0,0.2-0.1,0.3-0.3,0.3h0c-0.2,0-0.3-0.1-0.3-0.3v-1.3
		c0-0.2,0.1-0.3,0.3-0.3h2.5c0.2,0,0.3,0.1,0.3,0.3v0.7c0,0.2,0.1,0.3,0.3,0.3H82c0.2,0,0.3-0.1,0.3-0.3v0c0-0.2-0.1-0.3-0.3-0.3
		h-0.6c-0.2,0-0.3-0.1-0.3-0.3v0c0-0.2,0.1-0.3,0.3-0.3h1.3c0.2,0,0.3,0.1,0.3,0.3V57.1z M86,55.3v-0.7c0-0.2,0.1-0.3,0.3-0.3h0
		c0.2,0,0.3,0.1,0.3,0.3v1.9c0,0.2,0.1,0.3,0.3,0.3h0c0.2,0,0.3-0.1,0.3-0.3v-1.9c0-0.2,0.1-0.3,0.3-0.3h0c0.2,0,0.3,0.1,0.3,0.3
		v1.9c0,0.2,0.1,0.3,0.3,0.3h0c0.2,0,0.3-0.1,0.3-0.3v-1.9c0-0.2,0.1-0.3,0.3-0.3h0c0.2,0,0.3,0.1,0.3,0.3v2.6
		c0,0.2-0.1,0.3-0.3,0.3h-2.5c-0.2,0-0.3-0.1-0.3-0.3v-0.7c0-0.2-0.1-0.3-0.3-0.3h-1.3c-0.2,0-0.3,0.1-0.3,0.3v0
		c0,0.2,0.1,0.3,0.3,0.3h0.6c0.2,0,0.3,0.1,0.3,0.3v0c0,0.2-0.1,0.3-0.3,0.3h-1.3c-0.2,0-0.3-0.1-0.3-0.3v-1.3
		c0-0.2,0.1-0.3,0.3-0.3h1.9C85.9,55.6,86,55.4,86,55.3z M77.4,54.6c0-0.2,0.1-0.3,0.3-0.3h7.5c0.2,0,0.3,0.1,0.3,0.3v0
		c0,0.2-0.1,0.3-0.3,0.3h-7.5C77.5,54.9,77.4,54.8,77.4,54.6L77.4,54.6z M66.8,57.1c0,0.2-0.1,0.3-0.3,0.3h0c-0.2,0-0.3-0.1-0.3-0.3
		v0c0-0.2,0.1-0.3,0.3-0.3h0C66.7,56.8,66.8,57,66.8,57.1L66.8,57.1z M70.5,57.1c0,0.2-0.1,0.3-0.3,0.3h-2.5c-0.2,0-0.3-0.1-0.3-0.3
		v-0.7c0-0.2-0.1-0.3-0.3-0.3h-1.3c-0.2,0-0.3,0.1-0.3,0.3v0.7c0,0.2-0.1,0.3-0.3,0.3h0c-0.2,0-0.3-0.1-0.3-0.3v-1.3
		c0-0.2,0.1-0.3,0.3-0.3h2.5c0.2,0,0.3,0.1,0.3,0.3v0.7c0,0.2,0.1,0.3,0.3,0.3h1.3c0.2,0,0.3-0.1,0.3-0.3v0c0-0.2-0.1-0.3-0.3-0.3
		H69c-0.2,0-0.3-0.1-0.3-0.3v0c0-0.2,0.1-0.3,0.3-0.3h1.3c0.2,0,0.3,0.1,0.3,0.3V57.1z M73.6,55.3v-0.7c0-0.2,0.1-0.3,0.3-0.3h0
		c0.2,0,0.3,0.1,0.3,0.3v1.9c0,0.2,0.1,0.3,0.3,0.3h0c0.2,0,0.3-0.1,0.3-0.3v-1.9c0-0.2,0.1-0.3,0.3-0.3h0c0.2,0,0.3,0.1,0.3,0.3
		v1.9c0,0.2,0.1,0.3,0.3,0.3h0c0.2,0,0.3-0.1,0.3-0.3v-1.9c0-0.2,0.1-0.3,0.3-0.3h0c0.2,0,0.3,0.1,0.3,0.3v2.6
		c0,0.2-0.1,0.3-0.3,0.3h-2.5c-0.2,0-0.3-0.1-0.3-0.3v-0.7c0-0.2-0.1-0.3-0.3-0.3h-1.3c-0.2,0-0.3,0.1-0.3,0.3v0
		c0,0.2,0.1,0.3,0.3,0.3h0.6c0.2,0,0.3,0.1,0.3,0.3v0c0,0.2-0.1,0.3-0.3,0.3h-1.3c-0.2,0-0.3-0.1-0.3-0.3v-1.3
		c0-0.2,0.1-0.3,0.3-0.3h1.9C73.5,55.6,73.6,55.4,73.6,55.3z M65,54.6c0-0.2,0.1-0.3,0.3-0.3h7.5c0.2,0,0.3,0.1,0.3,0.3v0
		c0,0.2-0.1,0.3-0.3,0.3h-7.5C65.1,54.9,65,54.8,65,54.6L65,54.6z M54.4,57.1c0,0.2-0.1,0.3-0.3,0.3h0c-0.2,0-0.3-0.1-0.3-0.3v0
		c0-0.2,0.1-0.3,0.3-0.3h0C54.3,56.8,54.4,57,54.4,57.1L54.4,57.1z M58.1,57.1c0,0.2-0.1,0.3-0.3,0.3h-2.5c-0.2,0-0.3-0.1-0.3-0.3
		v-0.7c0-0.2-0.1-0.3-0.3-0.3h-1.3c-0.2,0-0.3,0.1-0.3,0.3v0.7c0,0.2-0.1,0.3-0.3,0.3h0c-0.2,0-0.3-0.1-0.3-0.3v-1.3
		c0-0.2,0.1-0.3,0.3-0.3h2.5c0.2,0,0.3,0.1,0.3,0.3v0.7c0,0.2,0.1,0.3,0.3,0.3h1.3c0.2,0,0.3-0.1,0.3-0.3v0c0-0.2-0.1-0.3-0.3-0.3
		h-0.6c-0.2,0-0.3-0.1-0.3-0.3v0c0-0.2,0.1-0.3,0.3-0.3h1.3c0.2,0,0.3,0.1,0.3,0.3V57.1z M61.2,55.3v-0.7c0-0.2,0.1-0.3,0.3-0.3h0
		c0.2,0,0.3,0.1,0.3,0.3v1.9c0,0.2,0.1,0.3,0.3,0.3h0c0.2,0,0.3-0.1,0.3-0.3v-1.9c0-0.2,0.1-0.3,0.3-0.3h0c0.2,0,0.3,0.1,0.3,0.3
		v1.9c0,0.2,0.1,0.3,0.3,0.3h0c0.2,0,0.3-0.1,0.3-0.3v-1.9c0-0.2,0.1-0.3,0.3-0.3h0c0.2,0,0.3,0.1,0.3,0.3v2.6
		c0,0.2-0.1,0.3-0.3,0.3h-2.5c-0.2,0-0.3-0.1-0.3-0.3v-0.7c0-0.2-0.1-0.3-0.3-0.3h-1.3c-0.2,0-0.3,0.1-0.3,0.3v0
		c0,0.2,0.1,0.3,0.3,0.3h0.6c0.2,0,0.3,0.1,0.3,0.3v0c0,0.2-0.1,0.3-0.3,0.3H59c-0.2,0-0.3-0.1-0.3-0.3v-1.3c0-0.2,0.1-0.3,0.3-0.3
		h1.9C61.1,55.6,61.2,55.4,61.2,55.3z M52.6,54.6c0-0.2,0.1-0.3,0.3-0.3h7.5c0.2,0,0.3,0.1,0.3,0.3v0c0,0.2-0.1,0.3-0.3,0.3h-7.5
		C52.7,54.9,52.6,54.8,52.6,54.6L52.6,54.6z M42,57.1c0,0.2-0.1,0.3-0.3,0.3h0c-0.2,0-0.3-0.1-0.3-0.3v0c0-0.2,0.1-0.3,0.3-0.3h0
		C41.9,56.8,42,57,42,57.1L42,57.1z M45.7,57.1c0,0.2-0.1,0.3-0.3,0.3h-2.5c-0.2,0-0.3-0.1-0.3-0.3v-0.7c0-0.2-0.1-0.3-0.3-0.3h-1.3
		c-0.2,0-0.3,0.1-0.3,0.3v0.7c0,0.2-0.1,0.3-0.3,0.3h0c-0.2,0-0.3-0.1-0.3-0.3v-1.3c0-0.2,0.1-0.3,0.3-0.3H43c0.2,0,0.3,0.1,0.3,0.3
		v0.7c0,0.2,0.1,0.3,0.3,0.3h1.3c0.2,0,0.3-0.1,0.3-0.3v0c0-0.2-0.1-0.3-0.3-0.3h-0.6c-0.2,0-0.3-0.1-0.3-0.3v0
		c0-0.2,0.1-0.3,0.3-0.3h1.3c0.2,0,0.3,0.1,0.3,0.3V57.1z M48.8,55.3v-0.7c0-0.2,0.1-0.3,0.3-0.3h0c0.2,0,0.3,0.1,0.3,0.3v1.9
		c0,0.2,0.1,0.3,0.3,0.3h0c0.2,0,0.3-0.1,0.3-0.3v-1.9c0-0.2,0.1-0.3,0.3-0.3h0c0.2,0,0.3,0.1,0.3,0.3v1.9c0,0.2,0.1,0.3,0.3,0.3h0
		c0.2,0,0.3-0.1,0.3-0.3v-1.9c0-0.2,0.1-0.3,0.3-0.3h0c0.2,0,0.3,0.1,0.3,0.3v2.6c0,0.2-0.1,0.3-0.3,0.3h-2.5
		c-0.2,0-0.3-0.1-0.3-0.3v-0.7c0-0.2-0.1-0.3-0.3-0.3h-1.3c-0.2,0-0.3,0.1-0.3,0.3v0c0,0.2,0.1,0.3,0.3,0.3h0.6
		c0.2,0,0.3,0.1,0.3,0.3v0c0,0.2-0.1,0.3-0.3,0.3h-1.3c-0.2,0-0.3-0.1-0.3-0.3v-1.3c0-0.2,0.1-0.3,0.3-0.3h1.9
		C48.7,55.6,48.8,55.4,48.8,55.3z M48.2,54.6L48.2,54.6c0,0.2-0.1,0.3-0.3,0.3h-7.5c-0.2,0-0.3-0.1-0.3-0.3v0c0-0.2,0.1-0.3,0.3-0.3
		h7.5C48.1,54.3,48.2,54.4,48.2,54.6z"/>
	<path class="st1" d="M103.4,87.1v-1.9c0-0.2-0.1-0.3-0.3-0.3h0c-0.2,0-0.3,0.1-0.3,0.3v1.9c0,0.2-0.1,0.3-0.3,0.3h0
		c-0.2,0-0.3-0.1-0.3-0.3v-2.6c0-0.2,0.1-0.3,0.3-0.3h2.2c0.1-0.2,0.2-0.4,0.2-0.7h-2.4c-0.2,0-0.3-0.1-0.3-0.3V83h-0.6v0.3
		c0,0.2-0.1,0.3-0.3,0.3h-5c-0.2,0-0.3-0.1-0.3-0.3V83h-0.6v0.3c0,0.2-0.1,0.3-0.3,0.3h-5c-0.2,0-0.3-0.1-0.3-0.3V83h-0.6v0.3
		c0,0.2-0.1,0.3-0.3,0.3h-5c-0.2,0-0.3-0.1-0.3-0.3V83H83v0.3c0,0.2-0.1,0.3-0.3,0.3h-5c-0.2,0-0.3-0.1-0.3-0.3V83h-0.6v0.3
		c0,0.2-0.1,0.3-0.3,0.3h-5c-0.2,0-0.3-0.1-0.3-0.3V83h-0.6v0.3c0,0.2-0.1,0.3-0.3,0.3h-5c-0.2,0-0.3-0.1-0.3-0.3V83h-0.6v0.3
		c0,0.2-0.1,0.3-0.3,0.3h-5c-0.2,0-0.3-0.1-0.3-0.3V83h-0.6v0.3c0,0.2-0.1,0.3-0.3,0.3h-5c-0.2,0-0.3-0.1-0.3-0.3V83h-0.6v0.3
		c0,0.2-0.1,0.3-0.3,0.3h-5c-0.2,0-0.3-0.1-0.3-0.3V83h-0.6v0.3c0,0.2-0.1,0.3-0.3,0.3h-5c-0.2,0-0.3-0.1-0.3-0.3V83h-0.6v0.3
		c0,0.2-0.1,0.3-0.3,0.3h-2.4c0.2,0.6,0.5,1.3,0.8,1.9h1.1c0.2,0,0.3-0.1,0.3-0.3v-0.7c0-0.2,0.1-0.3,0.3-0.3h0
		c0.2,0,0.3,0.1,0.3,0.3v1.3c0,0.2-0.1,0.3-0.3,0.3h-1.4c0.1,0.2,0.2,0.4,0.3,0.6h1.1c0.2,0,0.3,0.1,0.3,0.3v0
		c0,0.2-0.1,0.3-0.3,0.3h-0.8c6,11.8,18.3,19.8,32.4,19.8C85.1,107.2,97.4,99,103.4,87.1z M38.3,84.6c0,0.2-0.1,0.3-0.3,0.3h0
		c-0.2,0-0.3-0.1-0.3-0.3v0c0-0.2,0.1-0.3,0.3-0.3h0C38.2,84.3,38.3,84.4,38.3,84.6L38.3,84.6z M50.1,84.6c0-0.2,0.1-0.3,0.3-0.3h0
		c0.2,0,0.3,0.1,0.3,0.3v0c0,0.2-0.1,0.3-0.3,0.3h0C50.2,84.9,50.1,84.7,50.1,84.6L50.1,84.6z M46.4,84.6c0-0.2,0.1-0.3,0.3-0.3h2.5
		c0.2,0,0.3,0.1,0.3,0.3v0.7c0,0.2,0.1,0.3,0.3,0.3H51c0.2,0,0.3-0.1,0.3-0.3v-0.7c0-0.2,0.1-0.3,0.3-0.3h0c0.2,0,0.3,0.1,0.3,0.3
		v1.3c0,0.2-0.1,0.3-0.3,0.3h-2.5c-0.2,0-0.3-0.1-0.3-0.3v-0.7c0-0.2-0.1-0.3-0.3-0.3h-1.3c-0.2,0-0.3,0.1-0.3,0.3v0
		c0,0.2,0.1,0.3,0.3,0.3h0.6c0.2,0,0.3,0.1,0.3,0.3v0c0,0.2-0.1,0.3-0.3,0.3h-1.3c-0.2,0-0.3-0.1-0.3-0.3V84.6z M43.3,86.4v0.7
		c0,0.2-0.1,0.3-0.3,0.3h0c-0.2,0-0.3-0.1-0.3-0.3v-1.9c0-0.2-0.1-0.3-0.3-0.3h0c-0.2,0-0.3,0.1-0.3,0.3v1.9c0,0.2-0.1,0.3-0.3,0.3
		h0c-0.2,0-0.3-0.1-0.3-0.3v-1.9c0-0.2-0.1-0.3-0.3-0.3h0c-0.2,0-0.3,0.1-0.3,0.3v1.9c0,0.2-0.1,0.3-0.3,0.3h0
		c-0.2,0-0.3-0.1-0.3-0.3v-2.6c0-0.2,0.1-0.3,0.3-0.3H43c0.2,0,0.3,0.1,0.3,0.3v0.7c0,0.2,0.1,0.3,0.3,0.3h1.2
		c0.2,0,0.3-0.1,0.3-0.3v0c0-0.2-0.1-0.3-0.3-0.3h-0.6c-0.2,0-0.3-0.1-0.3-0.3v0c0-0.2,0.1-0.3,0.3-0.3h1.3c0.2,0,0.3,0.1,0.3,0.3
		v1.3c0,0.2-0.1,0.3-0.3,0.3h-1.9C43.4,86.1,43.3,86.3,43.3,86.4z M51.9,87.1c0,0.2-0.1,0.3-0.3,0.3h-7.5c-0.2,0-0.3-0.1-0.3-0.3v0
		c0-0.2,0.1-0.3,0.3-0.3h7.5C51.8,86.8,51.9,86.9,51.9,87.1L51.9,87.1z M62.5,84.6c0-0.2,0.1-0.3,0.3-0.3h0c0.2,0,0.3,0.1,0.3,0.3v0
		c0,0.2-0.1,0.3-0.3,0.3h0C62.6,84.9,62.5,84.7,62.5,84.6L62.5,84.6z M55.7,86.4v0.7c0,0.2-0.1,0.3-0.3,0.3h0
		c-0.2,0-0.3-0.1-0.3-0.3v-1.9c0-0.2-0.1-0.3-0.3-0.3h0c-0.2,0-0.3,0.1-0.3,0.3v1.9c0,0.2-0.1,0.3-0.3,0.3h0c-0.2,0-0.3-0.1-0.3-0.3
		v-1.9c0-0.2-0.1-0.3-0.3-0.3h0c-0.2,0-0.3,0.1-0.3,0.3v1.9c0,0.2-0.1,0.3-0.3,0.3h0c-0.2,0-0.3-0.1-0.3-0.3v-2.6
		c0-0.2,0.1-0.3,0.3-0.3h2.5c0.2,0,0.3,0.1,0.3,0.3v0.7c0,0.2,0.1,0.3,0.3,0.3h1.3c0.2,0,0.3-0.1,0.3-0.3v0c0-0.2-0.1-0.3-0.3-0.3
		h-0.6c-0.2,0-0.3-0.1-0.3-0.3v0c0-0.2,0.1-0.3,0.3-0.3h1.3c0.2,0,0.3,0.1,0.3,0.3v1.3c0,0.2-0.1,0.3-0.3,0.3H56
		C55.8,86.1,55.7,86.3,55.7,86.4z M64.3,87.1c0,0.2-0.1,0.3-0.3,0.3h-7.5c-0.2,0-0.3-0.1-0.3-0.3v0c0-0.2,0.1-0.3,0.3-0.3H64
		C64.2,86.8,64.3,86.9,64.3,87.1L64.3,87.1z M64.3,85.8c0,0.2-0.1,0.3-0.3,0.3h-2.5c-0.2,0-0.3-0.1-0.3-0.3v-0.7
		c0-0.2-0.1-0.3-0.3-0.3h-1.2c-0.2,0-0.3,0.1-0.3,0.3v0c0,0.2,0.1,0.3,0.3,0.3h0.6c0.2,0,0.3,0.1,0.3,0.3v0c0,0.2-0.1,0.3-0.3,0.3
		h-1.3c-0.2,0-0.3-0.1-0.3-0.3v-1.3c0-0.2,0.1-0.3,0.3-0.3h2.5c0.2,0,0.3,0.1,0.3,0.3v0.7c0,0.2,0.1,0.3,0.3,0.3h1.3
		c0.2,0,0.3-0.1,0.3-0.3v-0.7c0-0.2,0.1-0.3,0.3-0.3h0c0.2,0,0.3,0.1,0.3,0.3V85.8z M74.9,84.6c0-0.2,0.1-0.3,0.3-0.3h0
		c0.2,0,0.3,0.1,0.3,0.3v0c0,0.2-0.1,0.3-0.3,0.3h0C75,84.9,74.9,84.7,74.9,84.6L74.9,84.6z M71.2,84.6c0-0.2,0.1-0.3,0.3-0.3H74
		c0.2,0,0.3,0.1,0.3,0.3v0.7c0,0.2,0.1,0.3,0.3,0.3h1.3c0.2,0,0.3-0.1,0.3-0.3v-0.7c0-0.2,0.1-0.3,0.3-0.3h0c0.2,0,0.3,0.1,0.3,0.3
		v1.3c0,0.2-0.1,0.3-0.3,0.3h-2.5c-0.2,0-0.3-0.1-0.3-0.3v-0.7c0-0.2-0.1-0.3-0.3-0.3h-1.3c-0.2,0-0.3,0.1-0.3,0.3v0
		c0,0.2,0.1,0.3,0.3,0.3h0.6c0.2,0,0.3,0.1,0.3,0.3v0c0,0.2-0.1,0.3-0.3,0.3h-1.3c-0.2,0-0.3-0.1-0.3-0.3V84.6z M68.1,86.4v0.7
		c0,0.2-0.1,0.3-0.3,0.3h0c-0.2,0-0.3-0.1-0.3-0.3v-1.9c0-0.2-0.1-0.3-0.3-0.3h0c-0.2,0-0.3,0.1-0.3,0.3v1.9c0,0.2-0.1,0.3-0.3,0.3
		h0c-0.2,0-0.3-0.1-0.3-0.3v-1.9c0-0.2-0.1-0.3-0.3-0.3h0c-0.2,0-0.3,0.1-0.3,0.3v1.9c0,0.2-0.1,0.3-0.3,0.3h0
		c-0.2,0-0.3-0.1-0.3-0.3v-2.6c0-0.2,0.1-0.3,0.3-0.3h2.5c0.2,0,0.3,0.1,0.3,0.3v0.7c0,0.2,0.1,0.3,0.3,0.3h1.3
		c0.2,0,0.3-0.1,0.3-0.3v0c0-0.2-0.1-0.3-0.3-0.3H69c-0.2,0-0.3-0.1-0.3-0.3v0c0-0.2,0.1-0.3,0.3-0.3h1.3c0.2,0,0.3,0.1,0.3,0.3v1.3
		c0,0.2-0.1,0.3-0.3,0.3h-1.9C68.2,86.1,68.1,86.3,68.1,86.4z M76.7,87.1c0,0.2-0.1,0.3-0.3,0.3H69c-0.2,0-0.3-0.1-0.3-0.3v0
		c0-0.2,0.1-0.3,0.3-0.3h7.5C76.6,86.8,76.7,86.9,76.7,87.1L76.7,87.1z M87.3,84.6c0-0.2,0.1-0.3,0.3-0.3h0c0.2,0,0.3,0.1,0.3,0.3v0
		c0,0.2-0.1,0.3-0.3,0.3h0C87.4,84.9,87.3,84.7,87.3,84.6L87.3,84.6z M83.6,84.6c0-0.2,0.1-0.3,0.3-0.3h2.5c0.2,0,0.3,0.1,0.3,0.3
		v0.7c0,0.2,0.1,0.3,0.3,0.3h1.3c0.2,0,0.3-0.1,0.3-0.3v-0.7c0-0.2,0.1-0.3,0.3-0.3h0c0.2,0,0.3,0.1,0.3,0.3v1.3
		c0,0.2-0.1,0.3-0.3,0.3h-2.5c-0.2,0-0.3-0.1-0.3-0.3v-0.7c0-0.2-0.1-0.3-0.3-0.3h-1.3c-0.2,0-0.3,0.1-0.3,0.3v0
		c0,0.2,0.1,0.3,0.3,0.3h0.6c0.2,0,0.3,0.1,0.3,0.3v0c0,0.2-0.1,0.3-0.3,0.3h-1.3c-0.2,0-0.3-0.1-0.3-0.3V84.6z M80.5,86.4v0.7
		c0,0.2-0.1,0.3-0.3,0.3h0c-0.2,0-0.3-0.1-0.3-0.3v-1.9c0-0.2-0.1-0.3-0.3-0.3h0c-0.2,0-0.3,0.1-0.3,0.3v1.9c0,0.2-0.1,0.3-0.3,0.3
		h0c-0.2,0-0.3-0.1-0.3-0.3v-1.9c0-0.2-0.1-0.3-0.3-0.3h0c-0.2,0-0.3,0.1-0.3,0.3v1.9c0,0.2-0.1,0.3-0.3,0.3h0
		c-0.2,0-0.3-0.1-0.3-0.3v-2.6c0-0.2,0.1-0.3,0.3-0.3h2.5c0.2,0,0.3,0.1,0.3,0.3v0.7c0,0.2,0.1,0.3,0.3,0.3H82
		c0.2,0,0.3-0.1,0.3-0.3v0c0-0.2-0.1-0.3-0.3-0.3h-0.6c-0.2,0-0.3-0.1-0.3-0.3v0c0-0.2,0.1-0.3,0.3-0.3h1.3c0.2,0,0.3,0.1,0.3,0.3
		v1.3c0,0.2-0.1,0.3-0.3,0.3h-1.9C80.6,86.1,80.5,86.3,80.5,86.4z M89.1,87.1c0,0.2-0.1,0.3-0.3,0.3h-7.5c-0.2,0-0.3-0.1-0.3-0.3v0
		c0-0.2,0.1-0.3,0.3-0.3h7.5C89,86.8,89.1,86.9,89.1,87.1L89.1,87.1z M99.7,84.6c0-0.2,0.1-0.3,0.3-0.3h0c0.2,0,0.3,0.1,0.3,0.3v0
		c0,0.2-0.1,0.3-0.3,0.3h0C99.8,84.9,99.7,84.7,99.7,84.6L99.7,84.6z M96,84.6c0-0.2,0.1-0.3,0.3-0.3h2.5c0.2,0,0.3,0.1,0.3,0.3v0.7
		c0,0.2,0.1,0.3,0.3,0.3h1.3c0.2,0,0.3-0.1,0.3-0.3v-0.7c0-0.2,0.1-0.3,0.3-0.3h0c0.2,0,0.3,0.1,0.3,0.3v1.3c0,0.2-0.1,0.3-0.3,0.3
		h-2.5c-0.2,0-0.3-0.1-0.3-0.3v-0.7c0-0.2-0.1-0.3-0.3-0.3h-1.3c-0.2,0-0.3,0.1-0.3,0.3v0c0,0.2,0.1,0.3,0.3,0.3h0.6
		c0.2,0,0.3,0.1,0.3,0.3v0c0,0.2-0.1,0.3-0.3,0.3h-1.3c-0.2,0-0.3-0.1-0.3-0.3V84.6z M92.9,86.4v0.7c0,0.2-0.1,0.3-0.3,0.3h0
		c-0.2,0-0.3-0.1-0.3-0.3v-1.9c0-0.2-0.1-0.3-0.3-0.3h0c-0.2,0-0.3,0.1-0.3,0.3v1.9c0,0.2-0.1,0.3-0.3,0.3h0c-0.2,0-0.3-0.1-0.3-0.3
		v-1.9c0-0.2-0.1-0.3-0.3-0.3h0c-0.2,0-0.3,0.1-0.3,0.3v1.9c0,0.2-0.1,0.3-0.3,0.3h0c-0.2,0-0.3-0.1-0.3-0.3v-2.6
		c0-0.2,0.1-0.3,0.3-0.3h2.5c0.2,0,0.3,0.1,0.3,0.3v0.7c0,0.2,0.1,0.3,0.3,0.3h1.3c0.2,0,0.3-0.1,0.3-0.3v0c0-0.2-0.1-0.3-0.3-0.3
		h-0.6c-0.2,0-0.3-0.1-0.3-0.3v0c0-0.2,0.1-0.3,0.3-0.3H95c0.2,0,0.3,0.1,0.3,0.3v1.3c0,0.2-0.1,0.3-0.3,0.3h-1.9
		C93,86.1,92.9,86.3,92.9,86.4z M93.5,87.1L93.5,87.1c0-0.2,0.1-0.3,0.3-0.3h7.5c0.2,0,0.3,0.1,0.3,0.3v0c0,0.2-0.1,0.3-0.3,0.3
		h-7.5C93.6,87.4,93.5,87.3,93.5,87.1z"/>
	<path class="st2" d="M102.2,59.1v-0.3h-0.6v0.3c0,0.2-0.1,0.3-0.3,0.3h-5c-0.2,0-0.3-0.1-0.3-0.3v-0.3h-0.6v0.3
		c0,0.2-0.1,0.3-0.3,0.3h-5c-0.2,0-0.3-0.1-0.3-0.3v-0.3h-0.6v0.3c0,0.2-0.1,0.3-0.3,0.3h-5c-0.2,0-0.3-0.1-0.3-0.3v-0.3h-0.6v0.3
		c0,0.2-0.1,0.3-0.3,0.3h-5c-0.2,0-0.3-0.1-0.3-0.3v-0.3h-0.6v0.3c0,0.2-0.1,0.3-0.3,0.3h-5c-0.2,0-0.3-0.1-0.3-0.3v-0.3h-0.6v0.3
		c0,0.2-0.1,0.3-0.3,0.3h-5c-0.2,0-0.3-0.1-0.3-0.3v-0.3h-0.6v0.3c0,0.2-0.1,0.3-0.3,0.3h-5c-0.2,0-0.3-0.1-0.3-0.3v-0.3h-0.6v0.3
		c0,0.2-0.1,0.3-0.3,0.3h-5c-0.2,0-0.3-0.1-0.3-0.3v-0.3h-0.6v0.3c0,0.2-0.1,0.3-0.3,0.3h-5c-0.2,0-0.3-0.1-0.3-0.3v-0.3h-0.6v0.3
		c0,0.2-0.1,0.3-0.3,0.3h-5c-0.2,0-0.3-0.1-0.3-0.3v-0.3h-0.6v0.3c0,0.2-0.1,0.3-0.3,0.3h-2.9c-1.2,3.6-1.9,7.5-1.9,11.5
		s0.7,7.9,1.9,11.5h2.9c0.2,0,0.3,0.1,0.3,0.3V83h0.6v-0.3c0-0.2,0.1-0.3,0.3-0.3h5c0.2,0,0.3,0.1,0.3,0.3V83h0.6v-0.3
		c0-0.2,0.1-0.3,0.3-0.3h5c0.2,0,0.3,0.1,0.3,0.3V83h0.6v-0.3c0-0.2,0.1-0.3,0.3-0.3h5c0.2,0,0.3,0.1,0.3,0.3V83h0.6v-0.3
		c0-0.2,0.1-0.3,0.3-0.3h5c0.2,0,0.3,0.1,0.3,0.3V83H65v-0.3c0-0.2,0.1-0.3,0.3-0.3h5c0.2,0,0.3,0.1,0.3,0.3V83h0.6v-0.3
		c0-0.2,0.1-0.3,0.3-0.3h5c0.2,0,0.3,0.1,0.3,0.3V83h0.6v-0.3c0-0.2,0.1-0.3,0.3-0.3h5c0.2,0,0.3,0.1,0.3,0.3V83h0.6v-0.3
		c0-0.2,0.1-0.3,0.3-0.3h5c0.2,0,0.3,0.1,0.3,0.3V83h0.6v-0.3c0-0.2,0.1-0.3,0.3-0.3h5c0.2,0,0.3,0.1,0.3,0.3V83H96v-0.3
		c0-0.2,0.1-0.3,0.3-0.3h5c0.2,0,0.3,0.1,0.3,0.3V83h0.6v-0.3c0-0.2,0.1-0.3,0.3-0.3h2.9c1.2-3.6,1.9-7.5,1.9-11.5
		s-0.7-7.9-1.9-11.5h-2.9C102.3,59.4,102.2,59.2,102.2,59.1z M68.1,59.8c0,0,0.1,0.1,0.1,0.2c0.6,0.8,1.8,1,2.7,0.4
		c0,0,0.1,0.1,0.1,0.1c0.9,0.6,2.1,0.3,2.6-0.6c0.2,0.6,0,1.2-0.4,1.6c-0.7,0.6-1.7,0.6-2.3,0c-0.4,0.4-1,0.6-1.6,0.4
		C68.4,61.6,67.9,60.7,68.1,59.8z M60.6,66.3c1-1.9,2.8-3.4,4.8-4.1c0.1,0,0.2,0.1,0.1,0.2c-4.5,3.7-5.4,10.4-1.9,15.2
		c0.2,0.2,0.4,0.5,0.6,0.7C59.9,76,58.3,70.6,60.6,66.3z M72.8,79.5c1.3,0.4,2.7,0.7,4,0.6c0.1,0,0.2,0.2,0,0.2
		c-1.8,0.5-3.5,0.6-5.2,0.2L71,81.8c0,0.1-0.2,0.1-0.2,0l-0.7-1.3c-1.7,0.4-3.5,0.3-5.2-0.2c-0.1,0-0.1-0.2,0-0.2
		c1.4,0,2.7-0.2,4-0.6c-2-1.1-3.7-2.9-4.7-5.2c-1.6-4-0.6-8.5,2.4-11.4c0.1-0.1,0.3,0,0.2,0.2c-3,4.9-1.8,11.3,2.8,14.8l-0.2-14.2
		c0-0.2,0.1-0.4,0.2-0.5l0.7-0.6c0.2-0.2,0.6-0.2,0.8,0l0.8,0.6c0.1,0.1,0.2,0.3,0.2,0.5L72,77.9c4.6-3.5,5.8-9.9,2.8-14.8
		c-0.1-0.1,0.1-0.3,0.2-0.2c3,2.9,4,7.4,2.4,11.4C76.5,76.6,74.8,78.4,72.8,79.5z M77.5,78.3c0.2-0.2,0.4-0.5,0.6-0.7
		c3.5-4.8,2.6-11.5-1.9-15.2c-0.1-0.1,0-0.3,0.1-0.2c2.1,0.7,3.8,2.2,4.8,4.1C83.4,70.6,81.8,76,77.5,78.3z"/>
	<path class="st1" d="M69.3,61.8c0.6,0.2,1.2,0,1.6-0.4c0.6,0.6,1.7,0.7,2.3,0c0.4-0.4,0.6-1,0.4-1.6c-0.6,0.9-1.7,1.2-2.6,0.6
		c0,0-0.1-0.1-0.1-0.1c-0.8,0.6-2,0.5-2.7-0.4c0,0-0.1-0.1-0.1-0.2C67.9,60.7,68.4,61.6,69.3,61.8z"/>
	<path class="st1" d="M75,62.9c-0.1-0.1-0.3,0-0.2,0.2c3,4.9,1.8,11.3-2.8,14.8l0.2-14.2c0-0.2-0.1-0.4-0.2-0.5l-0.8-0.6
		c-0.2-0.2-0.6-0.2-0.8,0l-0.7,0.6c-0.1,0.1-0.2,0.3-0.2,0.5l0.2,14.2c-4.6-3.5-5.8-9.9-2.8-14.8c0.1-0.1-0.1-0.3-0.2-0.2
		c-3,2.9-4,7.4-2.4,11.4c0.9,2.3,2.6,4.1,4.7,5.2c-1.3,0.4-2.7,0.7-4,0.6c-0.1,0-0.2,0.2,0,0.2c1.7,0.5,3.5,0.6,5.2,0.2l0.7,1.3
		c0,0.1,0.2,0.1,0.2,0l0.7-1.3c1.7,0.4,3.5,0.3,5.2-0.2c0.1,0,0.1-0.2,0-0.2c-1.4,0-2.7-0.2-4-0.6c2-1.1,3.7-2.9,4.7-5.2
		C79,70.3,78,65.8,75,62.9z"/>
	<path class="st1" d="M76.2,62.2c-0.1,0-0.2,0.1-0.1,0.2c4.5,3.7,5.5,10.4,1.9,15.2c-0.2,0.2-0.4,0.5-0.6,0.7
		c4.3-2.3,5.9-7.7,3.6-12C80,64.4,78.3,62.9,76.2,62.2z"/>
	<path class="st1" d="M65.6,62.4c0.1-0.1,0-0.3-0.1-0.2c-2.1,0.7-3.8,2.2-4.8,4.1c-2.3,4.3-0.7,9.7,3.6,12c-0.2-0.2-0.4-0.5-0.6-0.7
		C60.1,72.8,61,66.1,65.6,62.4z"/>
</g>
</svg>
